<svg width="24" height="24" viewBox="0 0 24 24" fill="none" xmlns="http://www.w3.org/2000/svg">
<path d="M2.5 6C2.5 5.44772 2.94772 5 3.5 5H20.5C21.0523 5 21.5 5.44772 21.5 6C21.5 6.55228 21.0523 7 20.5 7H3.5C2.94772 7 2.5 6.55228 2.5 6ZM6.5 10C6.5 9.44772 6.94772 9 7.5 9H20.5C21.0523 9 21.5 9.44772 21.5 10C21.5 10.5523 21.0523 11 20.5 11H7.5C6.94772 11 6.5 10.5523 6.5 10ZM2.5 14C2.5 13.4477 2.94772 13 3.5 13H20.5C21.0523 13 21.5 13.4477 21.5 14C21.5 14.5523 21.0523 15 20.5 15H3.5C2.94772 15 2.5 14.5523 2.5 14ZM6.5 18C6.5 17.4477 6.94772 17 7.5 17H20.5C21.0523 17 21.5 17.4477 21.5 18C21.5 18.5523 21.0523 19 20.5 19H7.5C6.94772 19 6.5 18.5523 6.5 18Z" fill="#313131"/>
</svg>
