<svg width="24" height="24" viewBox="0 0 24 24" fill="none" xmlns="http://www.w3.org/2000/svg">
<path d="M2.5 6C2.5 5.44772 2.94772 5 3.5 5H20.5C21.0523 5 21.5 5.44772 21.5 6C21.5 6.55228 21.0523 7 20.5 7H3.5C2.94772 7 2.5 6.55228 2.5 6ZM2.5 10C2.5 9.44772 2.94772 9 3.5 9H16.5C17.0523 9 17.5 9.44772 17.5 10C17.5 10.5523 17.0523 11 16.5 11H3.5C2.94772 11 2.5 10.5523 2.5 10ZM2.5 14C2.5 13.4477 2.94772 13 3.5 13H20.5C21.0523 13 21.5 13.4477 21.5 14C21.5 14.5523 21.0523 15 20.5 15H3.5C2.94772 15 2.5 14.5523 2.5 14ZM2.5 18C2.5 17.4477 2.94772 17 3.5 17H16.5C17.0523 17 17.5 17.4477 17.5 18C17.5 18.5523 17.0523 19 16.5 19H3.5C2.94772 19 2.5 18.5523 2.5 18Z" fill="#313131"/>
</svg>
