<svg width="24" height="24" viewBox="0 0 24 24" fill="none" xmlns="http://www.w3.org/2000/svg">
<path d="M19.1144 4.87353H15.0189V4.40011C15.0189 3.62451 14.3951 3 13.6203 3H10.3801C9.60532 3 8.98145 3.62451 8.98145 4.40011V4.87353H4.88601C4.37282 4.87353 3.9502 5.29659 3.9502 5.8103C3.9502 6.32401 4.37282 6.74706 4.88601 6.74706H5.9627V18.0487C5.9627 19.6805 7.28088 21 8.91101 21H15.0894C16.7195 21 18.0377 19.6805 18.0377 18.0487V6.75713H19.1144C19.6276 6.75713 20.0502 6.33408 20.0502 5.82037C20.0502 5.30666 19.6276 4.8836 19.1144 4.8836V4.87353ZM16.2264 18.0386C16.2264 18.6631 15.7133 19.1768 15.0894 19.1768H8.91101C8.28713 19.1768 7.77395 18.6631 7.77395 18.0386V6.75713H16.2264V18.0487V18.0386ZM13.8114 16.9205C13.3083 16.9205 12.9058 16.5176 12.9058 16.014V9.76889C12.9058 9.26525 13.3083 8.86234 13.8114 8.86234C14.3146 8.86234 14.7171 9.26525 14.7171 9.76889V16.014C14.7171 16.5176 14.3146 16.9205 13.8114 16.9205ZM10.1889 16.9205C9.68582 16.9205 9.28332 16.5176 9.28332 16.014V9.76889C9.28332 9.26525 9.68582 8.86234 10.1889 8.86234C10.6921 8.86234 11.0946 9.26525 11.0946 9.76889V16.014C11.0946 16.5176 10.6921 16.9205 10.1889 16.9205Z" fill="#313131"/>
</svg>
