<svg width="24" height="24" viewBox="0 0 24 24" fill="none" xmlns="http://www.w3.org/2000/svg">
<path d="M4.5 4C4.5 3.44772 4.94772 3 5.5 3H13.5C16.2614 3 18.5 5.23858 18.5 8C18.5 9.43071 17.8991 10.7211 16.9359 11.6325C18.4657 12.4875 19.5 14.123 19.5 16C19.5 18.7614 17.2614 21 14.5 21H5.5C4.94772 21 4.5 20.5523 4.5 20V4ZM6.5 13V19H14.5C16.1569 19 17.5 17.6569 17.5 16C17.5 14.3431 16.1569 13 14.5 13H6.5ZM6.5 11H13.5C15.1569 11 16.5 9.65685 16.5 8C16.5 6.34315 15.1569 5 13.5 5H6.5V11Z" fill="#313131"/>
</svg>
