<svg width="24" height="24" viewBox="0 0 24 24" fill="none" xmlns="http://www.w3.org/2000/svg">
<path d="M3.81744 2C3.30405 2 2.87407 2.38876 2.82249 2.89955L1.00516 20.8995C0.945689 21.4886 1.4081 22 2.0001 22H21.9999C22.5919 22 23.0543 21.4886 22.9948 20.8995L21.1775 2.89955C21.1259 2.38876 20.6959 2 20.1826 2H3.81744ZM8.62633 6.24744L8.67578 6.29029C10.5791 7.93978 13.421 7.93978 15.3242 6.29029L15.3737 6.24744C15.7933 5.88375 16.4312 5.92587 16.7984 6.34151C17.1655 6.75715 17.123 7.38891 16.7034 7.75259L16.6539 7.79544C13.9893 10.1047 10.0107 10.1047 7.34608 7.79544L7.29664 7.75259C6.877 7.38891 6.83448 6.75715 7.20166 6.34151C7.56885 5.92587 8.20669 5.88375 8.62633 6.24744Z" fill="#313131"/>
</svg>
