<svg width="24" height="24" viewBox="0 0 24 24" fill="none" xmlns="http://www.w3.org/2000/svg">
<path d="M12 10.6751C11.651 10.6751 11.3098 10.7786 11.0196 10.9725C10.7294 11.1664 10.5032 11.442 10.3696 11.7644C10.2361 12.0869 10.2011 12.4417 10.2692 12.784C10.3373 13.1264 10.5054 13.4408 10.7522 13.6876C10.999 13.9344 11.3134 14.1025 11.6557 14.1706C11.998 14.2387 12.3529 14.2037 12.6753 14.0701C12.9978 13.9366 13.2734 13.7104 13.4673 13.4202C13.6612 13.13 13.7647 12.7888 13.7647 12.4398C13.7647 11.9717 13.5788 11.5229 13.2478 11.1919C12.9169 10.861 12.468 10.6751 12 10.6751Z" fill="#313131"/>
<path d="M17.2793 9.34518H17.2751C16.7104 9.35224 16.1527 9.34518 15.5915 9.34871C15.4453 9.35227 15.3 9.3255 15.1647 9.2701C15.0293 9.2147 14.9069 9.13187 14.8052 9.02682C14.5773 8.78065 14.3831 8.5053 14.2278 8.208C14.1233 8.03012 14.0118 7.85506 13.8995 7.68353C13.8761 7.64815 13.8435 7.61977 13.8052 7.60139C13.7669 7.583 13.7244 7.57528 13.6821 7.57906C12.564 7.58235 11.4461 7.58235 10.3285 7.57906C10.2762 7.57545 10.2239 7.58577 10.1769 7.60896C10.1299 7.63215 10.0899 7.66738 10.0609 7.71106C10.0504 7.72588 10.0377 7.74 10.0285 7.75553L9.70236 8.30541C9.55523 8.58164 9.36856 8.8349 9.14824 9.05718C9.05082 9.15173 8.93571 9.22615 8.8095 9.27617C8.68329 9.3262 8.54846 9.35085 8.41271 9.34871C7.84801 9.34447 7.2833 9.34871 6.7186 9.34871C6.64314 9.34952 6.56795 9.3578 6.49413 9.37341C6.30462 9.41694 6.13493 9.52213 6.01165 9.67249C5.88837 9.82285 5.81849 10.0099 5.81295 10.2042V15.5026C5.80688 15.738 5.89445 15.9661 6.05644 16.137C6.21843 16.3078 6.4416 16.4074 6.67695 16.4139H6.71295C8.4753 16.4139 10.2379 16.4139 12.0007 16.4139H17.2659C17.3644 16.4146 17.4626 16.4013 17.5574 16.3744C17.74 16.3155 17.8989 16.1995 18.0107 16.0436C18.1225 15.8877 18.1814 15.7001 18.1786 15.5082C18.1748 13.7558 18.1748 12.0035 18.1786 10.2515C18.179 10.1331 18.156 10.0157 18.111 9.90609C18.066 9.7965 17.9999 9.69684 17.9164 9.61281C17.8329 9.52878 17.7336 9.46202 17.6243 9.41634C17.515 9.37066 17.3978 9.34696 17.2793 9.34659M12 15.0861C11.3085 15.0701 10.6508 14.7843 10.1674 14.2896C9.68401 13.7949 9.41338 13.1307 9.41338 12.4391C9.41338 11.7474 9.68401 11.0832 10.1674 10.5885C10.6508 10.0939 11.3085 9.80797 12 9.792H12.0035C12.695 9.80878 13.3524 10.0955 13.8352 10.5907C14.3181 11.086 14.5879 11.7505 14.5871 12.4422C14.5862 13.1338 14.3148 13.7977 13.8308 14.2918C13.3468 14.7859 12.6887 15.071 11.9972 15.0861" fill="#313131"/>
<path d="M12 0C9.62663 0 7.30655 0.703788 5.33316 2.02236C3.35977 3.34094 1.8217 5.21509 0.913451 7.4078C0.00519943 9.60051 -0.232441 12.0133 0.230582 14.3411C0.693605 16.6689 1.83649 18.8071 3.51472 20.4853C5.19295 22.1635 7.33115 23.3064 9.65892 23.7694C11.9867 24.2324 14.3995 23.9948 16.5922 23.0866C18.7849 22.1783 20.6591 20.6402 21.9776 18.6668C23.2962 16.6935 24 14.3734 24 12C24 8.8174 22.7357 5.76516 20.4853 3.51472C18.2348 1.26428 15.1826 0 12 0ZM19.0638 15.5456C19.0608 15.9076 18.9465 16.2599 18.7365 16.5547C18.5266 16.8496 18.231 17.0727 17.8899 17.1939C17.6857 17.265 17.4708 17.3006 17.2546 17.2991L12 17.2941C10.2452 17.2941 8.49036 17.2984 6.73553 17.2941C6.39852 17.3042 6.06592 17.2155 5.77862 17.0391C5.49131 16.8626 5.26182 16.6061 5.11836 16.3009C5.03567 16.144 4.98278 15.9731 4.96236 15.7969C4.94896 15.688 4.94118 15.5784 4.93906 15.4687V10.2318C4.9393 9.85219 5.06245 9.4829 5.2901 9.17916C5.51774 8.87542 5.83763 8.65357 6.20189 8.54682C6.36858 8.49994 6.54053 8.47432 6.71365 8.47059C7.27836 8.46141 7.84306 8.46565 8.40777 8.47059C8.44099 8.47406 8.47453 8.46871 8.50502 8.45508C8.53551 8.44144 8.56186 8.42001 8.58142 8.39294C8.70142 8.21153 8.82212 8.03012 8.93436 7.84306C9.09124 7.54356 9.28731 7.2663 9.51742 7.01859C9.61899 6.91518 9.74066 6.83366 9.87492 6.77903C10.0092 6.7244 10.1532 6.69783 10.2981 6.70094C11.4134 6.70588 12.5287 6.71153 13.644 6.70094C13.8326 6.69549 14.0198 6.73541 14.1898 6.81734C14.3598 6.89927 14.5077 7.02082 14.6209 7.17176C14.8194 7.43058 14.9949 7.70621 15.1454 7.99553C15.2231 8.13671 15.3184 8.26023 15.4087 8.39012C15.4298 8.41866 15.4579 8.44131 15.4903 8.4559C15.5227 8.47048 15.5583 8.47651 15.5937 8.47341H17.2701C17.631 8.468 17.9849 8.57337 18.284 8.77532C18.5832 8.97727 18.8132 9.26608 18.9431 9.60282C19.0225 9.79908 19.0634 10.0088 19.0638 10.2205V15.5456Z" fill="#313131"/>
</svg>
