<svg width="46" height="54" viewBox="0 0 46 54" fill="none" xmlns="http://www.w3.org/2000/svg">
<circle opacity="0.4" cx="22.5" cy="22.5" r="22.5" transform="matrix(-1 0 0 1 45.5 0)" fill="#7949FF"/>
<mask id="path-2-inside-1_13506_193587" fill="white">
<path fill-rule="evenodd" clip-rule="evenodd" d="M19.5365 42.455C10.0028 40.8119 2.75 32.5029 2.75 22.5C2.75 11.3162 11.8162 2.25 23 2.25C34.1838 2.25 43.25 11.3162 43.25 22.5C43.25 32.5029 35.9972 40.8119 26.4635 42.455L23 54L19.5365 42.455Z"/>
</mask>
<path fill-rule="evenodd" clip-rule="evenodd" d="M19.5365 42.455C10.0028 40.8119 2.75 32.5029 2.75 22.5C2.75 11.3162 11.8162 2.25 23 2.25C34.1838 2.25 43.25 11.3162 43.25 22.5C43.25 32.5029 35.9972 40.8119 26.4635 42.455L23 54L19.5365 42.455Z" fill="white"/>
<path d="M19.5365 42.455L20.9732 42.0239L20.7064 41.1345L19.7913 40.9768L19.5365 42.455ZM26.4635 42.455L26.2087 40.9768L25.2936 41.1345L25.0268 42.0239L26.4635 42.455ZM23 54L21.5633 54.431L23 59.2202L24.4367 54.431L23 54ZM1.25 22.5C1.25 33.2454 9.04075 42.1682 19.2817 43.9332L19.7913 40.9768C10.9648 39.4556 4.25 31.7604 4.25 22.5H1.25ZM23 0.75C10.9878 0.75 1.25 10.4878 1.25 22.5H4.25C4.25 12.1447 12.6447 3.75 23 3.75V0.75ZM44.75 22.5C44.75 10.4878 35.0122 0.75 23 0.75V3.75C33.3553 3.75 41.75 12.1447 41.75 22.5H44.75ZM26.7183 43.9332C36.9592 42.1682 44.75 33.2454 44.75 22.5H41.75C41.75 31.7604 35.0352 39.4556 26.2087 40.9768L26.7183 43.9332ZM25.0268 42.0239L21.5633 53.569L24.4367 54.431L27.9002 42.886L25.0268 42.0239ZM24.4367 53.569L20.9732 42.0239L18.0998 42.886L21.5633 54.431L24.4367 53.569Z" fill="#7949FF" mask="url(#path-2-inside-1_13506_193587)"/>
<path d="M23.0001 11.25C19.7972 11.25 17.203 13.8474 17.203 17.0471C17.203 20.25 19.7972 22.8441 23.0001 22.8441C26.203 22.8441 28.7972 20.2467 28.7972 17.0471C28.7972 13.8441 26.203 11.25 23.0001 11.25Z" fill="#7949FF"/>
<path d="M11.75 33.1114C11.75 33.4655 12.0346 33.75 12.3886 33.75H33.6114C33.9654 33.75 34.25 33.4655 34.25 33.1114V31.0235C34.2235 27.632 29.1974 24.8857 23 24.8857C16.8026 24.8857 11.7765 27.632 11.75 31.0235V33.1114Z" fill="#7949FF"/>
</svg>
