<svg width="24" height="24" viewBox="0 0 24 24" fill="none" xmlns="http://www.w3.org/2000/svg">
<path d="M13.0707 2.29289C13.2582 2.10536 13.5126 2 13.7778 2H19.1111C19.6634 2 20.1111 2.44772 20.1111 3C20.1111 3.55228 19.6634 4 19.1111 4H16.7509C17.2095 4.42214 17.7446 4.93824 18.3683 5.56973C21.8772 9.12248 21.8772 14.8775 18.3683 18.4303C17.1249 19.6892 15.604 20.5051 14.0017 20.8732C13.4634 20.9968 12.9268 20.6607 12.8032 20.1225C12.6795 19.5842 13.0156 19.0476 13.5539 18.9239C14.7947 18.6389 15.975 18.0074 16.9454 17.0249C19.6849 14.2511 19.6849 9.74889 16.9454 6.97514C16.0137 6.03177 15.3063 5.37479 14.7778 4.91895L14.7778 8.4C14.7778 8.95228 14.3301 9.4 13.7778 9.4C13.2255 9.4 12.7778 8.95228 12.7778 8.4L12.7778 3C12.7778 2.73478 12.8831 2.48043 13.0707 2.29289ZM11.1968 3.87737C11.3205 4.41564 10.9844 4.95223 10.4461 5.07588C9.20526 5.36094 8.02504 5.99242 7.05463 6.97496C4.31512 9.74871 4.31512 14.2509 7.05463 17.0247C7.98635 17.968 8.69373 18.625 9.22222 19.0809L9.22222 15.6C9.22222 15.0477 9.66994 14.6 10.2222 14.6C10.7745 14.6 11.2222 15.0477 11.2222 15.6L11.2222 20.9998C11.2222 21.5521 10.7745 21.9998 10.2223 21.9998L4.88892 22C4.33664 22 3.88891 21.5523 3.88889 21C3.88887 20.4477 4.33657 20 4.88886 20L7.24917 19.9999C6.79054 19.5778 6.25541 19.0616 5.63166 18.4301C2.12278 14.8773 2.12278 9.1223 5.63166 5.56956C6.87508 4.3106 8.39602 3.49475 9.99833 3.12666C10.5366 3.003 11.0732 3.33911 11.1968 3.87737Z" fill="#313131"/>
</svg>
