<svg width="24" height="24" viewBox="0 0 24 24" fill="none" xmlns="http://www.w3.org/2000/svg">
<path d="M19.68 4.31999H18.72V2.39999H16.8V4.31999H7.19999V2.39999H5.27999V4.31999H4.31999C3.81121 4.3214 3.32367 4.52414 2.9639 4.8839C2.60414 5.24367 2.4014 5.73121 2.39999 6.23999V19.68C2.4014 20.1888 2.60414 20.6763 2.9639 21.0361C3.32367 21.3959 3.81121 21.5986 4.31999 21.6H19.68C20.1888 21.5986 20.6763 21.3959 21.0361 21.0361C21.3959 20.6763 21.5986 20.1888 21.6 19.68V6.23999C21.5986 5.73121 21.3959 5.24367 21.0361 4.8839C20.6763 4.52414 20.1888 4.3214 19.68 4.31999ZM19.68 19.68H4.31999V9.11999H19.68V19.68Z" fill="#191F28"/>
</svg>
