<svg width="24" height="24" viewBox="0 0 24 24" fill="none" xmlns="http://www.w3.org/2000/svg">
<path d="M5.33958 12.292C5.14631 12.1054 4.88819 12.0012 4.61958 12.0012C4.35098 12.0012 4.09286 12.1054 3.89958 12.292C3.80483 12.3838 3.7295 12.4938 3.67805 12.6153C3.62661 12.7368 3.6001 12.8674 3.6001 12.9994C3.6001 13.1313 3.62661 13.2619 3.67805 13.3835C3.7295 13.505 3.80483 13.6149 3.89958 13.7068L8.99598 18.706C9.18926 18.8925 9.44738 18.9967 9.71598 18.9967C9.98459 18.9967 10.2427 18.8925 10.436 18.706L21.6704 7.70557C21.7651 7.61373 21.8405 7.50378 21.8919 7.38227C21.9434 7.26075 21.9699 7.13013 21.9699 6.99817C21.9699 6.86621 21.9434 6.7356 21.8919 6.61408C21.8405 6.49256 21.7651 6.38262 21.6704 6.29077C21.4771 6.10424 21.219 6 20.9504 6C20.6818 6 20.4237 6.10424 20.2304 6.29077L9.72438 16.5844L5.33958 12.292Z" fill="#313131"/>
</svg>
