<svg width="24" height="24" viewBox="0 0 24 24" fill="none" xmlns="http://www.w3.org/2000/svg">
<path d="M21.5 12.002C21.4942 17.2432 17.2699 21.4564 12.0841 21.4997C6.76561 21.5438 2.49395 17.2386 2.50001 11.9908C2.50635 6.75997 6.73908 2.51764 11.9658 2.50005C17.2292 2.48246 21.4991 6.74151 21.5 12.002ZM10.8521 13.5713C10.5318 13.2229 10.2215 12.8853 9.91089 12.5479C9.58705 12.1964 9.26868 11.8394 8.93734 11.4951C8.606 11.1508 8.02003 11.2462 7.80231 11.6742C7.65466 11.9648 7.7158 12.2737 7.9612 12.5392C8.36666 12.9755 8.76865 13.4156 9.17237 13.8539C9.55158 14.2656 9.92761 14.6803 10.3112 15.088C10.3761 15.1585 10.4549 15.215 10.5425 15.254C10.6301 15.293 10.7247 15.3137 10.8206 15.3148C10.9165 15.3159 11.0116 15.2974 11.1001 15.2605C11.1886 15.2235 11.2686 15.1688 11.3352 15.0999C13.1517 13.2838 14.9685 11.4671 16.7854 9.64989C16.8952 9.53879 16.9654 9.39469 16.9852 9.23977C17.005 9.08486 16.9733 8.92773 16.895 8.7926C16.8397 8.69716 16.7631 8.61583 16.6711 8.55499C16.5791 8.49416 16.4743 8.45547 16.3649 8.44198C16.2554 8.42848 16.1443 8.44054 16.0403 8.47721C15.9363 8.51388 15.8422 8.57416 15.7654 8.65332C14.2838 10.1345 12.8022 11.6161 11.3207 13.0981C11.165 13.2526 11.0122 13.4089 10.8521 13.5713Z" fill="#313131"/>
</svg>
