<svg width="24" height="24" viewBox="0 0 24 24" fill="none" xmlns="http://www.w3.org/2000/svg">
<path fill-rule="evenodd" clip-rule="evenodd" d="M15.8013 3.02441L15.8013 3.0244L15.73 3L15.16 2.8C13.59 2.26 12.81 2 12 2C11.2091 2 10.4468 2.25741 8.94982 2.76292L8.94981 2.76292L8.84 2.8L8.27 3L8.1987 3.0244C5.23629 4.03809 3.75699 4.54428 3.38 5.08C3 5.62 3 7.22 3 10.41V11.98C3 17.62 7.24 20.35 9.9 21.52C10.62 21.84 10.98 21.99 12 21.99C13.0086 21.99 13.3719 21.8336 14.076 21.5304L14.1 21.52C16.76 20.36 21 17.62 21 11.98V10.41C21 7.21 21 5.61 20.62 5.08C20.243 4.54428 18.7637 4.03809 15.8013 3.02441ZM6.79597 10.3967C7.00568 10.3967 7.20721 10.4801 7.35811 10.6294L10.7816 14.0644L16.6419 8.22762C16.7928 8.07834 16.9943 7.99492 17.204 7.99492C17.4137 7.99492 17.6153 8.07834 17.7662 8.22762C17.8402 8.30112 17.899 8.3891 17.9391 8.48635C17.9793 8.58359 18 8.68812 18 8.79372C18 8.89932 17.9793 9.00385 17.9391 9.1011C17.899 9.19834 17.8402 9.28632 17.7662 9.35983L11.3371 15.7622C11.1862 15.9115 10.9847 15.9949 10.775 15.9949C10.5653 15.9949 10.3638 15.9115 10.2129 15.7622L6.23382 11.7616C6.15985 11.6881 6.10103 11.6001 6.06086 11.5028C6.0207 11.4056 6 11.3011 6 11.1955C6 11.0899 6.0207 10.9853 6.06086 10.8881C6.10103 10.7908 6.15985 10.7029 6.23382 10.6294C6.38472 10.4801 6.58625 10.3967 6.79597 10.3967Z" fill="#313131"/>
</svg>
