<svg width="24" height="24" viewBox="0 0 24 24" fill="none" xmlns="http://www.w3.org/2000/svg">
<g clip-path="url(#clip0_14010_98801)">
<path fill-rule="evenodd" clip-rule="evenodd" d="M9 2.00018C8.46957 2.00018 7.96086 2.2109 7.58579 2.58597C7.21071 2.96104 7 3.46975 7 4.00018V6.00018H9V4.00018H20V15.0002H18V17.0002H20C20.5304 17.0002 21.0391 16.7895 21.4142 16.4144C21.7893 16.0393 22 15.5306 22 15.0002V4.00018C22 3.46975 21.7893 2.96104 21.4142 2.58597C21.0391 2.2109 20.5304 2.00018 20 2.00018H9ZM4 7.00018C3.46957 7.00018 2.96086 7.2109 2.58579 7.58597C2.21071 7.96104 2 8.46975 2 9.00018V20.0002C2 20.5306 2.21071 21.0393 2.58579 21.4144C2.96086 21.7895 3.46957 22.0002 4 22.0002H15C15.5304 22.0002 16.0391 21.7895 16.4142 21.4144C16.7893 21.0393 17 20.5306 17 20.0002V9.00018C17 8.46975 16.7893 7.96104 16.4142 7.58597C16.0391 7.2109 15.5304 7.00018 15 7.00018H4ZM4 9.00018H15V20.0002H4V9.00018Z" fill="#191F28"/>
</g>
<defs>
<clipPath id="clip0_14010_98801">
<rect width="24" height="24" fill="white"/>
</clipPath>
</defs>
</svg>
