<svg width="24" height="24" viewBox="0 0 24 24" fill="none" xmlns="http://www.w3.org/2000/svg">
<path d="M10.0001 6C7.72242 6 5.87772 7.84706 5.87772 10.1224C5.87772 12.4 7.72242 14.2447 10.0001 14.2447C12.2777 14.2447 14.1224 12.3976 14.1224 10.1224C14.1224 7.84471 12.2777 6 10.0001 6Z" fill="#191F28"/>
<path d="M2 21.5459C2 21.7977 2.20235 22 2.45412 22H17.5459C17.7976 22 18 21.7977 18 21.5459V20.0612C17.9812 17.6494 14.4071 15.6965 10 15.6965C5.59294 15.6965 2.01882 17.6494 2 20.0612V21.5459Z" fill="#191F28"/>
<path d="M17.6444 2.85556C17.6444 2.38305 18.0275 2 18.5 2C18.9725 2 19.3556 2.38304 19.3556 2.85555V4.64444H21.1444C21.617 4.64444 22 5.02749 22 5.5C22 5.97251 21.617 6.35556 21.1444 6.35556H19.3556V8.14444C19.3556 8.61695 18.9725 9 18.5 9C18.0275 9 17.6444 8.61696 17.6444 8.14445V6.35556H15.8556C15.383 6.35556 15 5.97251 15 5.5C15 5.02749 15.383 4.64444 15.8556 4.64444H17.6444V2.85556Z" fill="#191F28"/>
</svg>
