<svg width="24" height="24" viewBox="0 0 24 24" fill="none" xmlns="http://www.w3.org/2000/svg">
<path d="M17 4.99512H7V6.99512H17V4.99512Z" fill="#313131"/>
<path d="M9 8.99512H7V10.9951H9V8.99512Z" fill="#313131"/>
<path d="M9 12.9951H7V14.9951H9V12.9951Z" fill="#313131"/>
<path d="M9 16.9951H7V18.9951H9V16.9951Z" fill="#313131"/>
<path d="M13 8.99512H11V10.9951H13V8.99512Z" fill="#313131"/>
<path d="M13 12.9951H11V14.9951H13V12.9951Z" fill="#313131"/>
<path d="M13 16.9951H11V18.9951H13V16.9951Z" fill="#313131"/>
<path d="M17 8.99512H15V10.9951H17V8.99512Z" fill="#313131"/>
<path d="M17 12.9951H15V18.9951H17V12.9951Z" fill="#313131"/>
<path fill-rule="evenodd" clip-rule="evenodd" d="M20.41 1.58512C20.03 1.20512 19.53 0.995117 19 0.995117H5C4.47 0.995117 3.96 1.20512 3.59 1.58512C3.21 1.96512 3 2.46512 3 2.99512V20.9951C3 21.5251 3.21 22.0351 3.59 22.4051C3.97 22.7851 4.47 22.9951 5 22.9951H19C19.53 22.9951 20.04 22.7851 20.41 22.4051C20.79 22.0251 21 21.5251 21 20.9951V2.99512C21 2.46512 20.79 1.95512 20.41 1.58512ZM19 20.9951H5V2.99512H19V20.9951Z" fill="#313131"/>
</svg>
