<svg width="24" height="24" viewBox="0 0 24 24" fill="none" xmlns="http://www.w3.org/2000/svg">
<path d="M3.80095 13.3406C1.49544 10.2444 0.249884 6.47169 2.07915 3.20692C2.13776 3.09948 2.19637 2.99448 2.25499 2.88704C3.20015 1.11913 4.40907 1.01901 6.30183 1.34866C6.67794 1.41459 6.9295 1.68808 7.07115 2.06169C7.63532 3.53901 8.20681 5.01634 8.78807 6.48878C9.02008 7.07971 8.86378 7.56808 8.44126 7.98564C8.15308 8.2689 7.82093 8.5082 7.52053 8.78169C6.87088 9.37018 6.74389 9.95134 7.08336 10.7523C7.42772 11.563 7.93571 12.2736 8.49744 12.9451C9.72834 14.4199 11.1107 15.7288 12.8032 16.6738C13.9803 17.3331 14.5738 17.2208 15.4652 16.2049C15.6655 15.9754 15.8609 15.741 16.0782 15.5286C16.4959 15.1134 16.9965 15.0206 17.5387 15.2282C19.0187 15.7947 20.489 16.3832 21.969 16.9448C22.5014 17.1475 22.7408 17.5553 22.7676 18.0656C22.8849 20.3122 22.7823 20.8274 20.787 21.9091C18.2592 23.2815 15.751 22.9372 13.2989 21.7651C9.66484 20.0289 6.81471 17.3453 4.38709 14.1806L3.80583 13.3382L3.80095 13.3406Z" fill="#313131"/>
</svg>
