<svg width="24" height="24" viewBox="0 0 24 24" fill="none" xmlns="http://www.w3.org/2000/svg">
<path fill-rule="evenodd" clip-rule="evenodd" d="M16.0086 14.6767C16.097 14.7656 16.1671 14.871 16.2147 14.9869C16.2624 15.1028 16.2867 15.227 16.2864 15.3523C16.286 15.4777 16.261 15.6017 16.2128 15.7174C16.1645 15.833 16.0939 15.9381 16.005 16.0264C15.9162 16.1148 15.8108 16.1848 15.6949 16.2325C15.5789 16.2802 15.4548 16.3045 15.3294 16.3042C15.2041 16.3038 15.0801 16.2788 14.9644 16.2306C14.8487 16.1823 14.7437 16.1117 14.6553 16.0228L11.9964 13.3497L9.32325 16.0086C9.23457 16.0973 9.12923 16.1676 9.01328 16.2155C8.89734 16.2634 8.77308 16.2878 8.64764 16.2875C8.52221 16.2871 8.39808 16.262 8.28239 16.2135C8.1667 16.1651 8.06173 16.0942 7.97353 16.005C7.88504 15.9162 7.81494 15.8108 7.76722 15.6949C7.71951 15.579 7.69512 15.4548 7.69546 15.3294C7.69579 15.204 7.72084 15.08 7.76917 14.9643C7.81751 14.8486 7.88817 14.7436 7.97713 14.6553L10.6503 11.9964L7.99135 9.32322C7.90297 9.23436 7.83295 9.12896 7.78529 9.01304C7.73764 8.89712 7.71328 8.77295 7.71362 8.64761C7.71395 8.52228 7.73897 8.39824 7.78724 8.28258C7.83551 8.16691 7.9061 8.06189 7.99496 7.9735C8.08382 7.88511 8.18922 7.81509 8.30514 7.76744C8.42106 7.71978 8.54523 7.69543 8.67056 7.69576C8.7959 7.6961 8.91994 7.72111 9.0356 7.76939C9.15127 7.81766 9.25629 7.88824 9.34468 7.9771L12.0036 10.6502L14.6768 7.99132C14.7656 7.90294 14.871 7.83292 14.9869 7.78526C15.1029 7.73761 15.227 7.71325 15.3524 7.71359C15.4777 7.71392 15.6017 7.73894 15.7174 7.78721C15.8331 7.83548 15.9381 7.90606 16.0265 7.99493C16.1149 8.08379 16.1849 8.18919 16.2325 8.30511C16.2802 8.42103 16.3045 8.5452 16.3042 8.67053C16.3039 8.79587 16.2789 8.91991 16.2306 9.03557C16.1823 9.15124 16.1117 9.25626 16.0229 9.34465L13.3497 12.0036L16.0086 14.6767ZM12.028 1.50001C6.22917 1.48454 1.51551 6.17311 1.50004 11.972C1.48457 17.7708 6.17315 22.4845 11.972 22.4999C17.7708 22.5154 22.4845 17.8268 22.5 12.028C22.5154 6.22914 17.8269 1.51548 12.028 1.50001Z" fill="#191F28"/>
</svg>
