<svg width="24" height="24" viewBox="0 0 24 24" fill="none" xmlns="http://www.w3.org/2000/svg">
<path d="M6.78312 14.58C6.44112 14.58 6.15912 14.466 5.92512 14.232C5.69112 13.998 5.58312 13.716 5.58312 13.38C5.58312 13.044 5.69712 12.756 5.92512 12.528C6.15312 12.3 6.44112 12.18 6.78312 12.18C7.12512 12.18 7.40712 12.294 7.64112 12.528C7.86912 12.756 7.98912 13.044 7.98912 13.38C7.98912 13.716 7.87512 14.004 7.64112 14.232C7.41312 14.46 7.12512 14.574 6.78312 14.58ZM12.0931 14.58C11.7511 14.58 11.4691 14.466 11.2411 14.232C11.0131 13.998 10.8931 13.716 10.8931 13.38C10.8931 13.044 11.0071 12.756 11.2411 12.528C11.4751 12.3 11.7571 12.18 12.0931 12.18C12.4351 12.18 12.7171 12.294 12.9451 12.528C13.1731 12.762 13.2931 13.044 13.2931 13.38C13.2931 13.716 13.1791 14.004 12.9451 14.232C12.7171 14.46 12.4291 14.574 12.0931 14.58ZM17.1931 14.58C16.8511 14.58 16.5691 14.466 16.3411 14.232C16.1131 13.998 15.9931 13.716 15.9931 13.38C15.9931 13.044 16.1071 12.756 16.3411 12.528C16.5751 12.3 16.8571 12.18 17.1931 12.18C17.5351 12.18 17.8171 12.294 18.0451 12.528C18.2731 12.756 18.3931 13.044 18.3931 13.38C18.3931 13.716 18.2791 14.004 18.0451 14.232C17.8171 14.46 17.5291 14.574 17.1931 14.58ZM3.00312 24C2.52312 24 2.10312 23.82 1.74312 23.46C1.38312 23.1 1.20312 22.68 1.20312 22.2V3.6C1.20312 3.12 1.38312 2.7 1.74312 2.34C2.10312 1.98 2.52312 1.8 3.00312 1.8H4.95312V0.972C4.95312 0.432 5.39112 0 5.92512 0C6.46512 0 6.89712 0.438 6.89712 0.972V1.8H17.1031V0.972C17.1031 0.432 17.5411 0 18.0751 0C18.6151 0 19.0471 0.438 19.0471 0.972V1.8H20.9971C21.4771 1.8 21.8971 1.98 22.2571 2.34C22.6171 2.7 22.7971 3.12 22.7971 3.6V22.2C22.7971 22.68 22.6171 23.1 22.2571 23.46C21.8971 23.82 21.4771 24 20.9971 24H3.00312ZM3.00312 22.2H21.0031V9.3H3.00312V22.2Z" fill="#313131"/>
</svg>
