<svg width="24" height="24" viewBox="0 0 24 24" fill="none" xmlns="http://www.w3.org/2000/svg">
<path fill-rule="evenodd" clip-rule="evenodd" d="M10.0453 19.911L2.58866 12.4822C2.33206 12.211 2.33206 11.789 2.58866 11.5329L10.0453 4.08904C10.483 3.63699 11.2075 3.63699 11.6604 4.08904C12.1132 4.52603 12.1132 5.24932 11.6604 5.70137L5.35093 12L11.6604 18.2986C12.1132 18.7356 12.1132 19.4589 11.6604 19.911C11.2226 20.363 10.4981 20.363 10.0453 19.911ZM19.6491 19.911L12.1925 12.4822C11.9359 12.211 11.9359 11.789 12.1925 11.5329L19.6491 4.08904C20.0869 3.63699 20.8114 3.63699 21.2642 4.08904C21.7171 4.52603 21.7171 5.24932 21.2642 5.70137L14.9548 12L21.2642 18.2986C21.7171 18.7356 21.7171 19.4589 21.2642 19.911C20.8265 20.363 20.102 20.363 19.6491 19.911Z" fill="#191F28"/>
</svg>
