<svg width="24" height="24" viewBox="0 0 24 24" fill="none" xmlns="http://www.w3.org/2000/svg">
<path fill-rule="evenodd" clip-rule="evenodd" d="M15.6333 14.4121C15.7135 14.4923 15.7771 14.5875 15.8205 14.6923C15.8639 14.797 15.8862 14.9093 15.8862 15.0227C15.8862 15.1361 15.8639 15.2484 15.8205 15.3532C15.7771 15.4579 15.7135 15.5531 15.6333 15.6333C15.5531 15.7135 15.4579 15.7771 15.3532 15.8205C15.2484 15.8639 15.1361 15.8862 15.0227 15.8862C14.9093 15.8862 14.797 15.8639 14.6923 15.8205C14.5875 15.7771 14.4923 15.7135 14.4121 15.6333L12 13.2212L9.58786 15.6333C9.50784 15.7138 9.41271 15.7777 9.30792 15.8212C9.20313 15.8648 9.09076 15.8873 8.97727 15.8873C8.86378 15.8873 8.75142 15.8648 8.64663 15.8212C8.54184 15.7777 8.4467 15.7138 8.36668 15.6333C8.28641 15.5532 8.22273 15.458 8.17928 15.3532C8.13583 15.2485 8.11346 15.1362 8.11346 15.0227C8.11346 14.9093 8.13583 14.797 8.17928 14.6922C8.22273 14.5874 8.28641 14.4923 8.36668 14.4121L10.7788 12L8.36668 9.58786C8.2865 9.50768 8.22289 9.41249 8.1795 9.30772C8.1361 9.20296 8.11377 9.09067 8.11377 8.97727C8.11377 8.86388 8.1361 8.75159 8.1795 8.64682C8.22289 8.54206 8.2865 8.44687 8.36668 8.36668C8.44687 8.2865 8.54206 8.22289 8.64682 8.1795C8.75159 8.1361 8.86388 8.11377 8.97727 8.11377C9.09067 8.11377 9.20296 8.1361 9.30772 8.1795C9.41249 8.22289 9.50768 8.2865 9.58786 8.36668L12 10.7788L14.4121 8.36668C14.4923 8.2865 14.5875 8.22289 14.6923 8.1795C14.797 8.1361 14.9093 8.11377 15.0227 8.11377C15.1361 8.11377 15.2484 8.1361 15.3532 8.1795C15.4579 8.22289 15.5531 8.2865 15.6333 8.36668C15.7135 8.44687 15.7771 8.54206 15.8205 8.64682C15.8639 8.75159 15.8862 8.86388 15.8862 8.97727C15.8862 9.09067 15.8639 9.20296 15.8205 9.30772C15.7771 9.41249 15.7135 9.50768 15.6333 9.58786L13.2212 12L15.6333 14.4121ZM12 2.5C6.75341 2.5 2.5 6.75341 2.5 12C2.5 17.2466 6.75341 21.5 12 21.5C17.2466 21.5 21.5 17.2466 21.5 12C21.5 6.75341 17.2466 2.5 12 2.5Z" fill="#313131"/>
</svg>
