<svg width="24" height="24" viewBox="0 0 24 24" fill="none" xmlns="http://www.w3.org/2000/svg">
<path fill-rule="evenodd" clip-rule="evenodd" d="M12.5213 11.107C12.4892 11.1437 12.4445 11.1655 12.3975 11.1666H1.66275C1.6192 11.1666 1.57908 11.1494 1.54814 11.1185C1.51719 11.0875 1.5 11.0474 1.5 11.0038L1.5 2.66454C1.49998 2.64331 1.50414 2.62228 1.51226 2.60267C1.52037 2.58305 1.53227 2.56523 1.54728 2.55021C1.5623 2.5352 1.58012 2.5233 1.59974 2.51519C1.61935 2.50707 1.64038 2.50291 1.66161 2.50293H12.3964C12.4399 2.50293 12.48 2.52012 12.5167 2.5568L12.5213 2.56138L15.7649 6.48347C15.9322 6.68749 15.9333 6.98204 15.7649 7.18491L12.5213 11.107ZM10.6049 6.07774C10.2003 6.48233 10.2003 7.14021 10.6049 7.5448C11.0095 7.94939 11.6674 7.94939 12.072 7.5448C12.4766 7.14021 12.4766 6.48233 12.072 6.07774C11.6674 5.67315 11.0095 5.67315 10.6049 6.07774Z" fill="#313131"/>
<path fill-rule="evenodd" clip-rule="evenodd" d="M13.283 11.755L13.2739 11.7655C13.2132 11.8348 13.144 11.8974 13.0676 11.9515H15.6818L17.4636 14.2243H12.5V12.1618C12.4742 12.1641 12.4482 12.1657 12.4219 12.1663L12.4097 12.1666H11.1364V14.2243H5.68182L7.32794 12.1666H5.72986L2.5 16.0424V18.7697H4.31818C4.31818 19.493 4.60552 20.1867 5.11698 20.6982C5.62844 21.2096 6.32214 21.497 7.04545 21.497C7.76877 21.497 8.46247 21.2096 8.97393 20.6982C9.48539 20.1867 9.77273 19.493 9.77273 18.7697H15.2273C15.2273 19.493 15.5146 20.1867 16.0261 20.6982C16.5375 21.2096 17.2312 21.497 17.9545 21.497C18.6779 21.497 19.3716 21.2096 19.883 20.6982C20.3945 20.1867 20.6818 19.493 20.6818 18.7697H22.5V16.0424C22.5 15.0333 21.6909 14.2243 20.6818 14.2243H18.8636L16.1364 10.5879H14.2482L13.283 11.755ZM7.04545 17.4061C7.40711 17.4061 7.75396 17.5497 8.00969 17.8055C8.26542 18.0612 8.40909 18.4081 8.40909 18.7697C8.40909 19.1314 8.26542 19.4782 8.00969 19.7339C7.75396 19.9897 7.40711 20.1333 7.04545 20.1333C6.6838 20.1333 6.33695 19.9897 6.08122 19.7339C5.82549 19.4782 5.68182 19.1314 5.68182 18.7697C5.68182 18.4081 5.82549 18.0612 6.08122 17.8055C6.33695 17.5497 6.6838 17.4061 7.04545 17.4061ZM17.9545 17.4061C18.3162 17.4061 18.663 17.5497 18.9188 17.8055C19.1745 18.0612 19.3182 18.4081 19.3182 18.7697C19.3182 19.1314 19.1745 19.4782 18.9188 19.7339C18.663 19.9897 18.3162 20.1333 17.9545 20.1333C17.5929 20.1333 17.246 19.9897 16.9903 19.7339C16.7346 19.4782 16.5909 19.1314 16.5909 18.7697C16.5909 18.4081 16.7346 18.0612 16.9903 17.8055C17.246 17.5497 17.5929 17.4061 17.9545 17.4061Z" fill="#313131"/>
</svg>
