<svg width="24" height="24" viewBox="0 0 24 24" fill="none" xmlns="http://www.w3.org/2000/svg">
<path d="M12 2.5C6.775 2.5 2.5 6.775 2.5 12C2.5 17.225 6.775 21.5 12 21.5C17.225 21.5 21.5 17.225 21.5 12C21.5 6.775 17.225 2.5 12 2.5ZM15.3725 15.61L11.4965 13.2255C11.2115 13.0545 11.0405 12.7505 11.0405 12.418V7.9625C11.05 7.573 11.373 7.25 11.7625 7.25C12.152 7.25 12.475 7.573 12.475 7.9625V12.19L16.123 14.3845C16.465 14.5935 16.579 15.04 16.37 15.382C16.161 15.7145 15.7145 15.819 15.3725 15.61Z" fill="#313131"/>
</svg>
