<svg width="24" height="24" viewBox="0 0 24 24" fill="none" xmlns="http://www.w3.org/2000/svg">
<path d="M20.7947 8.83334H20.8967L20.8997 8.83634C21.9347 8.83634 22.7747 9.67634 22.7747 10.7113V13.7623C22.7747 14.7763 21.9707 15.5983 20.9687 15.6343V15.3783C20.9687 18.6933 18.2837 22.3783 14.9687 22.3783H11.9957C11.0027 22.3783 10.1957 21.5713 10.1957 20.5783C10.1957 19.5853 11.0027 18.7783 11.9957 18.7783C12.8867 18.7783 13.6247 19.4263 13.7687 20.2783H14.9687C17.1197 20.2783 18.8687 17.5293 18.8687 15.3783V10.5733C18.8687 6.78434 15.7847 3.70034 11.9957 3.70034C8.20673 3.70034 5.12273 6.78434 5.12273 10.5733V13.7623C5.12273 14.7973 4.28273 15.6373 3.24773 15.6373H3.09473C2.05973 15.6373 1.21973 14.7973 1.21973 13.7623V10.7083C1.21973 9.67334 2.05973 8.83334 3.09473 8.83334H3.19073C4.00073 4.71134 7.63373 1.60034 11.9927 1.60034C16.3517 1.60034 19.9847 4.71134 20.7947 8.83334Z" fill="#313131"/>
<path d="M13.5 8.79602C13.5 7.96802 12.828 7.29602 12 7.29602C11.172 7.29602 10.5 7.96802 10.5 8.79602C10.5 9.62402 11.172 10.293 12 10.293C12.828 10.293 13.497 9.62402 13.5 8.79602Z" fill="#313131"/>
<path d="M11.9998 11.046C11.3368 11.046 10.7998 11.583 10.7998 12.246V15.846C10.7998 16.509 11.3368 17.046 11.9998 17.046C12.6628 17.046 13.1998 16.509 13.1998 15.846V12.246C13.1998 11.583 12.6628 11.046 11.9998 11.046Z" fill="#313131"/>
</svg>
