<svg width="24" height="24" viewBox="0 0 24 24" fill="none" xmlns="http://www.w3.org/2000/svg">
<path fill-rule="evenodd" clip-rule="evenodd" d="M16.7028 11.0681C16.8282 11.0681 16.9523 11.0927 17.0681 11.1407C17.1838 11.1887 17.2891 11.259 17.3777 11.3476C17.4663 11.4362 17.5366 11.5414 17.5846 11.6572C17.6325 11.773 17.6572 11.8971 17.6572 12.0225C17.6572 12.1478 17.6325 12.2719 17.5846 12.3877C17.5366 12.5035 17.4663 12.6087 17.3777 12.6973C17.2891 12.786 17.1838 12.8563 17.0681 12.9042C16.9523 12.9522 16.8282 12.9769 16.7028 12.9769H12.9324V16.7473C12.9328 16.8727 12.9084 16.997 12.8605 17.1129C12.8127 17.2289 12.7424 17.3342 12.6537 17.4229C12.565 17.5116 12.4596 17.5819 12.3437 17.6297C12.2277 17.6776 12.1035 17.702 11.978 17.7017C11.8527 17.7018 11.7285 17.6771 11.6127 17.6292C11.4968 17.5813 11.3916 17.511 11.3029 17.4224C11.2143 17.3337 11.144 17.2285 11.0961 17.1126C11.0481 16.9968 11.0235 16.8726 11.0236 16.7473V12.9769H7.25324C7.1279 12.9769 7.0038 12.9522 6.888 12.9042C6.77221 12.8563 6.667 12.786 6.57837 12.6973C6.48975 12.6087 6.41944 12.5035 6.37148 12.3877C6.32352 12.2719 6.29883 12.1478 6.29883 12.0225C6.29883 11.8971 6.32352 11.773 6.37148 11.6572C6.41944 11.5414 6.48975 11.4362 6.57837 11.3476C6.667 11.259 6.77221 11.1887 6.888 11.1407C7.0038 11.0927 7.1279 11.0681 7.25324 11.0681H11.0236V7.29767C11.0236 7.17234 11.0483 7.04823 11.0963 6.93244C11.1442 6.81664 11.2145 6.71143 11.3032 6.6228C11.3918 6.53418 11.497 6.46388 11.6128 6.41592C11.7286 6.36795 11.8527 6.34326 11.978 6.34326C12.1034 6.34326 12.2275 6.36795 12.3433 6.41591C12.4591 6.46388 12.5643 6.53418 12.6529 6.6228C12.7415 6.71143 12.8118 6.81664 12.8598 6.93244C12.9077 7.04823 12.9324 7.17234 12.9324 7.29767V11.0681L16.7028 11.0681ZM4.55336 4.59779C0.452917 8.69823 0.452917 15.3467 4.55336 19.4471C8.6538 23.5476 15.3023 23.5476 19.4027 19.4471C23.5031 15.3467 23.5031 8.69823 19.4027 4.59779C15.3023 0.497351 8.6538 0.497351 4.55336 4.59779Z" fill="#191F28"/>
</svg>
