<svg width="24" height="24" viewBox="0 0 24 24" fill="none" xmlns="http://www.w3.org/2000/svg">
<path d="M3.22244 2.11108C2.60879 2.11108 2.11133 2.60855 2.11133 3.2222V9.88886C2.11133 10.5025 2.60879 11 3.22244 11H9.88911C10.5028 11 11.0002 10.5025 11.0002 9.88886V3.2222C11.0002 2.60855 10.5028 2.11108 9.88911 2.11108H3.22244ZM14.1114 2.11108C13.4977 2.11108 13.0002 2.60855 13.0002 3.2222V9.88886C13.0002 10.5025 13.4977 11 14.1114 11H20.778C21.3917 11 21.8891 10.5025 21.8891 9.88886V3.2222C21.8891 2.60855 21.3917 2.11108 20.778 2.11108H14.1114ZM2.11133 14.1111V20.7778C2.11133 21.3914 2.60879 21.8889 3.22244 21.8889H9.88911C10.5028 21.8889 11.0002 21.3914 11.0002 20.7778V14.1111C11.0002 13.4974 10.5028 13 9.88911 13H3.22244C2.60879 13 2.11133 13.4974 2.11133 14.1111ZM17.4447 13C14.9901 13 13.0002 14.9898 13.0002 17.4444C13.0002 19.899 14.9901 21.8889 17.4447 21.8889C19.8993 21.8889 21.8891 19.899 21.8891 17.4444C21.8891 14.9898 19.8993 13 17.4447 13Z" fill="#313131"/>
</svg>
