<svg width="24" height="24" viewBox="0 0 24 24" fill="none" xmlns="http://www.w3.org/2000/svg">
<path fill-rule="evenodd" clip-rule="evenodd" d="M9.00049 2C8.47006 2 7.96135 2.21071 7.58627 2.58579C7.2112 2.96086 7.00049 3.46957 7.00049 4V6H9.00049V4H20.0005V15H18.0005V17H20.0005C20.5309 17 21.0396 16.7893 21.4147 16.4142C21.7898 16.0391 22.0005 15.5304 22.0005 15V4C22.0005 3.46957 21.7898 2.96086 21.4147 2.58579C21.0396 2.21071 20.5309 2 20.0005 2H9.00049ZM4.00049 7C3.47006 7 2.96135 7.21071 2.58627 7.58579C2.2112 7.96086 2.00049 8.46957 2.00049 9V20C2.00049 20.5304 2.2112 21.0391 2.58627 21.4142C2.96135 21.7893 3.47006 22 4.00049 22H15.0005C15.5309 22 16.0396 21.7893 16.4147 21.4142C16.7898 21.0391 17.0005 20.5304 17.0005 20V9C17.0005 8.46957 16.7898 7.96086 16.4147 7.58579C16.0396 7.21071 15.5309 7 15.0005 7H4.00049ZM4.00049 9H15.0005V20H4.00049V9Z" fill="#313131"/>
</svg>
