<svg width="24" height="24" viewBox="0 0 24 24" fill="none" xmlns="http://www.w3.org/2000/svg">
<path d="M7.18722 22.0029C6.81119 21.9277 6.43516 21.8777 6.05912 21.765C3.8656 21.1641 2.19852 19.1361 2.02303 16.8702C1.79741 14.091 3.48956 11.6749 6.1594 10.9112C9.33061 10.0099 12.7149 12.1756 13.2163 15.443C13.6801 18.435 11.825 21.1766 8.87937 21.8652C8.61615 21.9277 8.35292 21.9528 8.0897 22.0029H7.18722ZM22.0029 4.00089C21.8776 3.63785 21.6269 3.34992 21.301 3.16213C20.8623 2.92428 20.4236 2.6739 19.9473 2.52368C18.042 1.91026 16.0992 1.8727 14.1438 2.22323C13.3166 2.37345 12.5269 2.61131 11.8124 3.06198C11.5743 3.21221 11.3487 3.39999 11.1606 3.61281C10.8723 3.9383 10.8849 4.28882 11.1606 4.62683C11.286 4.77705 11.4239 4.92728 11.5868 5.02743C12.013 5.26529 12.4517 5.52818 12.9029 5.6784C14.8959 6.3419 16.939 6.37945 18.9947 5.97885C19.7718 5.82863 20.5364 5.57825 21.2133 5.1401C21.5642 4.91476 21.8651 4.65187 22.0029 4.23875V4.00089ZM22.0029 6.02893C21.3386 6.45457 20.6116 6.76754 19.847 6.96784C18.3554 7.36844 16.8387 7.46859 15.3095 7.3434C14.1564 7.25577 13.0283 7.03043 11.9628 6.56724C11.6244 6.41701 11.2985 6.22923 10.9476 6.04145C10.9476 6.39197 10.9476 6.7425 10.9476 7.09302C10.9476 7.36844 11.0228 7.60629 11.2233 7.79407C11.3863 7.95682 11.5743 8.10704 11.7623 8.24475C12.2386 8.55772 12.7525 8.75802 13.2915 8.90824C15.0714 9.39647 16.8763 9.44655 18.6938 9.13358C19.5211 8.99587 20.3233 8.75802 21.0628 8.33238C21.4639 8.09452 21.8274 7.80659 22.0029 7.35592V6.02893ZM22.0029 9.15862C22.0029 9.15862 21.9403 9.17114 21.9152 9.19617C21.1757 9.68441 20.3484 9.98486 19.4835 10.1852C18.0295 10.5232 16.5504 10.5983 15.0589 10.448C13.9057 10.3354 12.7776 10.085 11.7122 9.58426C11.4615 9.45907 11.2108 9.30884 10.935 9.15862C10.935 9.5467 10.935 9.90974 10.935 10.2603C10.935 10.3729 10.9852 10.423 11.0729 10.4856C11.4865 10.7861 11.9378 11.0489 12.2887 11.412C12.6522 11.7876 13.0659 12.0004 13.5547 12.1005C13.5798 12.1005 13.6049 12.1005 13.6299 12.113C14.9711 12.4385 16.3374 12.5011 17.7036 12.3759C18.7565 12.2758 19.7718 12.063 20.737 11.5998C21.2634 11.3494 21.7522 11.0364 21.9904 10.4606V9.13358L22.0029 9.15862ZM22.0029 12.2382C21.6018 12.451 21.2258 12.7014 20.8122 12.8642C18.8443 13.6403 16.8011 13.7405 14.7204 13.5026C14.4071 13.4651 14.1062 13.415 13.7803 13.3649C13.7929 13.415 13.8054 13.4525 13.8179 13.4776C14.0812 14.0409 14.2692 14.6293 14.3695 15.2427C14.3945 15.3679 14.4321 15.393 14.5449 15.418C15.9613 15.6308 17.3652 15.6183 18.769 15.3554C19.6339 15.1927 20.4612 14.9548 21.2133 14.4791C21.5642 14.2537 21.8651 13.9909 22.0029 13.5777V12.2507V12.2382ZM22.0029 15.3679C19.659 16.7951 17.0894 16.8577 14.4948 16.6198L14.1689 18.4601C14.1689 18.4601 14.1814 18.4601 14.2065 18.4726C14.2441 18.4726 14.2817 18.4851 14.3193 18.4976C15.5978 18.7229 16.8889 18.7355 18.1674 18.5727C19.12 18.4475 20.0601 18.2222 20.925 17.759C21.3887 17.5086 21.8024 17.2207 21.9904 16.7074V15.3804L22.0029 15.3679Z" fill="#313131"/>
</svg>
