<svg width="24" height="24" viewBox="0 0 24 24" fill="none" xmlns="http://www.w3.org/2000/svg">
<path fill-rule="evenodd" clip-rule="evenodd" d="M3.23964 4.39692C2.92012 4.0774 2.92012 3.55935 3.23964 3.23983C3.55917 2.9203 4.07721 2.9203 4.39674 3.23983L12.0002 10.8433L19.6036 3.23983C19.9232 2.9203 20.4412 2.9203 20.7607 3.23983C21.0803 3.55935 21.0803 4.0774 20.7607 4.39692L13.1573 12.0004L20.7606 19.6036C21.0801 19.9232 21.0801 20.4412 20.7606 20.7607C20.441 21.0803 19.923 21.0803 19.6035 20.7607L12.0002 13.1575L4.39693 20.7607C4.0774 21.0803 3.55935 21.0803 3.23983 20.7607C2.92031 20.4412 2.92031 19.9232 3.23983 19.6036L10.8431 12.0004L3.23964 4.39692Z" fill="#191F28"/>
</svg>
