<svg width="60" height="73" viewBox="0 0 60 73" fill="none" xmlns="http://www.w3.org/2000/svg">
<circle opacity="0.4" cx="30" cy="30" r="30" transform="matrix(-1 0 0 1 60 0)" fill="#191F28"/>
<mask id="path-2-inside-1_16869_88186" fill="white">
<path fill-rule="evenodd" clip-rule="evenodd" d="M25.6143 56.9219C12.6375 54.8238 2.72803 43.5691 2.72803 30C2.72803 14.9377 14.9384 2.72729 30.0008 2.72729C45.0631 2.72729 57.2735 14.9377 57.2735 30C57.2735 43.5695 47.3636 54.8243 34.3862 56.922L30.0003 72.2728L25.6143 56.9219Z"/>
</mask>
<path fill-rule="evenodd" clip-rule="evenodd" d="M25.6143 56.9219C12.6375 54.8238 2.72803 43.5691 2.72803 30C2.72803 14.9377 14.9384 2.72729 30.0008 2.72729C45.0631 2.72729 57.2735 14.9377 57.2735 30C57.2735 43.5695 47.3636 54.8243 34.3862 56.922L30.0003 72.2728L25.6143 56.9219Z" fill="#191F28"/>
<path d="M25.6143 56.9219L27.5374 56.3724L27.1882 55.1504L25.9336 54.9475L25.6143 56.9219ZM34.3862 56.922L34.0671 54.9476L32.8124 55.1505L32.4632 56.3726L34.3862 56.922ZM30.0003 72.2728L28.0773 72.8222L30.0003 79.5529L31.9234 72.8222L30.0003 72.2728ZM0.728027 30C0.728027 44.5661 11.365 56.644 25.2951 58.8962L25.9336 54.9475C13.9099 53.0035 4.72803 42.5721 4.72803 30H0.728027ZM30.0008 0.727295C13.8339 0.727295 0.728027 13.8331 0.728027 30H4.72803C4.72803 16.0423 16.043 4.72729 30.0008 4.72729V0.727295ZM59.2735 30C59.2735 13.8331 46.1676 0.727295 30.0008 0.727295V4.72729C43.9585 4.72729 55.2735 16.0423 55.2735 30H59.2735ZM34.7054 58.8964C48.636 56.6446 59.2735 44.5665 59.2735 30H55.2735C55.2735 42.5724 46.0911 53.004 34.0671 54.9476L34.7054 58.8964ZM32.4632 56.3726L28.0773 71.7233L31.9234 72.8222L36.3093 57.4715L32.4632 56.3726ZM31.9234 71.7233L27.5374 56.3724L23.6913 57.4713L28.0773 72.8222L31.9234 71.7233Z" fill="white" mask="url(#path-2-inside-1_16869_88186)"/>
<path d="M42.1875 31.3267C42.1875 30.0066 41.5461 28.821 40.5306 28.0292L38.6399 22.823C38.0308 21.49 36.6229 20.625 35.0644 20.625H25.1069C23.5786 20.625 22.1926 21.4567 21.5651 22.7509L19.5076 27.998C18.4713 28.7898 17.8125 29.9894 17.8125 31.3267V36.0154H17.8762C17.8357 36.1585 17.8125 36.308 17.8125 36.4619V37.1504C17.8125 38.1209 18.6589 38.9063 19.7021 38.9063C20.7453 38.9063 21.5917 38.1198 21.5917 37.1504V36.4619C21.5917 36.3069 21.5686 36.1574 21.528 36.0154H38.4708C38.4303 36.1585 38.4071 36.308 38.4071 36.4619V37.1504C38.4071 38.1209 39.2535 38.9063 40.2967 38.9063C41.3411 38.9063 42.1863 38.1198 42.1863 37.1504V36.4619C42.1863 36.3069 42.1632 36.1574 42.1227 36.0154H42.1863V31.3267H42.1875ZM23.2625 23.8096C23.7638 22.7757 24.8707 22.1108 26.0911 22.1108H34.0455C35.2902 22.1108 36.4145 22.8015 36.9019 23.8666L38.0575 27.048C37.9787 27.0404 37.8988 27.034 37.8189 27.0297L36.1771 26.9425C32.0621 26.7241 27.9367 26.7241 23.8217 26.9425L22.1799 27.0297C22.1174 27.0329 22.0549 27.0383 21.9935 27.0437L23.2613 23.8096H23.2625ZM21.9414 32.8738C21.1135 32.8738 20.4431 32.2509 20.4431 31.4816C20.4431 30.7124 21.1135 30.0895 21.9414 30.0895C22.7692 30.0895 23.4396 30.7124 23.4396 31.4816C23.4396 32.2509 22.7692 32.8738 21.9414 32.8738ZM32.883 32.097H27.0776C26.5114 32.097 26.0529 31.671 26.0529 31.1449C26.0529 30.6188 26.5114 30.1927 27.0776 30.1927H32.883C33.4492 30.1927 33.9077 30.6188 33.9077 31.1449C33.9077 31.671 33.4492 32.097 32.883 32.097ZM38.0111 32.8738C37.1833 32.8738 36.5129 32.2509 36.5129 31.4816C36.5129 30.7124 37.1833 30.0895 38.0111 30.0895C38.839 30.0895 39.5094 30.7124 39.5094 31.4816C39.5094 32.2509 38.839 32.8738 38.0111 32.8738Z" fill="white"/>
</svg>
