<svg width="16" height="16" viewBox="0 0 16 16" fill="none" xmlns="http://www.w3.org/2000/svg">
<path d="M13.2992 5.57098C13.2992 5.42098 13.2392 5.28098 13.1292 5.17098C13.0292 5.06098 12.8892 5.00098 12.7392 5.00098C12.5892 5.00098 12.4492 5.06098 12.3392 5.17098L7.99922 9.52098L3.65922 5.17098C3.54922 5.06098 3.41922 5.00098 3.26922 5.00098C3.11922 5.00098 2.97922 5.06098 2.86922 5.17098C2.75922 5.28098 2.69922 5.41098 2.69922 5.56098C2.69922 5.71098 2.75922 5.85098 2.86922 5.96098L7.81922 10.931C7.91922 11.021 8.07922 11.021 8.16922 10.931L13.1292 5.96098C13.2392 5.85098 13.2992 5.72098 13.2992 5.57098Z" fill="#191F28"/>
</svg>
