<svg width="24" height="24" viewBox="0 0 24 24" fill="none" xmlns="http://www.w3.org/2000/svg">
<path fill-rule="evenodd" clip-rule="evenodd" d="M17.6402 4.09986C17.8777 4.6734 18 5.28812 18 5.90891H13.2727H12.1749L8.54545 5.90891L5.6329 5.90891C5.28336 5.90891 5 5.62555 5 5.27601C5 4.96104 5.2316 4.69401 5.5434 4.64947L8.87554 4.17345C8.88525 4.14885 8.89517 4.12432 8.9053 4.09986C9.14286 3.52633 9.49107 3.00519 9.93004 2.56623C10.369 2.12726 10.8901 1.77905 11.4637 1.54148C12.0372 1.30392 12.6519 1.18164 13.2727 1.18164C13.8935 1.18164 14.5082 1.30392 15.0818 1.54148C15.6553 1.77905 16.1764 2.12726 16.6154 2.56623C17.0544 3.00519 17.4026 3.52632 17.6402 4.09986Z" fill="#313131"/>
<path d="M18 6.09104C18 8.70184 15.8835 10.8183 13.2727 10.8183C10.6619 10.8183 8.54541 8.70184 8.54541 6.09104C8.54541 3.48024 10.6619 1.36377 13.2727 1.36377C15.8835 1.36377 18 3.48024 18 6.09104Z" fill="#313131"/>
<path fill-rule="evenodd" clip-rule="evenodd" d="M4.16659 14.8181H1C0.447715 14.8181 0 15.2658 0 15.8181V21.9999C0 22.5522 0.447715 22.9999 1 22.9999H9C9.55229 22.9999 10 22.5522 10 21.9999V15.8181C10 15.2658 9.55228 14.8181 9 14.8181H5.83326V17.4315H4.16659V14.8181Z" fill="#313131"/>
<path fill-rule="evenodd" clip-rule="evenodd" d="M21.9999 19.8868H21.9998V23.0001H11.1283C11.1767 22.8827 11.2034 22.754 11.2034 22.6191V14.6191C11.2034 14.0669 10.7557 13.6191 10.2034 13.6191H7.64209C8.91213 12.9274 10.5455 12.4668 12.6436 12.4668C20.5946 12.4668 21.8722 19.0821 21.99 19.8201H21.9998V19.8863L21.9999 19.8868Z" fill="#313131"/>
</svg>
