<svg width="24" height="24" viewBox="0 0 24 24" fill="none" xmlns="http://www.w3.org/2000/svg">
<path fill-rule="evenodd" clip-rule="evenodd" d="M18.9239 4.12633C19.0308 4.1881 19.1245 4.27032 19.1996 4.3683C19.2747 4.46629 19.3298 4.57811 19.3617 4.69739C19.3936 4.81667 19.4017 4.94106 19.3854 5.06345C19.3692 5.18585 19.3291 5.30386 19.2672 5.41072L14.9166 12.9379C15.4856 13.6536 15.7742 14.5522 15.7283 15.4654C15.6825 16.3786 15.3055 17.2438 14.6678 17.899C14.03 18.5542 13.1754 18.9546 12.2637 19.0251C11.3521 19.0956 10.4461 18.8314 9.71518 18.282C8.98429 17.7327 8.47868 16.9357 8.29301 16.0405C8.10733 15.1452 8.25432 14.2129 8.70646 13.4182C9.1586 12.6234 9.88488 12.0208 10.7494 11.7229C11.6138 11.4251 12.5572 11.4525 13.4029 11.8001L15.607 7.98828C14.763 7.56756 13.8522 7.29663 12.9155 7.18757V7.76022C12.9155 8.00947 12.8164 8.24851 12.6402 8.42476C12.464 8.601 12.2249 8.70002 11.9757 8.70002C11.7264 8.70002 11.4874 8.601 11.3111 8.42476C11.1349 8.24851 11.0359 8.00947 11.0359 7.76022V7.18757C10.246 7.27927 9.4739 7.48613 8.74401 7.80157L9.03096 8.29778C9.09267 8.40474 9.13271 8.52281 9.14879 8.64525C9.16487 8.76768 9.15667 8.89208 9.12467 9.01135C9.09268 9.13061 9.0375 9.24241 8.9623 9.34035C8.88709 9.4383 8.79333 9.52047 8.68637 9.58218C8.57941 9.64388 8.46134 9.68392 8.33891 9.7C8.21648 9.71608 8.09208 9.70788 7.97281 9.67588C7.85354 9.64389 7.74175 9.58871 7.6438 9.51351C7.54586 9.4383 7.46369 9.34454 7.40198 9.23758L7.11628 8.74137C6.478 9.21613 5.91272 9.78184 5.43843 10.4205L5.93464 10.7049C6.15066 10.8295 6.30832 11.0349 6.37295 11.2757C6.43757 11.5166 6.40386 11.7733 6.27924 11.9893C6.21753 12.0963 6.13536 12.19 6.03741 12.2652C5.93947 12.3404 5.82767 12.3956 5.70841 12.4276C5.46754 12.4922 5.21086 12.4585 4.99484 12.3339L4.49863 12.047C4.17061 12.8063 3.96019 13.6113 3.87461 14.434C3.84885 14.682 3.72566 14.9095 3.53214 15.0666C3.33863 15.2237 3.09063 15.2975 2.84271 15.2717C2.59479 15.246 2.36725 15.1228 2.21016 14.9293C2.05306 14.7357 1.97928 14.4877 2.00503 14.2398C2.17364 12.6192 2.73475 11.0641 3.63977 9.70915C4.54479 8.35422 5.76645 7.24033 7.19895 6.46391C8.63145 5.68749 10.2316 5.27196 11.8609 5.2533C13.4902 5.23463 15.0994 5.61339 16.5493 6.35679L17.6395 4.46967C17.7013 4.36277 17.7835 4.26908 17.8815 4.19396C17.9795 4.11884 18.0913 4.06376 18.2106 4.03188C18.3298 3.99999 18.4542 3.99193 18.5766 4.00813C18.699 4.02434 18.817 4.0645 18.9239 4.12633ZM18.7898 9.19748C18.9919 9.05162 19.2436 8.99198 19.4897 9.03169C19.7357 9.0714 19.9559 9.20721 20.1018 9.40925C21.4058 11.2145 22.0715 13.4026 21.9939 15.6282C21.991 15.7525 21.9635 15.875 21.913 15.9886C21.8624 16.1021 21.7898 16.2046 21.6994 16.2899C21.609 16.3752 21.5025 16.4417 21.3862 16.4856C21.2699 16.5295 21.146 16.5499 21.0218 16.5456C20.8975 16.5413 20.7754 16.5124 20.6624 16.4605C20.5494 16.4087 20.4478 16.3349 20.3635 16.2435C20.2792 16.1522 20.2139 16.045 20.1714 15.9281C20.1288 15.8113 20.1098 15.6872 20.1156 15.5631C20.1787 13.7545 19.6377 11.9764 18.5781 10.5094C18.5059 10.4093 18.4542 10.2959 18.4258 10.1758C18.3975 10.0557 18.3931 9.93117 18.4128 9.80934C18.4326 9.68751 18.4762 9.57078 18.5411 9.46579C18.606 9.36081 18.6909 9.26964 18.7911 9.19748H18.7898ZM13.8553 15.2786C13.8553 15.7771 13.6572 16.2552 13.3047 16.6077C12.9522 16.9602 12.4742 17.1582 11.9757 17.1582C11.4772 17.1582 10.9991 16.9602 10.6466 16.6077C10.2941 16.2552 10.0961 15.7771 10.0961 15.2786C10.0961 14.7801 10.2941 14.302 10.6466 13.9495C10.9991 13.597 11.4772 13.399 11.9757 13.399C12.4742 13.399 12.9522 13.597 13.3047 13.9495C13.6572 14.302 13.8553 14.7801 13.8553 15.2786Z" fill="#191F28"/>
</svg>
