<svg width="24" height="24" viewBox="0 0 24 24" fill="none" xmlns="http://www.w3.org/2000/svg">
<path d="M19.299 5.90479C19.5615 5.45046 19.4059 4.86942 18.9515 4.60701C18.4972 4.34459 17.9162 4.50018 17.6538 4.95451L16.5715 6.82832C15.4021 6.23003 14.0957 5.85303 12.7049 5.75578C7.29053 5.37717 2.58016 9.36866 2.02752 14.728C1.97402 15.2467 2.35119 15.7106 2.86993 15.7641C3.38868 15.8176 3.85257 15.4405 3.90606 14.9217C3.99287 14.0799 4.20614 13.2796 4.52553 12.5385L5.01661 12.8224C5.47085 13.085 6.05194 12.9296 6.31451 12.4753C6.57708 12.0211 6.42169 11.44 5.96745 11.1774L5.47706 10.894C5.94851 10.2631 6.50854 9.70432 7.1373 9.235L7.42076 9.72251C7.6845 10.1761 8.26598 10.33 8.71955 10.0662C9.17312 9.80251 9.32702 9.22102 9.06328 8.76746L8.78173 8.28324C9.49344 7.9758 10.2557 7.76751 11.0498 7.67461V8.21867C11.0498 8.74334 11.4752 9.16867 11.9998 9.16867C12.5245 9.16867 12.9498 8.74334 12.9498 8.21867V7.67465C13.9063 7.78554 14.8066 8.0595 15.6254 8.46626L13.4233 12.2789C12.9843 12.0991 12.5036 11.9999 11.9998 11.9999C9.92445 11.9999 8.24202 13.6824 8.24202 15.7578C8.24202 17.8331 9.92445 19.5156 11.9998 19.5156C14.0752 19.5156 15.7576 17.8331 15.7576 15.7578C15.7576 14.8795 15.4564 14.0717 14.9516 13.4319L19.299 5.90479ZM11.9998 17.6356C10.9628 17.6356 10.122 16.7948 10.122 15.7578C10.122 14.7207 10.9628 13.8799 11.9998 13.8799C13.0369 13.8799 13.8776 14.7207 13.8776 15.7578C13.8776 16.7948 13.0369 17.6356 11.9998 17.6356Z" fill="#313131"/>
<path d="M22.0298 16.1233C22.1144 13.8083 21.4019 11.6356 20.1328 9.88294C19.8269 9.46055 19.2366 9.36609 18.8142 9.67194C18.3918 9.9778 18.2973 10.5682 18.6032 10.9905C19.6341 12.4142 20.2112 14.1754 20.1426 16.0543C20.1235 16.5754 20.5305 17.0134 21.0517 17.0324C21.5728 17.0515 22.0108 16.6444 22.0298 16.1233Z" fill="#313131"/>
</svg>
