<svg width="20" height="20" viewBox="0 0 20 20" fill="none" xmlns="http://www.w3.org/2000/svg">
<circle cx="10" cy="10" r="10" transform="rotate(-180 10 10)" fill="#FF7D05"/>
<path fill-rule="evenodd" clip-rule="evenodd" d="M4 10C4 6.688 6.688 4 10 4C13.312 4 16 6.688 16 10C16 13.312 13.312 16 10 16C6.688 16 4 13.312 4 10ZM10.8 10L10.8 7.04C10.8 6.90745 10.6925 6.8 10.56 6.8L9.44 6.8C9.30745 6.8 9.2 6.90745 9.2 7.04L9.2 10L7.37941 10C7.16559 10 7.05851 10.2585 7.20971 10.4097L9.83029 13.0303C9.92402 13.124 10.076 13.124 10.1697 13.0303L12.7903 10.4097C12.9415 10.2585 12.8344 10 12.6206 10L10.8 10Z" fill="white"/>
</svg>
