<svg width="24" height="24" viewBox="0 0 24 24" fill="none" xmlns="http://www.w3.org/2000/svg">
<path d="M4.5 2H19.5C19.7652 2 20.0196 2.10536 20.2071 2.29289C20.3946 2.48043 20.5 2.73478 20.5 3V14.5H15.5C14.122 14.5 13 15.622 13 17V22H4.5C4.23478 22 3.98043 21.8946 3.79289 21.7071C3.60536 21.5196 3.5 21.2652 3.5 21V3C3.5 2.73478 3.60536 2.48043 3.79289 2.29289C3.98043 2.10536 4.23478 2 4.5 2Z" fill="#191F28"/>
<path d="M14.5002 22V17C14.5002 16.7348 14.6056 16.4804 14.7931 16.2929C14.9807 16.1054 15.235 16 15.5002 16H20.5002L14.5002 22Z" fill="#191F28"/>
</svg>
