<svg width="24" height="24" viewBox="0 0 24 24" fill="none" xmlns="http://www.w3.org/2000/svg">
<path fill-rule="evenodd" clip-rule="evenodd" d="M12 21.5C17.2467 21.5 21.5 17.2467 21.5 12C21.5 6.75329 17.2467 2.5 12 2.5C6.75329 2.5 2.5 6.75329 2.5 12C2.5 17.2467 6.75329 21.5 12 21.5ZM12.0051 13.5279C11.4725 13.5279 11.1808 13.2161 11.1603 12.6835L11.02 7.71792C10.9999 7.16467 11.412 6.7731 11.9949 6.7731C12.558 6.7731 12.9899 7.17496 12.9701 7.72778L12.829 12.6835C12.8093 13.2264 12.5074 13.5279 12.0051 13.5279ZM12.0051 17.227C11.4219 17.227 10.869 16.7647 10.869 16.1415C10.869 15.5184 11.412 15.0556 12.0051 15.0556C12.5884 15.0556 13.131 15.5081 13.131 16.1415C13.131 16.7745 12.5777 17.227 12.0051 17.227Z" fill="#313131"/>
</svg>
