<svg width="24" height="24" viewBox="0 0 24 24" fill="none" xmlns="http://www.w3.org/2000/svg">
<path fill-rule="evenodd" clip-rule="evenodd" d="M11.999 22.5C17.798 22.5 22.499 17.799 22.499 12C22.499 6.20102 17.798 1.5 11.999 1.5C6.20004 1.5 1.49902 6.20102 1.49902 12C1.49902 17.799 6.20004 22.5 11.999 22.5ZM10.9101 14.112H13.1246L13.5899 5.23531H10.4449L10.9101 14.112ZM10.8729 16.0288C10.5627 16.2521 10.4077 16.6491 10.4077 17.2198C10.4077 17.7657 10.5627 18.1627 10.8729 18.4108C11.183 18.6465 11.5614 18.7644 12.0081 18.7644C12.4423 18.7644 12.8145 18.6465 13.1246 18.4108C13.4348 18.1627 13.5899 17.7657 13.5899 17.2198C13.5899 16.6491 13.4348 16.2521 13.1246 16.0288C12.8145 15.7931 12.4423 15.6752 12.0081 15.6752C11.5614 15.6752 11.183 15.7931 10.8729 16.0288Z" fill="#191F28"/>
</svg>
