<svg width="24" height="24" viewBox="0 0 24 24" fill="none" xmlns="http://www.w3.org/2000/svg">
<path d="M8.7 15.15C5.23 14.53 3.2 13.06 3.2 12.15C3.2 11.66 3.79 11 4.87 10.4V7.96C2.5 8.97 1 10.47 1 12.14C1 14.6 4.23 16.68 8.7 17.39V20.94L13.1 16.54L8.7 12.14V15.15Z" fill="#313131"/>
<path d="M18.26 7.62V9.97C19.89 10.66 20.8 11.53 20.8 12.14C20.8 12.94 19.19 14.22 16.4 14.92V17.18C20.28 16.33 23 14.4 23 12.14C23 10.27 21.13 8.61 18.26 7.62Z" fill="#313131"/>
<path d="M18.87 6.94C19.4 6.94 19.89 6.55 19.89 5.96C19.89 5.44 19.48 5 18.88 5C18.31 5 17.86 5.43 17.86 5.99C17.86 6.51 18.29 6.94 18.88 6.94H18.87ZM18.86 5.45C19.17 5.45 19.35 5.7 19.35 5.97C19.35 6.27 19.15 6.5 18.86 6.5C18.57 6.5 18.38 6.26 18.38 5.98C18.38 5.72 18.57 5.46 18.85 5.46L18.86 5.45Z" fill="#313131"/>
<path d="M17.44 7.68C17.44 5.97 16.64 5.11 15.57 5.11C14.5 5.11 13.7 5.97 13.7 7.68C13.7 9.39 14.5 10.24 15.57 10.24C16.64 10.24 17.44 9.38 17.44 7.68ZM15.57 9.29C15.09 9.29 14.73 8.79 14.73 7.68C14.73 6.57 15.09 6.06 15.57 6.06C16.05 6.06 16.41 6.56 16.41 7.68C16.41 8.8 16.05 9.29 15.57 9.29Z" fill="#313131"/>
<path d="M11.61 6.87C11.56 6.87 11.5 6.88 11.47 6.89L12.58 5.24H11.35L10.09 7.23C9.8 7.69 9.65 8.05 9.65 8.52C9.65 9.56 10.48 10.23 11.5 10.23C12.52 10.23 13.35 9.52 13.35 8.52C13.35 7.52 12.57 6.87 11.61 6.87ZM11.5 9.31C11.01 9.31 10.71 8.97 10.71 8.53C10.71 8.09 11.02 7.75 11.5 7.75C11.98 7.75 12.29 8.09 12.29 8.53C12.29 8.97 11.98 9.31 11.5 9.31Z" fill="#313131"/>
<path d="M7.42 9.33C6.96 9.33 6.72 9.1 6.68 8.71H5.61C5.69 9.65 6.35 10.25 7.42 10.25C8.43 10.25 9.23 9.66 9.23 8.72C9.23 8.09 8.73 7.7 8.28 7.63C8.69 7.56 9.1 7.14 9.1 6.58C9.1 5.71 8.4 5.11 7.39 5.11C6.38 5.11 5.69 5.78 5.69 6.71H6.76C6.76 6.36 6.96 6.02 7.38 6.02C7.8 6.02 8.03 6.24 8.03 6.6C8.03 6.96 7.77 7.21 7.32 7.21H6.83V8.1H7.32C7.83 8.1 8.17 8.32 8.17 8.72C8.17 9.08 7.87 9.32 7.42 9.32V9.33Z" fill="#313131"/>
</svg>
