<svg width="24" height="24" viewBox="0 0 24 24" fill="none" xmlns="http://www.w3.org/2000/svg">
<path d="M21.8301 13.23C20.9501 14.92 19.7001 16.32 18.1001 17.42C16.2801 18.66 14.2501 19.29 12.0001 19.29C10.6101 19.29 9.31007 19.05 8.08007 18.58L10.6201 16.04C11.0401 16.2 11.5001 16.29 12.0001 16.29C13.0401 16.29 13.9301 15.93 14.6601 15.2C15.3901 14.47 15.7501 13.59 15.7501 12.54C15.7501 12.04 15.6601 11.59 15.5001 11.16L18.6101 8.04997C19.9601 9.07997 21.0401 10.34 21.8301 11.84C22.0601 12.28 22.0601 12.8 21.8301 13.23ZM9.34007 15.19L6.65007 17.88L4.05007 20.48C3.76007 20.77 3.28007 20.77 2.99007 20.48C2.70007 20.19 2.70007 19.71 2.99007 19.42L5.40007 17.01C4.05007 15.98 2.97007 14.72 2.18007 13.22C1.95007 12.78 1.95007 12.26 2.18007 11.83C3.06007 10.14 4.31007 8.73997 5.91007 7.63997C7.73007 6.39997 9.76007 5.76997 12.0101 5.76997C13.4001 5.76997 14.6901 6.01997 15.9201 6.48997L18.9101 3.49997C19.2001 3.20997 19.6801 3.20997 19.9701 3.49997C20.2601 3.78997 20.2601 4.26997 19.9701 4.55997L17.3701 7.15997L14.6801 9.84997L9.36007 15.17L9.34007 15.19ZM8.50007 13.91L13.3701 9.03997C12.9501 8.87997 12.4901 8.78997 11.9901 8.78997C10.9501 8.78997 10.0601 9.14997 9.33007 9.87997C8.60007 10.61 8.24007 11.49 8.24007 12.54C8.24007 13.04 8.33007 13.49 8.49007 13.92L8.50007 13.91Z" fill="#191F28"/>
</svg>
