<svg width="24" height="24" viewBox="0 0 24 24" fill="none" xmlns="http://www.w3.org/2000/svg">
<path d="M14.1706 4.25822L21.659 17.2352C22.6259 18.9128 21.4222 21.0049 19.4884 21.0049H4.51158C2.57781 21.0049 1.37414 18.9128 2.34102 17.2352L9.82944 4.25822C10.7963 2.58059 13.2135 2.58059 14.1804 4.25822H14.1706ZM11.9901 17.7977C12.1579 17.7977 12.3256 17.7582 12.4736 17.6694C12.6216 17.5806 12.74 17.4622 12.8288 17.3141C12.9176 17.1661 12.957 17.0082 12.9669 16.8306C12.9669 16.653 12.9176 16.4951 12.8288 16.347C12.74 16.199 12.6216 16.0806 12.4736 15.9918C12.3256 15.903 12.1677 15.8635 11.9901 15.8635C11.8125 15.8635 11.6547 15.903 11.5067 15.9918C11.3587 16.0806 11.2403 16.199 11.1515 16.347C11.0627 16.4951 11.0232 16.653 11.0232 16.8306C11.0232 17.0082 11.0627 17.1661 11.1515 17.3141C11.2403 17.4622 11.3587 17.5806 11.5067 17.6694C11.6547 17.7582 11.8224 17.7977 11.9901 17.7977ZM12.888 9.32072H11.1022L11.26 15.1924H12.74L12.8978 9.32072H12.888Z" fill="#191F28"/>
</svg>
