<svg width="24" height="24" viewBox="0 0 24 24" fill="none" xmlns="http://www.w3.org/2000/svg">
<path d="M12.0001 19.28C9.75006 19.28 7.72006 18.66 5.90006 17.41C4.30006 16.31 3.05006 14.92 2.17006 13.22C1.94006 12.78 1.94006 12.26 2.17006 11.83C3.05006 10.14 4.30006 8.74002 5.90006 7.64002C7.72006 6.40002 9.75006 5.77002 12.0001 5.77002C14.2501 5.77002 16.2801 6.39002 18.1001 7.64002C19.7001 8.74002 20.9501 10.13 21.8301 11.83C22.0601 12.27 22.0601 12.79 21.8301 13.22C20.9501 14.91 19.7001 16.31 18.1001 17.41C16.2801 18.65 14.2501 19.28 12.0001 19.28ZM12.0001 16.28C13.0401 16.28 13.9301 15.92 14.6601 15.19C15.3901 14.46 15.7501 13.58 15.7501 12.53C15.7501 11.48 15.3901 10.6 14.6601 9.87002C13.9301 9.14002 13.0501 8.78002 12.0001 8.78002C10.9501 8.78002 10.0701 9.14002 9.34006 9.87002C8.61006 10.6 8.25006 11.48 8.25006 12.53C8.25006 13.58 8.61006 14.46 9.34006 15.19C10.0701 15.92 10.9501 16.28 12.0001 16.28Z" fill="#313131"/>
</svg>
