<svg width="38" height="51" viewBox="0 0 38 51" fill="none" xmlns="http://www.w3.org/2000/svg">
<path d="M18.5783 4.39258C10.2509 4.39258 3.50012 11.1433 3.50012 19.4707C3.50012 22.2556 4.04522 25.1319 5.60949 27.2051L18.5783 44.3926L31.547 27.2051C32.9678 25.3221 33.6564 21.9932 33.6564 19.4707C33.6564 11.1433 26.9057 4.39258 18.5783 4.39258ZM18.5783 13.1255C22.0821 13.1255 24.9235 15.9668 24.9235 19.4707C24.9235 22.9746 22.0821 25.8159 18.5783 25.8159C15.0744 25.8159 12.2331 22.9746 12.2331 19.4707C12.2331 15.9668 15.0744 13.1255 18.5783 13.1255Z" fill="#FF7733"/>
<path fill-rule="evenodd" clip-rule="evenodd" d="M18.5783 46.8829L4.4121 28.1086C2.56393 25.6592 2.00012 22.398 2.00012 19.4707C2.00012 10.3148 9.42243 2.89258 18.5783 2.89258C27.7341 2.89258 35.1564 10.3148 35.1564 19.4707C35.1564 20.8562 34.9688 22.4426 34.5887 23.9455C34.213 25.431 33.6214 26.9463 32.7444 28.1086L18.5783 46.8829ZM5.60949 27.2051C4.04522 25.1319 3.50012 22.2556 3.50012 19.4707C3.50012 11.1433 10.2509 4.39258 18.5783 4.39258C26.9057 4.39258 33.6564 11.1433 33.6564 19.4707C33.6564 21.9932 32.9678 25.3221 31.547 27.2051L18.5783 44.3926L5.60949 27.2051Z" fill="#F7F8F9"/>
<path fill-rule="evenodd" clip-rule="evenodd" d="M18.5781 50.2034L2.81547 29.3132C0.588665 26.362 0 22.5876 0 19.4707C0 9.21028 8.31774 0.892578 18.5781 0.892578C28.8385 0.892578 37.1563 9.21028 37.1562 19.4707C37.1562 21.0218 36.9481 22.7729 36.5275 24.4358C36.1172 26.0582 35.4398 27.8567 34.3408 29.3132M32.7443 28.1086C33.6212 26.9463 34.2129 25.431 34.5886 23.9455C34.9687 22.4426 35.1562 20.8562 35.1562 19.4707C35.1563 10.3148 27.734 2.89258 18.5781 2.89258C9.42231 2.89258 2 10.3148 2 19.4707C2 22.398 2.56381 25.6592 4.41198 28.1086L18.5781 46.8829L32.7443 28.1086ZM18.5781 50.2034L20.1746 48.0876L18.5781 50.2034ZM20.1746 48.0876L34.3408 29.3132L20.1746 48.0876Z" fill="#FF7733" fill-opacity="0.1"/>
<path fill-rule="evenodd" clip-rule="evenodd" d="M24.9234 19.4707C24.9234 15.9669 22.0821 13.1255 18.5782 13.1255C15.0744 13.1255 12.233 15.9669 12.233 19.4707C12.233 22.9746 15.0744 25.8159 18.5782 25.8159C22.0821 25.8159 24.9234 22.9746 24.9234 19.4707Z" fill="#EF5E0C"/>
</svg>
