<svg width="24" height="24" viewBox="0 0 24 24" fill="none" xmlns="http://www.w3.org/2000/svg">
<path fill-rule="evenodd" clip-rule="evenodd" d="M3 6.375C3 5.75368 3.50368 5.25 4.125 5.25H19.875C20.4963 5.25 21 5.75368 21 6.375C21 6.99632 20.4963 7.5 19.875 7.5H4.125C3.50368 7.5 3 6.99632 3 6.375ZM3 12.375C3 11.7537 3.50368 11.25 4.125 11.25H19.875C20.4963 11.25 21 11.7537 21 12.375C21 12.9963 20.4963 13.5 19.875 13.5H4.125C3.50368 13.5 3 12.9963 3 12.375ZM3 18.375C3 17.7537 3.50368 17.25 4.125 17.25H19.875C20.4963 17.25 21 17.7537 21 18.375C21 18.9963 20.4963 19.5 19.875 19.5H4.125C3.50368 19.5 3 18.9963 3 18.375Z" fill="#313131"/>
</svg>
