<svg width="24" height="24" viewBox="0 0 24 24" fill="none" xmlns="http://www.w3.org/2000/svg">
<path d="M22.2 12C22.2 6.3667 17.6333 1.8 12 1.8C6.3667 1.8 1.8 6.3667 1.8 12C1.8 17.6333 6.3667 22.2 12 22.2C17.6333 22.2 22.2 17.6333 22.2 12ZM24 12C24 18.6274 18.6274 24 12 24C5.37258 24 0 18.6274 0 12C0 5.37258 5.37258 0 12 0C18.6274 0 24 5.37258 24 12ZM13.1992 8.09961C13.1992 8.70691 12.7069 9.19922 12.0996 9.19922C11.4923 9.19922 11 8.70691 11 8.09961C11 7.49231 11.4923 7 12.0996 7C12.7069 7 13.1992 7.49231 13.1992 8.09961ZM10.664 10.5274C10.5377 10.2666 10.496 9.98966 10.4999 9.90242H12.875C12.875 9.90242 13.0332 9.87276 13.1953 10.0078C13.3575 10.1429 13.3555 10.4649 13.3555 10.4649V17.3238C13.3555 17.3238 13.3555 17.558 13.2188 17.6993C13.0751 17.8477 12.8203 17.8477 12.8203 17.8477H10.953V11.4923C10.953 11.1024 10.8304 10.859 10.7154 10.6309C10.6979 10.5962 10.6806 10.5619 10.664 10.5274Z" fill="#313131"/>
</svg>
