<svg width="24" height="24" viewBox="0 0 24 24" fill="none" xmlns="http://www.w3.org/2000/svg">
<path d="M5 13V22H3V13H5ZM23 13V15H21V22H19V15H17V13H23ZM12 11C13.4011 11.0075 14.7725 11.4054 15.96 12.149L17.407 10.699C15.8189 9.59697 13.933 9.00438 12 9C10.0927 9.00375 8.23206 9.58989 6.667 10.68L8.116 12.133C9.2794 11.3999 10.6249 11.0074 12 11Z" fill="#191F28"/>
<path d="M12 7C14.4623 7.00511 16.8579 7.80085 18.834 9.27L20.261 7.84C17.8989 6.0026 14.9925 5.00345 12 5C9.03333 5.00377 6.15269 5.99682 3.81396 7.822L5.23996 9.252C7.19291 7.79472 9.56323 7.00508 12 7Z" fill="#191F28"/>
<path d="M12 2.99998C15.523 3.00052 18.9404 4.2035 21.687 6.40998L23.114 4.98098C19.9958 2.41035 16.0812 1.00311 12.04 1.00001C7.99881 0.996904 4.0821 2.39814 0.959961 4.96398L2.38696 6.39298C5.11033 4.19834 8.50236 3.00109 12 2.99998ZM12 13C11.1099 13 10.2399 13.2639 9.4999 13.7584C8.75987 14.2528 8.1831 14.9556 7.8425 15.7779C7.50191 16.6002 7.41279 17.505 7.58643 18.3779C7.76006 19.2508 8.18865 20.0526 8.81798 20.682C9.44732 21.3113 10.2491 21.7399 11.1221 21.9135C11.995 22.0872 12.8998 21.998 13.722 21.6574C14.5443 21.3168 15.2471 20.7401 15.7416 20C16.236 19.26 16.5 18.39 16.5 17.5C16.5 16.3065 16.0259 15.1619 15.1819 14.318C14.338 13.4741 13.1934 13 12 13ZM12 20C11.5055 20 11.0222 19.8534 10.611 19.5787C10.1999 19.304 9.87948 18.9135 9.69026 18.4567C9.50104 17.9999 9.45154 17.4972 9.548 17.0123C9.64446 16.5273 9.88256 16.0818 10.2322 15.7322C10.5818 15.3826 11.0273 15.1445 11.5122 15.048C11.9972 14.9516 12.4999 15.0011 12.9567 15.1903C13.4135 15.3795 13.8039 15.6999 14.0786 16.1111C14.3533 16.5222 14.5 17.0055 14.5 17.5C14.5 18.163 14.2366 18.7989 13.7677 19.2677C13.2989 19.7366 12.663 20 12 20Z" fill="#191F28"/>
</svg>
