<svg width="24" height="24" viewBox="0 0 24 24" fill="none" xmlns="http://www.w3.org/2000/svg">
<path d="M11.2 4C9.94 4.12 8.72 4.53 7.64 5.2L6.64 3.47C7.95398 2.63652 9.4496 2.13226 11 2M17.53 6.25C16.62 5.39 15.53 4.73 14.34 4.33L15 2.39C16.5 2.84 17.89 3.66 19 4.78M5.34 7.41C4.64388 8.43581 4.18604 9.60434 4 10.83L2 10.55C2.2 9 2.79 7.5 3.7 6.23M22 12V12.66L20 12.5V12C20 10.92 19.81 9.86 19.39 8.86L21.22 8.06C21.75 9.31 22 10.65 22 12ZM6 17.3L4.5 18.61C3.47068 17.4317 2.71888 16.0375 2.3 14.53L4.17 14C4.53 15.22 5.16 16.35 6 17.3ZM12.14 22H12C10.5 22 9 21.68 7.64 21.07L8.53 19.24C9.62 19.75 10.8 20 12 20H12.19M17 21H15V15H21V17H18.42L21.14 19.76L19.73 21.17L17 18.5" fill="#313131"/>
<path d="M17.6667 9.61214C18.2116 9.61214 18.5875 10.0208 18.5875 10.4894C18.5875 11.0234 18.1462 11.3775 17.6613 11.3775C17.1273 11.3775 16.735 10.9907 16.735 10.5166C16.735 9.999 17.1436 9.61214 17.6613 9.61214H17.6667ZM17.6504 10.0262C17.3943 10.0262 17.2199 10.2605 17.2199 10.5003C17.2199 10.7564 17.4052 10.9743 17.6558 10.9743C17.9119 10.9743 18.0971 10.7673 18.0971 10.4948C18.0971 10.2551 17.9391 10.0262 17.6558 10.0262H17.6504Z" fill="#313131"/>
<path d="M14.6585 9.71571C15.6283 9.71571 16.3585 10.4949 16.3585 12.0532C16.3585 13.6061 15.6283 14.3852 14.6585 14.3852C13.6886 14.3852 12.9585 13.6061 12.9585 12.0532C12.9585 10.4949 13.6886 9.71571 14.6585 9.71571ZM14.6585 10.5821C14.2226 10.5821 13.8957 11.0397 13.8957 12.0532C13.8957 13.0612 14.2226 13.5189 14.6585 13.5189C15.0944 13.5189 15.4213 13.0612 15.4213 12.0532C15.4213 11.0397 15.0944 10.5821 14.6585 10.5821Z" fill="#313131"/>
<path d="M10.9537 14.3798C10.0274 14.3798 9.27002 13.775 9.27002 12.827C9.27002 12.3965 9.41169 12.0641 9.67322 11.65L10.8174 9.83562H11.9399L10.9319 11.3395C10.9591 11.3286 11.0082 11.3177 11.0572 11.3177C11.9235 11.3177 12.6373 11.9225 12.6373 12.8215C12.6373 13.7314 11.8854 14.3798 10.9537 14.3798ZM10.9537 13.5407C11.395 13.5407 11.6729 13.2302 11.6729 12.8324C11.6729 12.4346 11.395 12.1241 10.9537 12.1241C10.5123 12.1241 10.2344 12.4346 10.2344 12.8324C10.2344 13.2302 10.5123 13.5407 10.9537 13.5407Z" fill="#313131"/>
<path d="M7.20578 9.71571C8.12661 9.71571 8.76411 10.2551 8.76411 11.0506C8.76411 11.5628 8.38815 11.9388 8.01764 12.0042C8.42629 12.0695 8.88398 12.4237 8.88398 12.9958C8.88398 13.8513 8.1593 14.3852 7.23848 14.3852C6.26316 14.3852 5.65836 13.8404 5.58753 12.9849H6.56284C6.60098 13.3391 6.82438 13.5516 7.23848 13.5516C7.64713 13.5516 7.91956 13.3282 7.91956 13.0013C7.91956 12.6308 7.60899 12.4346 7.14585 12.4346H6.70451V11.6282H7.14585C7.54905 11.6282 7.78879 11.4103 7.78879 11.0724C7.78879 10.7455 7.57085 10.5439 7.20034 10.5439C6.81348 10.5439 6.63367 10.8545 6.63367 11.1705H5.65836C5.65836 10.326 6.29585 9.71571 7.20578 9.71571Z" fill="#313131"/>
</svg>
