<svg width="24" height="24" viewBox="0 0 24 24" fill="none" xmlns="http://www.w3.org/2000/svg">
<path d="M12 1.5C6.225 1.5 1.5 6.225 1.5 12C1.5 17.775 6.225 22.5 12 22.5C17.775 22.5 22.5 17.775 22.5 12C22.5 6.225 17.775 1.5 12 1.5ZM12 20.925C7.14375 20.925 3.075 16.9875 3.075 12C3.075 7.0125 7.0125 3.075 12 3.075C16.9875 3.075 20.925 7.0125 20.925 12C20.925 16.9875 16.8563 20.925 12 20.925Z" fill="#191F28"/>
<path d="M12.7875 10.1625H10.6875C10.6875 10.1625 10.6875 10.2937 10.8187 10.5562L10.95 10.95C11.0813 11.0812 11.0813 11.2125 11.0813 11.475V17.1187H12.6562C12.7875 17.1187 12.9187 17.1188 13.05 16.9875C13.1813 16.9875 13.1812 16.8562 13.1812 16.5938V10.6875C13.1812 10.425 13.1813 10.2937 13.05 10.2937C13.05 10.2937 12.9188 10.1625 12.7875 10.1625Z" fill="#191F28"/>
<path d="M13.2419 8.00195C13.2419 8.68786 12.6859 9.2439 12 9.2439C11.3141 9.2439 10.7581 8.68786 10.7581 8.00195C10.7581 7.31605 11.3141 6.76001 12 6.76001C12.6859 6.76001 13.2419 7.31605 13.2419 8.00195Z" fill="#191F28"/>
</svg>
