<svg width="24" height="24" viewBox="0 0 24 24" fill="none" xmlns="http://www.w3.org/2000/svg">
<path fill-rule="evenodd" clip-rule="evenodd" d="M12 21.5C17.2467 21.5 21.5 17.2467 21.5 12C21.5 6.75329 17.2467 2.5 12 2.5C6.75329 2.5 2.5 6.75329 2.5 12C2.5 17.2467 6.75329 21.5 12 21.5ZM9.20154 16.7999V12.5499H8.38154C8.21586 12.5499 8.08154 12.4156 8.08154 12.2499V11.5999C8.08154 11.4342 8.21586 11.2999 8.38154 11.2999H9.20154V7.2039C9.20154 7.03822 9.33586 6.9039 9.50154 6.9039H10.5575C10.7232 6.9039 10.8575 7.03821 10.8575 7.2039V11.2047C10.8575 11.2573 10.9002 11.2999 10.9528 11.2999C10.9831 11.2999 11.0116 11.2855 11.0295 11.2611L14.145 7.02612C14.2016 6.94928 14.2913 6.9039 14.3867 6.9039H15.493C15.7409 6.9039 15.8818 7.18754 15.7321 7.38512L12.7648 11.2999H15.0375C15.2032 11.2999 15.3375 11.4342 15.3375 11.5999V12.2499C15.3375 12.4156 15.2032 12.5499 15.0375 12.5499H13.1836L15.8856 16.6344C16.0176 16.8338 15.8746 17.0999 15.6354 17.0999H14.4521C14.3489 17.0999 14.2529 17.0468 14.198 16.9594L11.4701 12.6135L10.9377 13.1868C10.8862 13.2423 10.8575 13.3153 10.8575 13.391V16.7999C10.8575 16.9656 10.7232 17.0999 10.5575 17.0999H9.50154C9.33586 17.0999 9.20154 16.9656 9.20154 16.7999Z" fill="#313131"/>
</svg>
