<svg width="119" height="28" viewBox="0 0 119 28" fill="none" xmlns="http://www.w3.org/2000/svg">
<path d="M86.9121 23.706L87.7671 21.2893H91.1532L92.0082 23.706H92.8519L89.8933 15.5679H89.027L86.0684 23.706H86.9121ZM88.0202 20.5812L89.432 16.6021H89.4883L90.9001 20.5812H88.0202Z" fill="#4A5761"/>
<path d="M95.8615 23.8297C96.9808 23.8353 97.4814 23.1327 97.7289 22.6044H97.8077V23.706H98.5614V15.5679H97.7852V18.7377H97.7289C97.4871 18.2151 97.0033 17.5182 95.8727 17.5125C94.3709 17.5182 93.3359 18.7771 93.3415 20.6711C93.3359 22.5707 94.3653 23.8353 95.8615 23.8297ZM94.1178 20.6599C94.1121 19.2717 94.759 18.2094 95.9627 18.2094C97.1439 18.2094 97.8077 19.2155 97.8077 20.6599C97.8077 22.1042 97.1327 23.1384 95.9627 23.144C94.7702 23.1384 94.1121 22.0537 94.1178 20.6599Z" fill="#4A5761"/>
<path d="M100.12 23.706H100.896V19.8168C100.89 18.8782 101.52 18.2151 102.347 18.2207C103.157 18.2151 103.641 18.7546 103.641 19.5583V23.706H104.417V19.7044C104.417 18.8445 104.929 18.2151 105.846 18.2207C106.633 18.2151 107.168 18.6759 107.162 19.6257V23.706H107.938V19.6145C107.938 18.2432 107.213 17.5238 106.082 17.5238C105.199 17.5238 104.552 17.9509 104.271 18.6253H104.226C103.95 17.934 103.41 17.5238 102.572 17.5238C101.773 17.5238 101.177 17.9059 100.93 18.5467H100.862V17.6025H100.12V23.706Z" fill="#4A5761"/>
<path d="M109.362 23.706H110.127V17.6025H109.362V23.706ZM109.193 16.0288C109.193 16.3267 109.446 16.5627 109.755 16.5571C110.059 16.5627 110.312 16.3267 110.318 16.0288C110.312 15.7309 110.059 15.4949 109.755 15.4893C109.446 15.4949 109.193 15.7309 109.193 16.0288Z" fill="#4A5761"/>
<path d="M112.326 19.918C112.32 18.8614 113.007 18.2151 113.957 18.2207C114.88 18.2151 115.465 18.8333 115.465 19.8168V23.706H116.23V19.7606C116.23 18.305 115.397 17.5238 114.16 17.5238C113.26 17.5238 112.652 17.934 112.36 18.5691H112.292V17.6025H111.55V23.706H112.326V19.918Z" fill="#4A5761"/>
<path d="M118.238 23.7622C118.564 23.7678 118.834 23.4924 118.834 23.1665C118.834 22.8349 118.564 22.5651 118.238 22.5595C117.906 22.5651 117.631 22.8349 117.631 23.1665C117.631 23.4924 117.906 23.7678 118.238 23.7622Z" fill="#4A5761"/>
<g clip-path="url(#clip0_11926_9171)">
<path d="M22.424 16.586L25.7351 12.8132C25.9263 12.5929 26.0213 12.3185 26.0213 12.0441C26.0213 11.7318 25.8977 11.4182 25.6519 11.1911C25.1928 10.7694 24.4866 10.8059 24.0731 11.2763L20.9206 14.8693L19.8971 16.0359V8.63355C19.8971 8.31589 19.7722 8.02931 19.5706 7.82114C19.3678 7.61567 19.0881 7.48725 18.7786 7.48725C18.1622 7.48725 17.6602 8.00092 17.6602 8.63355V21.082C17.6602 21.3362 17.7408 21.5714 17.8773 21.7633C18.0802 22.0472 18.4067 22.2311 18.776 22.2311C19.3925 22.2311 19.8945 21.7174 19.8945 21.0847V17.1349L20.918 18.3014L23.9716 21.7809C24.3852 22.2513 25.0914 22.2905 25.5505 21.8661C26.0109 21.4443 26.0473 20.7171 25.6337 20.2466L22.4214 16.5887L22.424 16.586ZM43.6395 16.586L46.9507 12.8132C47.1418 12.5929 47.2368 12.3185 47.2368 12.0441C47.2368 11.7318 47.1145 11.4182 46.8687 11.1911C46.4096 10.7694 45.7035 10.8059 45.2899 11.2763L42.1374 14.8693L41.1139 16.0359V8.63355C41.1139 8.31589 40.989 8.02931 40.7875 7.82114C40.5846 7.61567 40.305 7.48725 39.9954 7.48725C39.379 7.48725 38.877 8.00092 38.877 8.63355V21.082C38.877 21.3362 38.9576 21.5714 39.0942 21.7633C39.2971 22.0472 39.6235 22.2311 39.9915 22.2311C40.608 22.2311 41.11 21.7174 41.11 21.0847V17.1349L42.1335 18.3014L45.1872 21.7809C45.6007 22.2513 46.3069 22.2905 46.766 21.8661C47.2264 21.4443 47.2628 20.7171 46.8492 20.2466L43.6369 16.5887L43.6395 16.586ZM55.3547 16.586L58.6658 12.8132C58.857 12.5929 58.9519 12.3185 58.9519 12.0441C58.9519 11.7318 58.8284 11.4182 58.5826 11.1911C58.1235 10.7694 57.4173 10.8059 57.0038 11.2763L53.8513 14.8693L52.8278 16.0359V8.63355C52.8278 8.31589 52.7029 8.02931 52.5013 7.82114C52.2984 7.61567 52.0188 7.48725 51.7093 7.48725C51.0928 7.48725 50.5908 8.00092 50.5908 8.63355V21.082C50.5908 21.3362 50.6715 21.5714 50.808 21.7633C51.0109 22.0472 51.3374 22.2311 51.7054 22.2311C52.3219 22.2311 52.8239 21.7174 52.8239 21.0847V17.1349L53.8474 18.3014L56.901 21.7809C57.3146 22.2513 58.0208 22.2905 58.4799 21.8661C58.9402 21.4443 58.9767 20.7171 58.5631 20.2466L55.3508 16.5887L55.3534 16.586H55.3547ZM76.5702 16.586L79.8814 12.8132C80.0725 12.5929 80.1675 12.3185 80.1675 12.0441C80.1675 11.7318 80.0452 11.4182 79.7981 11.1911C79.339 10.7694 78.6329 10.8059 78.2193 11.2763L75.0668 14.8693L74.0433 16.0359V8.63355C74.0433 8.31589 73.9184 8.02931 73.7169 7.82114C73.514 7.61567 73.2344 7.48725 72.9248 7.48725C72.3084 7.48725 71.8064 8.00092 71.8064 8.63355V21.082C71.8064 21.3362 71.887 21.5714 72.0236 21.7633C72.2264 22.0472 72.5529 22.2311 72.9222 22.2311C73.5387 22.2311 74.0394 21.7174 74.0394 21.0847V17.1349L75.0629 18.3014L78.1165 21.7809C78.5301 22.2513 79.2363 22.2905 79.6954 21.8661C80.1558 21.4443 80.1922 20.7171 79.7786 20.2466L76.5663 16.5887L76.5689 16.586H76.5702ZM70.6879 16.4955C70.6879 19.6613 68.1857 22.2297 65.0982 22.2297C62.0108 22.2297 59.5086 19.6627 59.5086 16.4955C59.5086 13.3283 62.0108 10.7612 65.0982 10.7612C68.1857 10.7612 70.6879 13.3283 70.6879 16.4955ZM68.4549 16.4955C68.4549 14.6003 66.9515 13.0552 65.1008 13.0552C63.2502 13.0552 61.7468 14.5989 61.7468 16.4955C61.7468 18.392 63.2502 19.9357 65.1008 19.9357C66.9515 19.9357 68.4549 18.3934 68.4549 16.4955ZM37.3398 18.6434L34.7803 21.2686C34.1821 21.885 33.3692 22.2284 32.5239 22.2284H31.7722C30.9269 22.2284 30.1127 21.8836 29.5158 21.2686L27.5234 19.2247C26.9251 18.6083 26.587 17.777 26.587 16.9064V14.5476C26.587 13.1904 27.6599 12.09 28.9839 12.09H30.4066L32.2313 10.2178C32.8412 9.59196 33.8361 9.53654 34.4721 10.1354C34.8167 10.4598 34.9897 10.9018 34.9897 11.3425C34.9897 11.6358 34.9143 11.9265 34.7621 12.186C34.9208 12.2631 35.069 12.3699 35.1991 12.5037C35.5112 12.8241 35.6673 13.2404 35.6673 13.6595C35.6673 13.7784 35.6556 13.8974 35.6296 14.0109C35.8663 14.0866 36.086 14.2218 36.272 14.4137C36.6713 14.8233 36.8156 15.3951 36.7025 15.9237C36.9366 15.9994 37.159 16.1346 37.345 16.3265C37.9692 16.9672 37.9692 18.0014 37.345 18.6421H37.3398V18.6434ZM36.6895 17.485C36.6895 17.3687 36.6466 17.2498 36.5672 17.1578C36.38 16.947 36.047 16.9591 35.8507 17.1578L35.8155 17.1943C35.7063 17.3052 35.5632 17.362 35.4202 17.3633C35.2784 17.3633 35.1341 17.3079 35.0261 17.1943C34.8089 16.9713 34.8089 16.6077 35.0261 16.3846L35.0833 16.3265L35.4787 15.9223C35.5736 15.825 35.6205 15.6993 35.6205 15.5736C35.6205 15.4478 35.571 15.3221 35.4787 15.2275C35.2914 15.0356 34.9923 15.0356 34.8024 15.2275L34.3485 15.6912C34.3485 15.6912 34.3433 15.6939 34.342 15.6966C34.2523 15.7858 34.1418 15.8372 34.026 15.852C34.0026 15.8547 33.9792 15.8588 33.9545 15.8588C33.9285 15.8588 33.9051 15.8534 33.8791 15.852C33.7581 15.8345 33.6424 15.7817 33.5526 15.6844C33.338 15.456 33.3614 15.0829 33.5786 14.8598L34.0117 14.4164L34.4045 14.0136C34.4968 13.9163 34.5436 13.7906 34.5436 13.6649C34.5436 13.4756 34.437 13.2837 34.2224 13.1971C34.052 13.1296 33.8582 13.1823 33.7282 13.3161L32.8802 14.1866C32.771 14.2988 32.6292 14.357 32.4849 14.357C32.3405 14.357 32.2105 14.3056 32.1038 14.2042C31.8697 13.9812 31.884 13.5878 32.109 13.358L32.9362 12.5091H32.9388L33.7256 11.6994C33.8205 11.6021 33.8673 11.4763 33.8673 11.3506C33.8673 11.2168 33.8127 11.0789 33.7022 10.9829C33.511 10.8086 33.2158 10.8356 33.0337 11.0221L29.8318 14.307C29.6146 14.53 29.2596 14.53 29.0424 14.307C28.9344 14.1961 28.8772 14.0474 28.8772 13.9028C28.8772 13.7581 28.9318 13.6094 29.0424 13.4986L29.2856 13.2512H28.82C28.2035 13.2512 27.7028 13.7649 27.7028 14.3975V16.9186C27.7028 17.4836 27.92 18.027 28.3102 18.4245L30.3026 20.4683C30.6928 20.8685 31.2195 21.0915 31.7696 21.0915H32.5239C33.074 21.0915 33.602 20.8685 33.9922 20.4683L36.5516 17.8432C36.6466 17.7459 36.6934 17.6202 36.6934 17.4944V17.4917L36.6895 17.485ZM36.1134 9.36622L36.9028 8.5565C37.12 8.33346 37.12 7.96983 36.9028 7.74679C36.6856 7.52375 36.3305 7.52375 36.1134 7.74679L35.3239 8.5565C35.1067 8.77955 35.1067 9.14317 35.3239 9.36622C35.5411 9.58926 35.8962 9.58926 36.1134 9.36622ZM33.3927 8.54163C33.7022 8.54163 33.9532 8.2848 33.9532 7.96983V6.82082C33.9532 6.50316 33.7022 6.24902 33.3927 6.24902C33.0831 6.24902 32.8321 6.50586 32.8321 6.82082V7.96713C32.8321 8.2848 33.0831 8.53893 33.3927 8.53893V8.54163ZM30.668 9.36081C30.8852 9.58385 31.2403 9.58385 31.4575 9.36081C31.6747 9.13777 31.6747 8.77414 31.4575 8.5511L30.668 7.74138C30.4509 7.51834 30.0958 7.51834 29.8786 7.74138C29.6614 7.96443 29.6614 8.32805 29.8786 8.5511L30.668 9.36081Z" fill="#181818"/>
<mask id="mask0_11926_9171" style="mask-type:luminance" maskUnits="userSpaceOnUse" x="0" y="5" width="14" height="20">
<path d="M13.1965 5.16797H0V24.5605H13.1965V5.16797Z" fill="white"/>
</mask>
<g mask="url(#mask0_11926_9171)">
<path d="M12.8061 18.0921C12.4784 17.4338 11.8515 17.1499 11.8515 17.1499C12.1572 15.0925 10.46 14.8006 10.46 14.8006C10.7526 13.438 9.53401 12.9243 9.53401 12.9243C10.2116 12.216 10.2116 11.0588 9.53401 10.3505C8.85643 9.64488 7.74318 9.64488 7.0656 10.3505L5.65453 11.8226L3.1315 11.9456C3.1146 11.9483 3.10029 11.9456 3.08338 11.9483C2.41231 12.0375 1.83618 12.3714 1.38229 12.8432C0.665702 13.5907 0.430306 14.7668 0.253435 15.7941C0.0856664 16.785 0.047951 17.5825 0.04535 17.6406C-0.171838 19.0546 0.449814 20.4469 1.38229 21.4188L3.02876 23.1342C4.82869 25.0105 7.7887 25.0335 9.59383 23.1505L12.4901 20.1319C13.1378 19.279 13.0428 18.7964 12.8048 18.0867V18.0908H12.8061V18.0921ZM11.4653 19.3222L8.63144 22.2772C7.3062 23.6574 5.14342 23.6452 3.81688 22.261L2.20553 20.5834C1.50714 19.8562 1.07537 18.8032 1.21453 17.9191C1.21713 17.8948 1.22103 17.8718 1.22103 17.8529C1.22103 17.8529 1.26264 17.0513 1.41871 16.1253C1.57217 15.2047 1.91551 14.172 2.20423 13.8705C2.50595 13.5556 2.80377 13.3879 3.21084 13.3325L4.3553 13.2393L2.99625 14.7019C2.99625 14.7019 2.69323 15.1763 3.03396 15.5319C3.3747 15.8874 3.81298 15.5508 3.81298 15.5508L7.76269 11.4333C7.98898 11.1981 8.33622 11.1562 8.56771 11.4008C8.79271 11.6374 8.79271 12.0362 8.56771 12.2714L6.22676 14.71C6.22676 14.71 5.94195 15.0844 6.29959 15.4589C6.29959 15.4589 6.65724 15.8914 7.03179 15.5508L8.23998 14.2923C8.45197 14.0868 8.7836 14.1111 8.97348 14.3112C9.20887 14.5599 9.20757 14.9357 9.04111 15.1277L7.83292 16.3862C7.83292 16.3862 7.48828 16.7174 7.87583 17.1215C8.26469 17.5271 8.5274 17.4189 8.67696 17.2662L9.68357 16.2172C9.85394 16.0158 10.2025 15.9928 10.3872 16.1875C10.6343 16.447 10.5393 16.7795 10.3807 16.9445L9.37404 17.9934C9.37404 17.9934 9.10743 18.3449 9.48849 18.7396C9.48849 18.7396 9.82793 19.1654 10.2116 18.8667L10.6147 18.4476C10.841 18.2124 11.3105 18.1516 11.5056 18.3571C11.7267 18.5896 11.689 19.0951 11.4614 19.3303V19.3249L11.4653 19.3222Z" fill="#181818"/>
<path d="M4.63081 9.21483C4.92343 9.52979 5.39942 9.52979 5.69334 9.21483C5.98726 8.89987 5.98986 8.38754 5.69594 8.07123L4.64381 6.92763C4.35119 6.61267 3.8752 6.61267 3.58128 6.92763C3.28606 7.24259 3.28606 7.75491 3.57738 8.07123L4.62951 9.21483H4.63081Z" fill="#181818"/>
<path d="M8.378 8.44167C8.79677 8.44167 9.13621 8.08615 9.1336 7.64953L9.1245 5.97198C9.1219 5.534 8.77986 5.17848 8.36109 5.17578C7.94102 5.17578 7.60288 5.52995 7.60548 5.96927L7.61459 7.64682C7.61589 8.0848 7.95923 8.44032 8.3767 8.44302L8.378 8.44167Z" fill="#181818"/>
<path d="M11.9026 6.94123L10.8427 8.06725C10.5488 8.37951 10.5501 8.88373 10.8453 9.19599C11.1405 9.50825 11.6204 9.50825 11.9143 9.19599L12.9742 8.06996C13.2682 7.7577 13.2669 7.25349 12.9716 6.94123C12.6751 6.62897 12.1965 6.62897 11.9026 6.94123Z" fill="#181818"/>
</g>
</g>
<defs>
<clipPath id="clip0_11926_9171">
<rect width="80.1672" height="21.3161" fill="white" transform="translate(0 3.24414)"/>
</clipPath>
</defs>
</svg>
