<svg width="154" height="36" viewBox="0 0 154 36" fill="none" xmlns="http://www.w3.org/2000/svg">
<path d="M105.491 0C111.499 0 116.371 4.88161 116.371 10.9036C116.371 16.9256 111.499 21.8073 105.491 21.8073H103.63L116.368 35.9924H104.797L92.0582 21.8073H89.1995V35.9924H80.4866V16.5904L88.3284 8.7295H80.4866V0H105.491ZM107.658 10.9036C107.658 9.70481 106.688 8.73458 105.493 8.73458H89.1995V13.0752H105.493C106.688 13.0752 107.658 12.105 107.658 10.9062V10.9036ZM27.1716 0V13.6264H8.71789V0H0V35.9975H8.71789V22.3711H19.3272L27.1716 14.5026V36H35.8844V0H27.1716ZM76.129 8.74474V0H40.2446V8.74474H48.0864L40.2446 16.6107V36H76.129V27.2553H48.9574V22.3711H76.129V13.6264H48.9574V8.7422H76.129V8.74474ZM136.058 35.9975C126.15 35.9975 118.116 27.941 118.116 18C118.116 8.05898 126.147 0.00253986 136.058 0.00253986C145.968 0.00253986 154 8.05898 154 18C154 27.941 145.968 35.9975 136.058 35.9975ZM141.608 1.71695L123.002 20.3798L133.951 24.1388L130.487 34.2831L150.946 13.761L138.909 9.62354L141.611 1.71695H141.608Z" fill="#FF6928"/>
</svg>
