<svg width="24" height="24" viewBox="0 0 24 24" fill="none" xmlns="http://www.w3.org/2000/svg">
<path d="M20.1123 11.1016C21.9979 9.21598 22.0871 6.22195 20.4053 4.22168C20.3926 4.20894 20.3926 4.1962 20.3926 4.1962C20.3416 4.14524 20.3034 4.09428 20.2524 4.04331C20.2269 4.01783 20.2015 3.99235 20.176 3.96687C20.1632 3.94139 20.1377 3.91591 20.1123 3.89043C20.0995 3.87769 20.074 3.85221 20.074 3.85221C20.0613 3.83947 20.0358 3.81398 20.0358 3.81398C20.0103 3.80124 19.9976 3.7885 19.9721 3.76302C19.9466 3.75028 19.9339 3.7248 19.9084 3.71206C17.9081 1.9029 14.8122 1.9666 12.8884 3.89043L11.7799 4.99886C11.2066 5.57218 11.5124 6.52772 12.3023 6.68061C12.315 6.68061 12.3278 6.68061 12.3278 6.68061C12.659 6.74431 13.003 6.65513 13.2451 6.41306L14.2643 5.39381C15.2071 4.46375 16.6214 4.20894 17.7807 4.7313C17.8062 4.74405 17.8317 4.75679 17.8572 4.76953C17.9082 4.79501 17.9719 4.83323 18.0228 4.85871C18.061 4.88419 18.0993 4.90967 18.1375 4.93515C18.1884 4.96063 18.2267 4.98612 18.2649 5.0116C18.3031 5.04982 18.3413 5.0753 18.3796 5.10078C18.4305 5.139 18.4687 5.16448 18.507 5.20271C18.5324 5.22819 18.5707 5.26641 18.5961 5.29189C18.6344 5.33011 18.6853 5.38107 18.7235 5.4193C18.7618 5.44478 18.7873 5.47026 18.8127 5.50848C18.851 5.5467 18.8764 5.59766 18.9147 5.63588C18.9401 5.67411 18.9784 5.71233 19.0038 5.75055C19.0293 5.78877 19.0548 5.82699 19.0803 5.86522C19.1058 5.91618 19.144 5.96714 19.1695 6.0181C19.1822 6.03084 19.1949 6.05632 19.1949 6.06906C19.8065 7.25394 19.5644 8.74458 18.5961 9.71286L15.118 13.191C13.9841 14.3377 12.1367 14.4778 10.9136 13.4459C10.697 13.2675 10.5186 13.0636 10.3657 12.847C10.009 12.3119 9.27005 12.2228 8.82413 12.6942H8.81139C8.48013 13.0254 8.41643 13.5478 8.67124 13.9427C8.84961 14.2103 9.05346 14.4651 9.29553 14.7072C11.2958 16.6947 14.5192 16.6947 16.5067 14.7072L20.1123 11.1016ZM3.6005 19.7779C3.6005 19.7779 3.6005 19.7907 3.61324 19.8034C3.6642 19.8544 3.70242 19.9053 3.75338 19.9563C3.77886 19.9818 3.80434 20.0072 3.82983 20.0327C3.85531 20.0582 3.86805 20.0837 3.89353 20.1092C3.89353 20.1092 3.91901 20.1346 3.93175 20.1474C3.93175 20.1474 3.95723 20.1729 3.96997 20.1856C3.99545 20.2111 4.00819 20.2238 4.03367 20.2366C4.05916 20.2493 4.0719 20.2748 4.09738 20.2875C6.09765 22.0967 9.18086 22.033 11.1174 20.1092L12.2259 19.0007C12.7864 18.4402 12.4807 17.4846 11.7035 17.319C11.7035 17.319 11.6908 17.319 11.678 17.319C11.3468 17.2553 11.0028 17.3445 10.7607 17.5865L9.74145 18.6058C8.79865 19.5486 7.38444 19.8034 6.22505 19.2683C6.19957 19.2683 6.17409 19.2428 6.14861 19.2301C6.09765 19.2046 6.03394 19.1791 5.98298 19.1409C5.94476 19.1154 5.90654 19.0899 5.86832 19.0644C5.83009 19.039 5.77913 19.0135 5.74091 18.988C5.70269 18.9625 5.66447 18.937 5.62625 18.8988C5.58802 18.8606 5.5498 18.8351 5.49884 18.7969C5.46062 18.7714 5.43514 18.7459 5.40966 18.7077C5.35869 18.6695 5.32047 18.6185 5.28225 18.5803C5.25677 18.5548 5.21855 18.5166 5.19307 18.4911C5.15484 18.4529 5.11662 18.4019 5.09114 18.3637C5.06566 18.3255 5.02744 18.2873 5.00196 18.249C4.97648 18.2108 4.951 18.1726 4.92551 18.1344C4.88729 18.0834 4.86181 18.0325 4.83633 17.9815C4.83633 17.9688 4.82359 17.9433 4.81085 17.9305C4.1993 16.7584 4.42863 15.2678 5.40966 14.2867L8.88783 10.8086C10.0217 9.67464 11.8564 9.52176 13.0922 10.5537C13.3088 10.7321 13.4872 10.936 13.6401 11.1525C13.9968 11.6749 14.7357 11.7641 15.1817 11.3182H15.1944C15.5257 10.9614 15.5894 10.4391 15.3346 10.0441C15.1562 9.77657 14.9523 9.52176 14.7103 9.27969C12.7227 7.29216 9.49938 7.29216 7.49911 9.27969L3.89353 12.8853C2.00792 14.7709 1.906 17.7649 3.6005 19.7652V19.7779Z" fill="#313131"/>
</svg>
