<svg width="187" height="60" viewBox="0 0 187 60" fill="none" xmlns="http://www.w3.org/2000/svg">
<path d="M29.3075 15.7996C21.4149 15.7996 14.9965 22.0178 14.8577 29.7459C14.7189 37.5023 21.0607 44.0169 28.9533 44.2003C33.3041 44.3038 37.2288 42.5164 39.9426 39.6189C40.1963 39.3508 40.1676 38.9275 39.8804 38.6923L36.6736 36.0441C36.5396 35.9313 36.3386 35.9501 36.2189 36.0818C34.424 38.0526 31.7677 39.2521 28.8337 39.1062C24.0426 38.8711 20.1801 34.9858 20.0413 30.2727C19.8881 25.1128 24.1 20.8889 29.3123 20.8889C32.0548 20.8889 34.5246 22.0601 36.2189 23.9228C36.3386 24.0545 36.5396 24.0686 36.6736 23.9604L39.8804 21.3123C40.1628 21.0771 40.1963 20.6585 39.9426 20.3903C37.3006 17.5681 33.5146 15.8043 29.3075 15.8043V15.7996Z" fill="#FF6928"/>
<path d="M29.3075 8.49976C17.1216 8.49976 7.26183 18.2928 7.42935 30.306C7.59687 42.0698 17.5093 51.5948 29.4846 51.5007C35.903 51.449 41.6657 48.6832 45.6383 44.3088C45.8824 44.036 45.8584 43.6221 45.576 43.3869L42.3597 40.7387C42.2257 40.6258 42.0246 40.6446 41.905 40.7763C38.7269 44.3605 33.9932 46.5807 28.7331 46.4066C19.9407 46.115 12.8235 39.0454 12.6129 30.4047C12.3879 21.1573 19.9503 13.5891 29.3075 13.5891C34.3378 13.5891 38.8417 15.7763 41.905 19.2288C42.0198 19.3605 42.2209 19.3793 42.3597 19.2665L45.576 16.6183C45.8584 16.3831 45.8872 15.9692 45.6383 15.6964C41.6321 11.2843 35.8025 8.50446 29.3075 8.50446V8.49976Z" fill="#FF6928"/>
<path d="M29.3407 53.7114C29.3407 53.7114 29.3167 53.7114 29.3072 53.7114C15.9822 53.7114 5.17951 43.0952 5.17951 30.0002C5.17951 16.9052 15.9822 6.28903 29.3072 6.28903C29.3072 6.28903 29.3311 6.28903 29.3407 6.28903C36.6398 6.29844 43.1778 9.49223 47.5956 14.5346C47.7104 14.6663 47.9162 14.6851 48.0503 14.5722L51.2666 11.9193C51.5443 11.6888 51.5825 11.2796 51.3432 11.0115C46.0879 5.12252 38.425 1.35959 29.8672 1.20437C13.6129 0.912741 0.115617 13.8243 0.000746203 29.7933C-0.114125 45.7952 13.0482 58.8008 29.3072 58.8008C38.09 58.8008 45.9682 55.0049 51.3384 48.9889C51.5778 48.7208 51.5395 48.3116 51.2619 48.0811L48.0455 45.4283C47.9067 45.3154 47.7057 45.3342 47.5908 45.4659C43.173 50.5082 36.635 53.702 29.3359 53.7114H29.3407Z" fill="#FF6928"/>
<path d="M5.17969 30.0001C5.17969 16.9239 16.0015 6.28894 29.3074 6.28894C15.9823 6.28894 5.17969 16.9051 5.17969 30.0001C5.17969 43.0952 15.9823 53.7113 29.3074 53.7113C16.0015 53.7113 5.17969 43.0763 5.17969 30.0001Z" fill="#FF6928"/>
<path d="M70.057 20.0564L76.7625 12.7375C77.1502 12.3095 77.3417 11.778 77.3417 11.2465C77.3417 10.6397 77.0928 10.0329 76.595 9.59078C75.6665 8.77234 74.2354 8.8429 73.3978 9.75541L67.0129 16.7262L64.9404 18.9887V4.62841C64.9404 4.01223 64.6867 3.4572 64.2799 3.05268C63.8683 2.65287 63.3035 2.40357 62.6765 2.40357C61.4273 2.40357 60.4126 3.40075 60.4126 4.62841V28.7817C60.4126 29.2756 60.5753 29.7319 60.8529 30.1035C61.2646 30.6538 61.9251 31.0113 62.6717 31.0113C63.9209 31.0113 64.9356 30.0141 64.9356 28.7865V21.1242L67.0081 23.3866L73.192 30.1364C74.0296 31.0489 75.4607 31.1242 76.3892 30.301C77.3225 29.4826 77.3943 28.0715 76.5567 27.159L70.0522 20.0611L70.057 20.0564ZM113.023 20.0564L119.729 12.7375C120.117 12.3095 120.308 11.778 120.308 11.2465C120.308 10.6397 120.059 10.0329 119.562 9.59078C118.633 8.77234 117.202 8.8429 116.364 9.75541L109.979 16.7262L107.907 18.9887V4.62841C107.907 4.01223 107.653 3.4572 107.246 3.05268C106.835 2.65287 106.27 2.40357 105.643 2.40357C104.394 2.40357 103.379 3.40075 103.379 4.62841V28.7817C103.379 29.2756 103.542 29.7319 103.819 30.1035C104.231 30.6538 104.892 31.0113 105.638 31.0113C106.887 31.0113 107.902 30.0141 107.902 28.7865V21.1242L109.975 23.3866L116.158 30.1364C116.996 31.0489 118.427 31.1242 119.356 30.301C120.289 29.4826 120.361 28.0715 119.523 27.159L113.019 20.0611L113.023 20.0564ZM136.749 20.0564L143.455 12.7375C143.842 12.3095 144.034 11.778 144.034 11.2465C144.034 10.6397 143.785 10.0329 143.287 9.59078C142.359 8.77234 140.927 8.8429 140.09 9.75541L133.705 16.7262L131.633 18.9887V4.62841C131.633 4.01223 131.379 3.4572 130.972 3.05268C130.56 2.65287 129.996 2.40357 129.369 2.40357C128.119 2.40357 127.105 3.40075 127.105 4.62841V28.7817C127.105 29.2756 127.267 29.7319 127.545 30.1035C127.957 30.6538 128.617 31.0113 129.364 31.0113C130.613 31.0113 131.628 30.0141 131.628 28.7865V21.1242L133.7 23.3866L139.884 30.1364C140.722 31.0489 142.153 31.1242 143.081 30.301C144.015 29.4826 144.086 28.0715 143.249 27.159L136.744 20.0611L136.749 20.0564ZM179.716 20.0564L186.421 12.7375C186.809 12.3095 187 11.778 187 11.2465C187 10.6397 186.751 10.0329 186.254 9.59078C185.325 8.77234 183.894 8.8429 183.056 9.75541L176.671 16.7262L174.599 18.9887V4.62841C174.599 4.01223 174.345 3.4572 173.938 3.05268C173.527 2.65287 172.962 2.40357 172.335 2.40357C171.086 2.40357 170.071 3.40075 170.071 4.62841V28.7817C170.071 29.2756 170.234 29.7319 170.511 30.1035C170.923 30.6538 171.584 31.0113 172.33 31.0113C173.58 31.0113 174.594 30.0141 174.594 28.7865V21.1242L176.667 23.3866L182.851 30.1364C183.688 31.0489 185.119 31.1242 186.048 30.301C186.981 29.4826 187.053 28.0715 186.215 27.159L179.711 20.0611L179.716 20.0564ZM167.802 19.8824C167.802 26.0254 162.734 31.0066 156.483 31.0066C150.232 31.0066 145.163 26.0254 145.163 19.8824C145.163 13.7394 150.232 8.75823 156.483 8.75823C162.734 8.75823 167.802 13.7394 167.802 19.8824ZM163.279 19.8824C163.279 16.2041 160.235 13.2079 156.488 13.2079C152.74 13.2079 149.696 16.2041 149.696 19.8824C149.696 23.5607 152.74 26.5569 156.488 26.5569C160.235 26.5569 163.279 23.5654 163.279 19.8824ZM100.263 24.0499L95.0797 29.1439C93.8687 30.3387 92.2222 31.0066 90.5088 31.0066H88.9867C87.2732 31.0066 85.6267 30.3387 84.4158 29.1439L80.381 25.1787C79.17 23.984 78.4856 22.3706 78.4856 20.682V16.1054C78.4856 13.4713 80.6586 11.3358 83.3389 11.3358H86.2202L89.9153 7.70461C91.1501 6.49106 93.1651 6.38288 94.4527 7.54469C95.1515 8.17498 95.5009 9.03104 95.5009 9.88711C95.5009 10.4563 95.3477 11.0207 95.0414 11.524C95.362 11.6745 95.6636 11.8815 95.9268 12.1402C96.5586 12.7611 96.8745 13.5701 96.8745 14.3838C96.8745 14.6143 96.8506 14.8448 96.7979 15.0659C97.2766 15.2117 97.7217 15.4751 98.0998 15.8467C98.9087 16.6416 99.2006 17.7516 98.9709 18.777C99.4448 18.9229 99.8947 19.1863 100.273 19.5579C101.536 20.7996 101.536 22.8081 100.273 24.0499H100.263ZM98.947 21.8015C98.947 21.5757 98.8608 21.3452 98.6981 21.1665C98.32 20.7573 97.6451 20.7808 97.2478 21.1665L97.1761 21.2371C96.9559 21.4534 96.6639 21.5616 96.3767 21.5663C96.0896 21.5663 95.7976 21.4581 95.5774 21.2371C95.1371 20.8043 95.1371 20.0988 95.5774 19.666L95.6923 19.5532L96.4916 18.7676C96.6831 18.5795 96.7788 18.3349 96.7788 18.0903C96.7788 17.8504 96.6783 17.6011 96.4916 17.4177C96.1135 17.0461 95.5056 17.0461 95.1227 17.4177L94.2038 18.3161C94.2038 18.3161 94.1942 18.3208 94.1894 18.3255C94.0075 18.4995 93.7826 18.5983 93.548 18.6265C93.5002 18.6312 93.4523 18.6406 93.4045 18.6406C93.3518 18.6406 93.3039 18.6312 93.2513 18.6265C93.0072 18.5936 92.7727 18.4901 92.5908 18.302C92.1552 17.8598 92.2031 17.1355 92.6434 16.7027L93.5193 15.842L94.3138 15.0611C94.5005 14.873 94.5962 14.6284 94.5962 14.3838C94.5962 14.0169 94.3809 13.6453 93.9453 13.476C93.6007 13.3443 93.2082 13.4478 92.945 13.7065L91.2267 15.3951C91.0065 15.6115 90.7194 15.7244 90.4274 15.7244C90.1498 15.7244 89.8722 15.6256 89.6568 15.428C89.183 14.9953 89.2117 14.2333 89.6664 13.7865L91.3416 12.1402C91.3416 12.1402 91.3416 12.1402 91.3464 12.1402L92.9402 10.5691C93.1316 10.381 93.2274 10.1364 93.2274 9.89182C93.2274 9.63311 93.1173 9.365 92.8923 9.17686C92.5046 8.83819 91.9063 8.88993 91.5378 9.25212L85.0524 15.6256C84.6121 16.0583 83.8941 16.0583 83.4538 15.6256C83.2336 15.4092 83.1187 15.1223 83.1187 14.8401C83.1187 14.5579 83.2288 14.2709 83.4538 14.0546L83.9468 13.5748H83.0039C81.7546 13.5748 80.7399 14.572 80.7399 15.7996V20.6914C80.7399 21.7874 81.1803 22.841 81.97 23.6124L86.0049 27.5776C86.7946 28.3537 87.8619 28.7865 88.9771 28.7865H90.504C91.6192 28.7865 92.6865 28.3537 93.4762 27.5776L98.6598 22.4835C98.8512 22.2954 98.947 22.0508 98.947 21.8062V21.8015ZM97.7791 6.04892L99.3777 4.47789C99.8181 4.04516 99.8181 3.3396 99.3777 2.90687C98.9374 2.47413 98.2195 2.47413 97.7791 2.90687L96.1805 4.47789C95.7402 4.91063 95.7402 5.61618 96.1805 6.04892C96.6208 6.48166 97.3388 6.48166 97.7791 6.04892ZM92.2701 4.44967C92.8971 4.44967 93.4045 3.95108 93.4045 3.3396V1.11007C93.4045 0.493885 92.8971 0 92.2701 0C91.6431 0 91.1358 0.498589 91.1358 1.11007V3.3349C91.1358 3.95108 91.6431 4.44497 92.2701 4.44497V4.44967ZM86.7515 6.03951C87.1919 6.47225 87.9098 6.47225 88.3501 6.03951C88.7905 5.60677 88.7905 4.90122 88.3501 4.46849L86.7515 2.89746C86.3112 2.46472 85.5932 2.46472 85.1529 2.89746C84.7126 3.3302 84.7126 4.03575 85.1529 4.46849L86.7515 6.03951ZM121.768 45.1834C121.768 41.0771 118.384 37.7516 114.206 37.7516H105.921C104.671 37.7516 103.657 38.7488 103.657 39.9765V57.7752C103.657 59.0028 104.671 60 105.921 60C107.17 60 108.185 59.0028 108.185 57.7752V52.6152H113.861L117.546 58.8852C118.173 59.9483 119.557 60.3151 120.638 59.699C121.72 59.0828 122.093 57.7234 121.466 56.6604L118.37 51.3876C120.418 50.0564 121.773 47.7752 121.773 45.1834H121.768ZM108.185 42.2013H114.206C115.881 42.2013 117.24 43.5372 117.24 45.1834C117.24 46.8297 115.881 48.1656 114.206 48.1656H108.185V42.2013ZM101.278 57.0555L95.7449 40.3151C95.2328 38.7676 93.7634 37.7187 92.1074 37.7187C90.4513 37.7187 88.9819 38.7676 88.4698 40.3151L82.9416 57.032C82.4726 58.4572 83.5399 59.9247 85.0667 59.9436C86.0575 59.9577 86.943 59.3321 87.2493 58.4055L89.1638 52.6152H95.0462L96.9655 58.429C97.267 59.3462 98.1381 59.9671 99.1193 59.9671C100.656 59.9671 101.747 58.4901 101.273 57.0555H101.278ZM90.638 48.1656L92.1074 43.7159L93.5768 48.1656H90.6332H90.638ZM76.6333 53.4572C77.3656 52.7046 78.5143 52.5118 79.4333 53.0339C80.6969 53.7488 80.9553 55.4421 79.955 56.4817C77.8921 58.6265 74.9725 59.9624 71.7322 59.9624C65.3329 59.9624 60.1733 54.746 60.4222 48.4008C60.6423 42.7469 65.242 38.0997 70.9855 37.7375C74.3694 37.5259 77.4566 38.7723 79.6582 40.8984C80.7304 41.9332 80.5102 43.683 79.2083 44.4215C78.3324 44.92 77.222 44.7883 76.4993 44.0922C75.2214 42.8551 73.4504 42.1072 71.5072 42.1684C68.0419 42.2766 65.1702 45.0094 64.9548 48.4102C64.7059 52.286 67.8409 55.5174 71.7322 55.5174C73.6562 55.5174 75.3985 54.7272 76.6333 53.4572Z" fill="#1E1B1C"/>
</svg>
