<svg width="24" height="24" viewBox="0 0 24 24" fill="none" xmlns="http://www.w3.org/2000/svg">
<path d="M20.2116 11.4247H5.84255L12.4963 4.70473C12.5699 4.62542 12.6278 4.53183 12.6666 4.42928C12.7053 4.32672 12.7242 4.21722 12.7222 4.10708C12.7201 3.99693 12.6972 3.8883 12.6546 3.78738C12.6121 3.68645 12.5508 3.59524 12.4742 3.51894C12.3154 3.35841 12.1025 3.26855 11.8808 3.26855C11.6591 3.26855 11.4462 3.35841 11.2874 3.51894L3.24937 11.6353L3.22626 11.6593C3.07753 11.8196 2.9962 12.0347 3.00014 12.2573C3.00408 12.4798 3.09296 12.6916 3.24727 12.8462L11.2885 20.9669C11.4477 21.1249 11.6595 21.2131 11.8798 21.2131C12.1 21.2131 12.3118 21.1249 12.471 20.9669L12.4942 20.9418C12.568 20.8625 12.6261 20.7688 12.6651 20.6661C12.7041 20.5635 12.7232 20.4539 12.7213 20.3435C12.7195 20.2332 12.6967 20.1244 12.6543 20.0232C12.6119 19.922 12.5507 19.8305 12.4742 19.7538L5.84149 13.0567H20.2116C20.4207 13.0567 20.6212 12.9705 20.7691 12.8171C20.9169 12.6637 21 12.4556 21 12.2386C21 12.0216 20.9169 11.8134 20.7691 11.66C20.6212 11.5066 20.4207 11.4204 20.2116 11.4204V11.4247Z" fill="#313131"/>
</svg>
