<svg width="24" height="24" viewBox="0 0 24 24" fill="none" xmlns="http://www.w3.org/2000/svg">
<g clip-path="url(#clip0_208_12832)">
<path d="M19.92 11.62C19.92 11.62 19.92 11.6 19.91 11.59C19.86 11.49 19.8 11.39 19.71 11.31L16.71 8.31C16.32 7.92 15.69 7.92 15.3 8.31C14.91 8.7 14.91 9.33 15.3 9.72L16.59 11.01H12C11.45 11.01 11 11.46 11 12.01C11 12.56 11.45 13.01 12 13.01H16.59L15.3 14.3C14.91 14.69 14.91 15.32 15.3 15.71C15.5 15.91 15.75 16 16.01 16C16.27 16 16.52 15.9 16.72 15.71L19.72 12.71C19.82 12.61 19.89 12.5 19.94 12.39C19.99 12.28 20.01 12.15 20.02 12.03V12C20.02 11.87 19.99 11.75 19.95 11.64L19.92 11.62Z" fill="#171717"/>
<path d="M17 2H7C5.35 2 4 3.35 4 5V19C4 20.65 5.35 22 7 22H17C18.65 22 20 20.65 20 19V18C20 17.45 19.55 17 19 17C18.45 17 18 17.45 18 18V19C18 19.55 17.55 20 17 20H7C6.45 20 6 19.55 6 19V5C6 4.45 6.45 4 7 4H17C17.55 4 18 4.45 18 5V6C18 6.55 18.45 7 19 7C19.55 7 20 6.55 20 6V5C20 3.35 18.65 2 17 2Z" fill="#171717"/>
</g>
<defs>
<clipPath id="clip0_208_12832">
<rect width="24" height="24" fill="white"/>
</clipPath>
</defs>
</svg>
