<svg width="24" height="24" viewBox="0 0 24 24" fill="none" xmlns="http://www.w3.org/2000/svg">
<path fill-rule="evenodd" clip-rule="evenodd" d="M10.1682 18.6918L3.18036 11.9384C2.93988 11.6918 2.93988 11.3082 3.18036 11.0753L10.1682 4.30822C10.5785 3.89726 11.2574 3.89726 11.6818 4.30822C12.1062 4.70548 12.1062 5.36301 11.6818 5.77397L5.76898 11.5L11.6818 17.226C12.1062 17.6233 12.1062 18.2808 11.6818 18.6918C11.2716 19.1027 10.5926 19.1027 10.1682 18.6918ZM19.1681 18.6918L12.1802 11.9384C11.9397 11.6918 11.9397 11.3082 12.1802 11.0753L19.1681 4.30822C19.5783 3.89726 20.2573 3.89726 20.6817 4.30822C21.106 4.70548 21.106 5.36301 20.6817 5.77397L14.7688 11.5L20.6817 17.226C21.106 17.6233 21.106 18.2808 20.6817 18.6918C20.2714 19.1027 19.5925 19.1027 19.1681 18.6918Z" fill="#313131"/>
</svg>
