<svg width="200" height="60" viewBox="0 0 200 60" fill="none" xmlns="http://www.w3.org/2000/svg">
<path d="M8.78566 2.3054L4.93766 0.0850797C4.52069 -0.156214 4 0.144345 4 0.626932V48.7079C4 49.1545 4.23918 49.5672 4.6244 49.7916L8.78354 52.1939V2.3054H8.78566Z" fill="#FF6928"/>
<path d="M18.1475 57.5976L22.3067 60V10.1136L18.4587 7.89326C18.0417 7.65197 17.521 7.95253 17.521 8.43511V56.5161C17.521 56.9627 17.7602 57.3754 18.1454 57.5998L18.1475 57.5976Z" fill="#FF6928"/>
<path d="M10.7609 4.52997V52.6109C10.7609 53.0575 11.0001 53.4703 11.3853 53.6946L15.5444 56.097V6.21056L11.6964 3.99023C11.2795 3.74894 10.7588 4.0495 10.7588 4.53208L10.7609 4.52997Z" fill="#FF6928"/>
<path d="M25.2194 43.3867L31.6327 39.6848C32.0497 39.4435 32.0497 38.8423 31.6327 38.6011L28.098 36.5606C27.9054 36.4485 27.6662 36.4485 27.4736 36.5606L24.595 38.2222C24.4024 38.3344 24.2817 38.5397 24.2817 38.764V42.8449C24.2817 43.3253 24.8024 43.6259 25.2194 43.3867Z" fill="#FF6928"/>
<path d="M24.2817 54.3783V58.4591C24.2817 58.9396 24.8024 59.2401 25.2194 59.001L45.1536 47.4929C45.5706 47.2516 45.5706 46.6505 45.1536 46.4092L41.6189 44.3688C41.4263 44.2566 41.1871 44.2566 40.9945 44.3688L24.595 53.8364C24.4024 53.9486 24.2817 54.1539 24.2817 54.3783Z" fill="#FF6928"/>
<path d="M25.2194 51.1949L38.3932 43.5899C38.8102 43.3486 38.8102 42.7475 38.3932 42.5062L34.8584 40.4658C34.6658 40.3536 34.4267 40.3536 34.234 40.4658L24.595 46.0304C24.4024 46.1425 24.2817 46.3479 24.2817 46.5722V50.653C24.2817 51.1335 24.8024 51.4341 25.2194 51.1949Z" fill="#FF6928"/>
<path d="M62.8146 19.4796L69.0353 12.5731C69.3951 12.1709 69.5729 11.6693 69.5729 11.1677C69.5729 10.5941 69.3401 10.0205 68.8787 9.6056C68.0172 8.83092 66.6901 8.90077 65.9133 9.76223L59.9889 16.3407L58.067 18.4763V4.9173C58.067 4.33735 57.8321 3.81243 57.4532 3.43144C57.0722 3.05257 56.5473 2.81763 55.9674 2.81763C54.8075 2.81763 53.8677 3.7574 53.8677 4.9173V27.7153C53.8677 28.181 54.0201 28.6128 54.2783 28.962C54.6593 29.4806 55.2731 29.8171 55.9674 29.8171C57.1273 29.8171 58.067 28.8752 58.067 27.7153V20.4829L59.9889 22.6185L65.7249 28.9895C66.5017 29.851 67.8288 29.9208 68.6903 29.144C69.5539 28.3694 69.6216 27.0401 68.8469 26.1787L62.8146 19.4796ZM102.668 19.4796L108.889 12.5731C109.249 12.1709 109.427 11.6693 109.427 11.1677C109.427 10.5941 109.194 10.0205 108.732 9.6056C107.871 8.83092 106.544 8.90077 105.767 9.76223L99.8426 16.3407L97.9207 18.4763V4.9173C97.9207 4.33735 97.6858 3.81243 97.3069 3.43144C96.9259 3.05257 96.401 2.81763 95.821 2.81763C94.6611 2.81763 93.7214 3.7574 93.7214 4.9173V27.7153C93.7214 28.181 93.8737 28.6128 94.132 28.962C94.513 29.4806 95.1268 29.8171 95.821 29.8171C96.9809 29.8171 97.9207 28.8752 97.9207 27.7153V20.4829L99.8426 22.6185L105.579 28.9895C106.355 29.851 107.683 29.9208 108.544 29.144C109.408 28.3694 109.475 27.0401 108.701 26.1787L102.668 19.4796ZM124.673 19.4796L130.893 12.5731C131.253 12.1709 131.431 11.6693 131.431 11.1677C131.431 10.5941 131.198 10.0205 130.737 9.6056C129.875 8.83092 128.548 8.90077 127.771 9.76223L121.847 16.3407L119.925 18.4763V4.9173C119.925 4.33735 119.69 3.81243 119.311 3.43144C118.93 3.05257 118.405 2.81763 117.825 2.81763C116.665 2.81763 115.726 3.7574 115.726 4.9173V27.7153C115.726 28.181 115.878 28.6128 116.136 28.962C116.517 29.4806 117.131 29.8171 117.825 29.8171C118.985 29.8171 119.925 28.8752 119.925 27.7153V20.4829L121.847 22.6185L127.583 28.9895C128.36 29.851 129.687 29.9208 130.548 29.144C131.412 28.3694 131.48 27.0401 130.705 26.1787L124.673 19.4796ZM164.526 19.4796L170.747 12.5731C171.107 12.1709 171.285 11.6693 171.285 11.1677C171.285 10.5941 171.052 10.0205 170.59 9.6056C169.729 8.83092 168.402 8.90077 167.625 9.76223L161.701 16.3407L159.779 18.4763V4.9173C159.779 4.33735 159.544 3.81243 159.165 3.43144C158.784 3.05257 158.259 2.81763 157.679 2.81763C156.519 2.81763 155.579 3.7574 155.579 4.9173V27.7153C155.579 28.181 155.732 28.6128 155.99 28.962C156.371 29.4806 156.985 29.8171 157.679 29.8171C158.839 29.8171 159.779 28.8752 159.779 27.7153V20.4829L161.701 22.6185L167.437 28.9895C168.213 29.851 169.54 29.9208 170.402 29.144C171.266 28.3694 171.333 27.0401 170.559 26.1787L164.526 19.4796ZM153.48 19.3187C153.48 25.1161 148.779 29.8171 142.981 29.8171C137.184 29.8171 132.481 25.1161 132.481 19.3187C132.481 13.5213 137.182 8.81822 142.981 8.81822C148.781 8.81822 153.48 13.5192 153.48 19.3187ZM149.28 19.3187C149.28 15.8454 146.455 13.0176 142.981 13.0176C139.508 13.0176 136.68 15.8454 136.68 19.3187C136.68 22.7921 139.506 25.6178 142.981 25.6178C146.457 25.6178 149.28 22.7921 149.28 19.3187ZM90.8279 23.2514L86.019 28.0603C84.8951 29.1864 83.369 29.8171 81.7773 29.8171H80.3634C78.7738 29.8171 77.2478 29.1864 76.1217 28.0603L72.3774 24.3182C71.2535 23.1921 70.6207 21.666 70.6207 20.0744V15.7565C70.6207 13.2716 72.6357 11.2566 75.1206 11.2566H77.7939L81.2228 7.82765C82.37 6.68044 84.2368 6.57885 85.4306 7.67525C86.0804 8.27002 86.4042 9.07856 86.4042 9.88499C86.4042 10.4205 86.2603 10.9539 85.9767 11.428C86.2751 11.5719 86.5524 11.7667 86.7979 12.0101C87.3842 12.5964 87.6763 13.3605 87.6763 14.1267C87.6763 14.3426 87.653 14.5606 87.6065 14.7722C88.0488 14.9119 88.4616 15.1596 88.8129 15.5088C89.5622 16.2602 89.8331 17.3079 89.6215 18.2731C90.0617 18.4128 90.4766 18.6583 90.8279 19.0097C91.9984 20.1802 92.0005 22.0788 90.8279 23.2514ZM89.6088 21.1305C89.6067 20.9168 89.5305 20.7009 89.3759 20.5294C89.0267 20.1421 88.4002 20.1633 88.0319 20.5315L87.9642 20.5993C87.7589 20.8046 87.49 20.9062 87.2212 20.9083C86.9545 20.9062 86.6836 20.8046 86.4804 20.5993C86.0698 20.1887 86.0698 19.524 86.4804 19.1155L86.5863 19.0097L87.3271 18.2668C87.5027 18.0911 87.5916 17.8583 87.5938 17.6297C87.5916 17.4011 87.5027 17.1683 87.3271 16.9947C86.9757 16.6454 86.4106 16.6433 86.0571 16.9947L85.2062 17.8435C85.2062 17.8435 85.1978 17.8498 85.1935 17.854C85.0263 18.0191 84.8146 18.1123 84.5966 18.1377C84.5522 18.144 84.5099 18.1525 84.4654 18.1525C84.4167 18.1525 84.3702 18.144 84.3215 18.1377C84.0971 18.1059 83.8791 18.0085 83.7098 17.8308C83.3055 17.4117 83.35 16.7301 83.7606 16.3195L84.5712 15.5088C84.5712 15.5088 84.5734 15.5067 84.5755 15.5067L85.3142 14.768C85.4877 14.5923 85.5766 14.3616 85.5766 14.1309C85.5766 13.7838 85.3755 13.4324 84.9713 13.2758C84.6496 13.153 84.2855 13.2483 84.0421 13.4917L82.4504 15.0855C82.2451 15.2908 81.9784 15.3945 81.7096 15.3945C81.4535 15.3924 81.1952 15.2993 80.9942 15.113C80.556 14.7045 80.5793 13.987 81.0026 13.5637L82.5562 12.0101C82.5562 12.0101 82.5605 12.0058 82.5626 12.0058L84.0421 10.5242C84.2178 10.3485 84.3067 10.1178 84.3067 9.88711C84.3045 9.64158 84.2051 9.39182 83.9976 9.21191C83.6378 8.8923 83.0811 8.94098 82.7404 9.28176L76.725 15.2972C76.3143 15.7057 75.6497 15.7057 75.2412 15.2972C75.0359 15.0919 74.9322 14.823 74.9322 14.5542C74.9322 14.2854 75.0359 14.0166 75.2412 13.8113L75.6963 13.3562H74.8221C73.6622 13.3562 72.7224 14.2981 72.7224 15.458V20.0744C72.7224 21.1094 73.1331 22.1021 73.8633 22.8323L77.6055 26.5745C78.3378 27.3068 79.3284 27.7174 80.3634 27.7174H81.7815C82.8145 27.7174 83.8071 27.3068 84.5395 26.5766L89.3463 21.7676C89.522 21.592 89.6109 21.3613 89.6109 21.1305H89.6088ZM88.5272 6.26135L90.013 4.77549C90.4237 4.36487 90.4237 3.70025 90.013 3.28963C89.6024 2.87901 88.9378 2.87901 88.5272 3.28963L87.0413 4.77549C86.6307 5.18611 86.6307 5.85073 87.0413 6.26135C87.4519 6.67198 88.1166 6.67198 88.5272 6.26135ZM83.4135 4.75221C83.9934 4.75221 84.4633 4.28232 84.4633 3.70237V1.60057C84.4633 1.02062 83.9934 0.550735 83.4135 0.550735C82.8335 0.550735 82.3636 1.02062 82.3636 1.60057V3.70025C82.3636 4.2802 82.8335 4.75009 83.4135 4.75009V4.75221ZM78.2955 6.25077C78.7061 6.66139 79.3707 6.66139 79.7813 6.25077C80.192 5.84015 80.192 5.17553 79.7813 4.76491L78.2955 3.27905C77.8849 2.86842 77.2202 2.86842 76.8096 3.27905C76.399 3.68967 76.399 4.35429 76.8096 4.76491L78.2955 6.25077ZM117.908 37.8327V54.6323C117.908 55.7922 116.968 56.732 115.808 56.732C114.648 56.732 113.709 55.7922 113.709 54.6323V37.8327C113.709 36.6728 114.648 35.7331 115.808 35.7331C116.968 35.7331 117.908 36.6728 117.908 37.8327ZM158.856 37.8327V54.6323C158.856 55.7922 157.916 56.732 156.756 56.732C155.596 56.732 154.656 55.7922 154.656 54.6323V37.8327C154.656 36.6728 155.596 35.7331 156.756 35.7331C157.916 35.7331 158.856 36.6728 158.856 37.8327ZM66.4657 54.6323C66.4657 55.7922 65.526 56.732 64.3661 56.732H55.9674C54.8075 56.732 53.8677 55.7922 53.8677 54.6323V37.8327C53.8677 36.6728 54.8075 35.7331 55.9674 35.7331C57.1273 35.7331 58.067 36.6728 58.067 37.8327V52.5326H64.3661C65.526 52.5326 66.4657 53.4724 66.4657 54.6323ZM152.557 37.8327C152.557 38.9926 151.617 39.9324 150.457 39.9324H146.258V54.6323C146.258 55.7922 145.318 56.732 144.158 56.732C142.998 56.732 142.058 55.7922 142.058 54.6323V39.9324H137.859C136.699 39.9324 135.759 38.9926 135.759 37.8327C135.759 36.6728 136.699 35.7331 137.859 35.7331H150.459C151.619 35.7331 152.559 36.6728 152.559 37.8327H152.557ZM78.0119 35.9997C72.2123 35.9997 67.5114 40.7007 67.5114 46.5003C67.5114 52.2998 72.2123 56.9986 78.0119 56.9986C83.8114 56.9986 88.5103 52.2977 88.5103 46.5003C88.5103 40.7029 83.8093 35.9997 78.0119 35.9997ZM78.0119 52.7993C74.5364 52.7993 71.7107 49.9736 71.7107 46.5003C71.7107 43.0269 74.5364 40.1991 78.0119 40.1991C81.4873 40.1991 84.3109 43.0269 84.3109 46.5003C84.3109 49.9736 81.4852 52.7993 78.0119 52.7993ZM179.084 53.447C177.171 55.4705 174.462 56.732 171.458 56.732C165.523 56.732 160.738 51.8066 160.966 45.8208C161.169 40.487 165.439 36.0971 170.766 35.7563C173.903 35.5553 176.767 36.7321 178.813 38.7386C179.806 39.7144 179.601 41.3654 178.396 42.0617C177.584 42.5316 176.553 42.4088 175.884 41.7506C174.701 40.5822 173.058 39.8774 171.253 39.9366C168.04 40.0404 165.377 42.6163 165.174 45.8251C164.943 49.4847 167.851 52.5326 171.46 52.5326C173.245 52.5326 174.86 51.7854 176.007 50.5895C176.688 49.8784 177.751 49.6985 178.604 50.1916C179.774 50.8689 180.018 52.4649 179.089 53.447H179.084ZM111.609 46.2336C111.609 52.031 106.908 56.732 101.11 56.732C95.313 56.732 90.5951 52.014 90.6099 46.2039C90.6247 40.6669 95.0336 36.0273 100.562 35.7458C102.73 35.6357 104.764 36.1839 106.48 37.2083C107.642 37.9026 107.816 39.5239 106.857 40.4806C106.184 41.1537 105.138 41.3019 104.321 40.815C103.379 40.2541 102.281 39.9303 101.106 39.9303C97.6307 39.9303 94.8051 42.7581 94.8051 46.2314C94.8051 49.7048 97.6307 52.5305 101.106 52.5305C103.845 52.5305 106.18 50.7737 107.045 48.329H103.206C102.046 48.329 101.106 47.3892 101.106 46.2293C101.106 45.0694 102.046 44.1297 103.206 44.1297H109.507C110.667 44.1297 111.607 45.0694 111.607 46.2293L111.609 46.2336ZM196.483 50.6488C196.421 54.8291 192.586 56.732 189.049 56.732C185.512 56.732 182.786 55.026 181.859 52.2807C181.51 51.1674 182.035 50.0583 183.11 49.6477C183.383 49.5418 183.663 49.4889 183.944 49.4889C184.805 49.4889 185.606 49.9884 185.978 50.7631C186.302 51.432 187.132 52.5538 189.049 52.5538C190.302 52.5538 191.778 52.0437 191.809 50.6086C191.837 49.7535 191.458 49.0698 189.523 48.5174L187.102 47.8464C184.668 47.095 181.764 45.4568 181.764 41.939C181.764 38.4211 184.755 35.7331 188.876 35.7331C191.75 35.7331 194.047 36.9945 195.179 39.1958C195.672 40.1525 195.38 41.2257 194.47 41.8077C194.055 42.0723 193.64 42.2078 193.236 42.2078C192.612 42.2078 192.023 41.8839 191.532 41.2701C190.671 40.1695 189.581 39.9388 188.819 39.9388C187.422 39.9388 186.41 40.7304 186.41 41.8225C186.41 42.6777 187.091 43.3042 188.433 43.683L190.829 44.3836C194.675 45.4885 196.578 47.5967 196.485 50.6467L196.483 50.6488ZM134.739 50.6488C134.678 54.8291 130.842 56.732 127.306 56.732C123.769 56.732 121.043 55.026 120.116 52.2807C119.766 51.1674 120.291 50.0583 121.366 49.6477C121.639 49.5418 121.919 49.4889 122.2 49.4889C123.062 49.4889 123.862 49.9884 124.234 50.7631C124.558 51.432 125.388 52.5538 127.306 52.5538C128.559 52.5538 130.034 52.0437 130.066 50.6086C130.093 49.7535 129.714 49.0698 127.78 48.5174L125.358 47.8464C122.924 47.095 120.02 45.4568 120.02 41.939C120.02 38.4211 123.011 35.7331 127.132 35.7331C130.006 35.7331 132.303 36.9945 133.435 39.1958C133.929 40.1525 133.636 41.2257 132.726 41.8077C132.311 42.0723 131.897 42.2078 131.492 42.2078C130.868 42.2078 130.279 41.8839 129.788 41.2701C128.927 40.1695 127.837 39.9388 127.075 39.9388C125.678 39.9388 124.666 40.7304 124.666 41.8225C124.666 42.6777 125.348 43.3042 126.69 43.683L129.086 44.3836C132.932 45.4885 134.834 47.5967 134.741 50.6467L134.739 50.6488Z" fill="#161616"/>
</svg>
