<svg width="160" height="60" viewBox="0 0 160 60" fill="none" xmlns="http://www.w3.org/2000/svg">
<path d="M111.362 46.3506V49.8536H117.504C118.474 49.8536 119.259 50.637 119.259 51.6051C119.259 52.5731 118.474 53.3565 117.504 53.3565H109.607C108.727 53.3565 107.999 52.7084 107.872 51.8676C107.86 51.7814 107.851 51.6953 107.851 51.6092V37.5973C107.851 37.1174 108.049 36.6785 108.365 36.3586C108.682 36.0427 109.122 35.8458 109.607 35.8458H117.504C118.474 35.8458 119.259 36.6293 119.259 37.5973C119.259 38.5654 118.474 39.3488 117.504 39.3488H111.362V42.8518H117.504C118.474 42.8518 119.259 43.6352 119.259 44.6032C119.259 45.5713 118.474 46.3547 117.504 46.3547H111.362V46.3506ZM60.7812 21.9243L65.9774 16.1653C66.2775 15.8289 66.4255 15.4106 66.4255 14.9922C66.4255 14.5123 66.2323 14.0364 65.8459 13.6919C65.1265 13.0479 64.0165 13.1053 63.367 13.8231L58.4174 19.3073L56.8101 21.0875V9.78285C56.8101 9.29883 56.6127 8.85994 56.2962 8.5441C55.9796 8.22826 55.5398 8.03137 55.0547 8.03137C54.0845 8.03137 53.2993 8.81482 53.2993 9.78285V28.7866C53.2993 29.1763 53.4268 29.5331 53.6405 29.8244C53.9571 30.2551 54.4709 30.5381 55.0506 30.5381C56.0208 30.5381 56.8059 29.7546 56.8059 28.7866V22.7569L58.4133 24.5371L63.2067 29.849C63.8562 30.5668 64.9661 30.6242 65.6856 29.9761C66.4091 29.3321 66.4625 28.2206 65.8171 27.5027L60.7771 21.9201L60.7812 21.9243ZM94.0797 21.9243L99.276 16.1653C99.5761 15.8289 99.7241 15.4106 99.7241 14.9922C99.7241 14.5123 99.5308 14.0364 99.1444 13.6919C98.425 13.0479 97.315 13.1053 96.6655 13.8231L91.716 19.3073L90.1086 21.0875V9.78285C90.1086 9.29883 89.9113 8.85994 89.5947 8.5441C89.2782 8.22826 88.8383 8.03137 88.3532 8.03137C87.383 8.03137 86.5979 8.81482 86.5979 9.78285V28.7866C86.5979 29.1763 86.7253 29.5331 86.9391 29.8244C87.2556 30.2551 87.7695 30.5381 88.3491 30.5381C89.3193 30.5381 90.1045 29.7546 90.1045 28.7866V22.7569L91.7118 24.5371L96.5052 29.849C97.1547 30.5668 98.2647 30.6242 98.9841 29.9761C99.7076 29.3321 99.7611 28.2206 99.1156 27.5027L94.0756 21.9201L94.0797 21.9243ZM91.0623 44.5458C91.0623 49.3819 87.1364 53.2991 82.2896 53.2991C77.4428 53.2991 73.5169 49.3819 73.5169 44.5458C73.5169 39.7098 77.4428 35.7925 82.2896 35.7925C87.1364 35.7925 91.0623 39.7098 91.0623 44.5458ZM87.5516 44.5458C87.5516 41.6499 85.1919 39.2955 82.2896 39.2955C79.3873 39.2955 77.0276 41.6499 77.0276 44.5458C77.0276 47.4417 79.3873 49.8003 82.2896 49.8003C85.1919 49.8003 87.5516 47.4458 87.5516 44.5458ZM112.464 21.9243L117.66 16.1653C117.96 15.8289 118.108 15.4106 118.108 14.9922C118.108 14.5123 117.915 14.0364 117.528 13.6919C116.809 13.0479 115.699 13.1053 115.05 13.8231L110.1 19.3073L108.493 21.0875V9.78285C108.493 9.29883 108.295 8.85994 107.979 8.5441C107.662 8.22826 107.222 8.03137 106.737 8.03137C105.767 8.03137 104.982 8.81482 104.982 9.78285V28.7866C104.982 29.1763 105.109 29.5331 105.323 29.8244C105.64 30.2551 106.154 30.5381 106.733 30.5381C107.703 30.5381 108.489 29.7546 108.489 28.7866V22.7569L110.096 24.5371L114.889 29.849C115.539 30.5668 116.649 30.6242 117.368 29.9761C118.092 29.3321 118.145 28.2206 117.5 27.5027L112.46 21.9201L112.464 21.9243ZM145.762 21.9243L150.959 16.1653C151.259 15.8289 151.407 15.4106 151.407 14.9922C151.407 14.5123 151.213 14.0364 150.827 13.6919C150.108 13.0479 148.998 13.1053 148.348 13.8231L143.399 19.3073L141.791 21.0875V9.78285C141.791 9.29883 141.594 8.85994 141.277 8.5441C140.961 8.22826 140.521 8.03137 140.036 8.03137C139.066 8.03137 138.28 8.81482 138.28 9.78285V28.7866C138.28 29.1763 138.408 29.5331 138.622 29.8244C138.938 30.2551 139.452 30.5381 140.032 30.5381C141.002 30.5381 141.787 29.7546 141.787 28.7866V22.7569L143.394 24.5371L148.188 29.849C148.837 30.5668 149.947 30.6242 150.667 29.9761C151.39 29.3321 151.444 28.2206 150.798 27.5027L145.758 21.9201L145.762 21.9243ZM136.533 21.7889C136.533 26.6208 132.607 30.5422 127.761 30.5422C122.914 30.5422 118.988 26.6249 118.988 21.7889C118.988 16.9528 122.914 13.0356 127.761 13.0356C132.607 13.0356 136.533 16.9528 136.533 21.7889ZM133.027 21.7889C133.027 18.893 130.667 16.5345 127.765 16.5345C124.862 16.5345 122.499 18.893 122.499 21.7889C122.499 24.6848 124.858 27.0392 127.765 27.0392C130.671 27.0392 133.027 24.6848 133.027 21.7889ZM102.676 37.019L98.9101 48.5779L95.1404 37.0026C94.906 36.2806 94.2318 35.7925 93.4713 35.7925C92.2792 35.7925 91.4364 36.9533 91.8023 38.0854L96.09 51.2564C96.4846 52.4746 97.6234 53.2991 98.906 53.2991C100.189 53.2991 101.327 52.4746 101.722 51.2564L106.006 38.1018C106.371 36.982 105.541 35.8253 104.361 35.8089C103.592 35.8007 102.906 36.2888 102.667 37.019H102.676ZM84.1888 25.0662L80.1725 29.0737C79.2352 30.0131 77.9567 30.5381 76.6288 30.5381H75.449C74.1212 30.5381 72.8468 30.0131 71.9054 29.0737L68.777 25.9522C67.8397 25.0129 67.3094 23.7414 67.3094 22.4165V18.8151C67.3094 16.7436 68.9949 15.0619 71.0709 15.0619H73.3031L76.1684 12.2029C77.1263 11.2472 78.6884 11.1611 79.6833 12.0758C80.2259 12.5721 80.4972 13.2448 80.4972 13.9175C80.4972 14.3646 80.378 14.8076 80.1396 15.2055C80.3903 15.3244 80.6206 15.4885 80.8261 15.6895C81.3153 16.1776 81.562 16.8134 81.562 17.4533C81.562 17.6337 81.5414 17.8142 81.5044 17.9906C81.8744 18.1055 82.2197 18.3146 82.5116 18.6059C83.1365 19.2335 83.3626 20.1071 83.1858 20.9111C83.5517 21.026 83.9011 21.231 84.193 21.5264C85.1714 22.5026 85.1714 24.0859 84.193 25.0621L84.1888 25.0662ZM83.1693 23.2984C83.1693 23.122 83.1036 22.9415 82.9761 22.7979C82.6842 22.4739 82.1622 22.4944 81.8538 22.7979L81.7963 22.8554C81.6236 23.0276 81.4016 23.1097 81.1755 23.1138C80.9535 23.1138 80.7274 23.0276 80.5548 22.8554C80.2136 22.5149 80.2136 21.9571 80.5548 21.6166L80.6452 21.5264L81.266 20.907C81.414 20.7593 81.488 20.5665 81.488 20.3779C81.488 20.1892 81.414 19.9923 81.266 19.8487C80.9741 19.5575 80.5013 19.5575 80.2054 19.8487L79.4942 20.5542C79.4942 20.5542 79.4859 20.5583 79.4818 20.5624C79.3421 20.7019 79.1653 20.7757 78.9844 20.8004C78.9474 20.8045 78.9104 20.8127 78.8734 20.8127C78.8323 20.8127 78.7953 20.8045 78.7542 20.8004C78.5651 20.7757 78.3842 20.6937 78.2444 20.546C77.9073 20.1974 77.9443 19.6272 78.2855 19.2868L78.9639 18.61L79.5805 17.9947C79.7244 17.847 79.7984 17.6543 79.7984 17.4656C79.7984 17.1743 79.6298 16.8831 79.2927 16.7519C79.0255 16.6493 78.7213 16.7272 78.5158 16.9323L77.1879 18.2613C77.0153 18.4336 76.7933 18.5197 76.5672 18.5197C76.3534 18.5197 76.1355 18.4418 75.9711 18.2859C75.6052 17.9455 75.6258 17.3466 75.9793 16.9939L77.2784 15.6977C77.2784 15.6977 77.2784 15.6977 77.2825 15.6977L78.5199 14.463C78.6679 14.3154 78.7419 14.1226 78.7419 13.9339C78.7419 13.7288 78.6555 13.5196 78.4829 13.3719C78.1828 13.1053 77.7182 13.1463 77.4305 13.4294L72.4028 18.4459C72.0616 18.7864 71.5025 18.7864 71.1613 18.4459C70.9887 18.2736 70.9023 18.0521 70.9023 17.8265C70.9023 17.6009 70.9887 17.3794 71.1613 17.2072L71.5395 16.8298H70.8078C69.8376 16.8298 69.0524 17.6132 69.0524 18.5813V22.4288C69.0524 23.2902 69.3936 24.1187 70.0061 24.7299L73.1346 27.8514C73.7471 28.4626 74.5734 28.803 75.4408 28.803H76.6247C77.488 28.803 78.3184 28.4626 78.931 27.8514L82.9473 23.8439C83.0953 23.6962 83.1693 23.5035 83.1693 23.3148V23.2984ZM82.2649 10.9026L83.5064 9.6639C83.8476 9.32345 83.8476 8.7697 83.5064 8.42515C83.1652 8.08059 82.6103 8.08469 82.2649 8.42515L81.0234 9.6639C80.6822 10.0043 80.6822 10.5581 81.0234 10.9026C81.3646 11.2472 81.9196 11.2431 82.2649 10.9026ZM77.9937 9.64339C78.4788 9.64339 78.8693 9.24961 78.8693 8.7697V7.01822C78.8693 6.5342 78.4747 6.14453 77.9937 6.14453C77.5127 6.14453 77.118 6.53831 77.118 7.01822V8.7697C77.118 9.25371 77.5127 9.64339 77.9937 9.64339ZM73.7183 10.8944C74.0595 11.2349 74.6145 11.2349 74.9598 10.8944C75.3051 10.554 75.301 10.0002 74.9598 9.65569L73.7183 8.41694C73.3771 8.07649 72.8221 8.07649 72.4768 8.41694C72.1315 8.75739 72.1356 9.31114 72.4768 9.65569L73.7183 10.8944ZM68.2549 41.5884L64.144 51.0226C63.5314 52.4254 61.5376 52.4254 60.9251 51.0226L56.8142 41.5884V51.601C56.8142 52.5649 56.029 53.3524 55.0588 53.3524C54.0886 53.3524 53.3034 52.569 53.3034 51.601V38.754C53.3034 37.1461 54.6107 35.8417 56.2222 35.8417C57.3856 35.8417 58.4339 36.5308 58.8984 37.5932L62.5325 45.9322L66.1665 37.5932C66.6311 36.5308 67.6794 35.8417 68.8427 35.8417C70.4542 35.8417 71.7615 37.1461 71.7615 38.754V51.601C71.7615 52.5649 70.9763 53.3524 70.0061 53.3524C69.036 53.3524 68.2508 52.569 68.2508 51.601V41.5884H68.2549Z" fill="#171717"/>
<path d="M40.5756 27.6255C40.5756 32.2687 38.7626 36.6372 35.4698 39.9228C34.5243 40.8662 33.3157 41.9778 31.9878 43.1509L28.9005 40.5626C30.3476 39.2993 31.6631 38.0974 32.6538 37.1089C35.1944 34.574 36.5921 31.2064 36.5921 27.6255C36.5921 24.0446 35.1944 20.6729 32.6538 18.138C30.1133 15.603 26.7382 14.2084 23.1493 14.2084C19.5605 14.2084 16.1854 15.603 13.6449 18.138C11.1043 20.6729 9.7066 24.0405 9.7066 27.6214C9.7066 31.2023 11.1043 34.574 13.6449 37.1048C14.9933 38.4502 16.8637 40.1237 18.8411 41.8014C19.0014 42.6341 19.4413 43.3888 20.1031 43.9425C20.7691 44.5004 21.6118 44.808 22.4834 44.8121C22.7095 44.9926 22.9315 45.1731 23.1534 45.3454L26.2654 47.95L27.6179 49.0821L30.7258 51.6868C29.6528 52.5564 28.6087 53.389 27.6344 54.1397L24.5101 51.5227L23.1493 50.3865C19.3097 47.4701 13.8627 42.9458 10.8248 39.9104C7.53191 36.629 5.71899 32.2605 5.71899 27.6132C5.71899 22.9658 7.53191 18.6015 10.8248 15.3159C14.1135 12.0303 18.4917 10.2214 23.1493 10.2214C27.807 10.2214 32.1811 12.0303 35.4739 15.3159C38.7668 18.5974 40.5797 22.9658 40.5797 27.6132L40.5756 27.6255Z" fill="#171717"/>
<path d="M35.116 47.9993C34.1253 48.8648 33.0894 49.7385 32.0575 50.5958L28.9497 47.9952L27.6013 46.8672L24.4934 44.2667C25.517 43.434 26.5653 42.5603 27.5848 41.6948L30.6762 44.2872L32.0205 45.4111L35.1119 47.9993H35.116Z" fill="#171717"/>
<path d="M39.5112 11.2959C30.4754 2.27603 15.8199 2.27603 6.77995 11.2959C-2.25998 20.3118 -2.25998 34.9348 6.77995 43.9547C10.6566 47.8227 17.9288 53.7375 21.6286 56.3709C22.5371 57.0149 23.754 57.0149 24.6584 56.3709C25.1435 56.0263 25.6902 55.6244 26.2781 55.1814L23.1415 52.5562C19.5238 49.89 13.1601 44.7012 9.59594 41.1449C5.97832 37.5353 3.98041 32.7321 3.98041 27.6253C3.98041 22.5185 5.97421 17.7194 9.59183 14.1098C13.2094 10.4961 18.0233 8.5067 23.1415 8.5067C28.2596 8.5067 33.0693 10.4961 36.687 14.1057C40.3046 17.7153 42.3025 22.5185 42.3025 27.6253C42.3025 32.7321 40.3087 37.5312 36.6911 41.1408C35.7743 42.0596 34.6068 43.1343 33.3242 44.2705L33.39 44.3238L36.4115 46.8506C37.5667 45.8169 38.6273 44.8325 39.5071 43.9506C48.547 34.9348 48.547 20.3118 39.5071 11.2918L39.5112 11.2959Z" fill="#171717"/>
<path d="M31.4248 35.8861C30.208 37.1003 28.3499 38.7738 26.241 40.5663C25.5914 41.116 24.6295 41.9117 23.7456 42.6377C23.0098 43.2448 21.9409 43.2366 21.2092 42.6254C20.2637 41.8338 20.2637 40.3817 21.2092 39.5942L23.1413 37.9781C25.3242 36.1405 27.2522 34.4218 28.4937 33.1912C29.8504 31.8499 30.7219 30.0697 30.8493 28.1665C31.0179 25.6808 30.0148 23.3222 28.095 21.7102C26.8617 20.6766 25.3201 20.0531 23.7127 19.9382C21.1722 19.7578 18.7673 20.7873 17.1435 22.7685C16.1692 23.9498 15.5772 25.4101 15.4457 26.936C15.2442 29.2494 16.0582 31.4603 17.682 33.0805C18.6933 34.0895 20.1403 35.4062 21.8258 36.8583L18.7344 39.4465C17.2915 38.1914 15.9266 36.9526 14.8619 35.8902C12.5063 33.5399 11.2772 30.3733 11.4457 27.0262C11.5773 24.3477 12.6461 21.7841 14.4508 19.7947C16.7036 17.3131 19.8156 15.939 23.1413 15.939C26.4671 15.939 29.579 17.3131 31.8318 19.7947C33.6365 21.78 34.7054 24.3477 34.8369 27.0262C35.0014 30.3692 33.7763 33.5399 31.4207 35.8902L31.4248 35.8861Z" fill="#171717"/>
<path d="M128.354 53.28V40.158H129.434V53.28H128.354Z" fill="#4A5661"/>
<path d="M136.696 53.514C134.374 53.514 132.358 51.678 132.358 48.492C132.358 45.288 134.374 43.434 136.696 43.434C139.018 43.434 141.034 45.288 141.034 48.492C141.034 51.678 139.018 53.514 136.696 53.514ZM136.696 52.614C138.568 52.614 139.954 50.94 139.954 48.492C139.954 46.044 138.568 44.352 136.696 44.352C134.824 44.352 133.456 46.044 133.456 48.492C133.456 50.94 134.824 52.614 136.696 52.614Z" fill="#4A5661"/>
<path d="M145.593 53.28V41.076H141.471V40.158H150.831V41.076H146.691V53.28H145.593Z" fill="#4A5661"/>
</svg>
