<svg width="190" height="60" viewBox="0 0 190 60" fill="none" xmlns="http://www.w3.org/2000/svg">
<path d="M131.416 53.5353L132.851 49.4787H138.535L139.97 53.5353H141.387L136.42 39.875H134.966L130 53.5353H131.416ZM133.276 48.2901L135.646 41.6108H135.741L138.11 48.2901H133.276Z" fill="#4A5761"/>
<path d="M146.438 53.7429C148.317 53.7523 149.158 52.5731 149.573 51.6863H149.705V53.5353H150.97V39.875H149.668V45.1957H149.573C149.167 44.3184 148.355 43.1486 146.457 43.1391C143.936 43.1486 142.199 45.2618 142.209 48.441C142.199 51.6297 143.927 53.7523 146.438 53.7429ZM143.512 48.4221C143.502 46.092 144.588 44.3089 146.608 44.3089C148.591 44.3089 149.705 45.9976 149.705 48.4221C149.705 50.8466 148.572 52.5825 146.608 52.5919C144.607 52.5825 143.502 50.7617 143.512 48.4221Z" fill="#4A5761"/>
<path d="M153.586 53.5353H154.889V47.007C154.88 45.4316 155.937 44.3184 157.325 44.3278C158.685 44.3184 159.497 45.224 159.497 46.5731V53.5353H160.8V46.8184C160.8 45.375 161.659 44.3184 163.198 44.3278C164.52 44.3184 165.417 45.092 165.407 46.6863V53.5353H166.71V46.6674C166.71 44.3655 165.492 43.158 163.594 43.158C162.112 43.158 161.026 43.875 160.554 45.0071H160.479C160.016 43.8467 159.11 43.158 157.703 43.158C156.362 43.158 155.361 43.7995 154.946 44.875H154.833V43.2901H153.586V53.5353Z" fill="#4A5761"/>
<path d="M169.099 53.5353H170.383V43.2901H169.099V53.5353ZM168.816 40.6486C168.816 41.1486 169.241 41.5448 169.76 41.5354C170.27 41.5448 170.695 41.1486 170.704 40.6486C170.695 40.1486 170.27 39.7524 169.76 39.7429C169.241 39.7524 168.816 40.1486 168.816 40.6486Z" fill="#4A5761"/>
<path d="M174.076 47.1769C174.066 45.4033 175.218 44.3184 176.814 44.3278C178.362 44.3184 179.344 45.3561 179.344 47.007V53.5353H180.628V46.9127C180.628 44.4693 179.231 43.158 177.154 43.158C175.643 43.158 174.623 43.8467 174.132 44.9127H174.019V43.2901H172.773V53.5353H174.076V47.1769Z" fill="#4A5761"/>
<path d="M183.999 53.6297C184.547 53.6391 185 53.1768 185 52.6297C185 52.0731 184.547 51.6202 183.999 51.6108C183.442 51.6202 182.979 52.0731 182.979 52.6297C182.979 53.1768 183.442 53.6391 183.999 53.6297Z" fill="#4A5761"/>
<path d="M111.362 47.204V50.707H117.504C118.474 50.707 119.259 51.4904 119.259 52.4584C119.259 53.4265 118.474 54.2099 117.504 54.2099H109.607C108.727 54.2099 107.999 53.5618 107.872 52.721C107.86 52.6348 107.851 52.5487 107.851 52.4625V38.4507C107.851 37.9708 108.049 37.5319 108.365 37.212C108.682 36.8961 109.122 36.6992 109.607 36.6992H117.504C118.474 36.6992 119.259 37.4827 119.259 38.4507C119.259 39.4187 118.474 40.2022 117.504 40.2022H111.362V43.7052H117.504C118.474 43.7052 119.259 44.4886 119.259 45.4566C119.259 46.4247 118.474 47.2081 117.504 47.2081H111.362V47.204ZM60.7812 22.7776L65.9774 17.0187C66.2775 16.6823 66.4255 16.2639 66.4255 15.8456C66.4255 15.3656 66.2323 14.8898 65.8459 14.5453C65.1265 13.9013 64.0165 13.9587 63.367 14.6765L58.4174 20.1607L56.8101 21.9409V10.6362C56.8101 10.1522 56.6127 9.71333 56.2962 9.39749C55.9796 9.08165 55.5398 8.88476 55.0547 8.88476C54.0845 8.88476 53.2993 9.66821 53.2993 10.6362V29.64C53.2993 30.0297 53.4268 30.3865 53.6405 30.6778C53.9571 31.1085 54.4709 31.3915 55.0506 31.3915C56.0208 31.3915 56.8059 30.608 56.8059 29.64V23.6103L58.4133 25.3905L63.2067 30.7024C63.8562 31.4202 64.9661 31.4776 65.6856 30.8295C66.4091 30.1855 66.4625 29.0739 65.8171 28.3561L60.7771 22.7735L60.7812 22.7776ZM94.0797 22.7776L99.276 17.0187C99.5761 16.6823 99.7241 16.2639 99.7241 15.8456C99.7241 15.3656 99.5308 14.8898 99.1444 14.5453C98.425 13.9013 97.315 13.9587 96.6655 14.6765L91.716 20.1607L90.1086 21.9409V10.6362C90.1086 10.1522 89.9113 9.71333 89.5947 9.39749C89.2782 9.08165 88.8383 8.88476 88.3532 8.88476C87.383 8.88476 86.5978 9.66821 86.5978 10.6362V29.64C86.5978 30.0297 86.7253 30.3865 86.9391 30.6778C87.2556 31.1085 87.7695 31.3915 88.3491 31.3915C89.3193 31.3915 90.1045 30.608 90.1045 29.64V23.6103L91.7118 25.3905L96.5052 30.7024C97.1547 31.4202 98.2647 31.4776 98.9841 30.8295C99.7076 30.1855 99.7611 29.0739 99.1156 28.3561L94.0756 22.7735L94.0797 22.7776ZM91.0623 45.3992C91.0623 50.2353 87.1364 54.1525 82.2896 54.1525C77.4428 54.1525 73.5169 50.2353 73.5169 45.3992C73.5169 40.5632 77.4428 36.6459 82.2896 36.6459C87.1364 36.6459 91.0623 40.5632 91.0623 45.3992ZM87.5516 45.3992C87.5516 42.5033 85.1919 40.1489 82.2896 40.1489C79.3873 40.1489 77.0276 42.5033 77.0276 45.3992C77.0276 48.2951 79.3873 50.6536 82.2896 50.6536C85.1919 50.6536 87.5516 48.2992 87.5516 45.3992ZM112.464 22.7776L117.66 17.0187C117.96 16.6823 118.108 16.2639 118.108 15.8456C118.108 15.3656 117.915 14.8898 117.528 14.5453C116.809 13.9013 115.699 13.9587 115.05 14.6765L110.1 20.1607L108.493 21.9409V10.6362C108.493 10.1522 108.295 9.71333 107.979 9.39749C107.662 9.08165 107.222 8.88476 106.737 8.88476C105.767 8.88476 104.982 9.66821 104.982 10.6362V29.64C104.982 30.0297 105.109 30.3865 105.323 30.6778C105.64 31.1085 106.154 31.3915 106.733 31.3915C107.703 31.3915 108.489 30.608 108.489 29.64V23.6103L110.096 25.3905L114.889 30.7024C115.539 31.4202 116.649 31.4776 117.368 30.8295C118.092 30.1855 118.145 29.0739 117.5 28.3561L112.46 22.7735L112.464 22.7776ZM145.762 22.7776L150.959 17.0187C151.259 16.6823 151.407 16.2639 151.407 15.8456C151.407 15.3656 151.213 14.8898 150.827 14.5453C150.108 13.9013 148.998 13.9587 148.348 14.6765L143.399 20.1607L141.791 21.9409V10.6362C141.791 10.1522 141.594 9.71333 141.277 9.39749C140.961 9.08165 140.521 8.88476 140.036 8.88476C139.066 8.88476 138.28 9.66821 138.28 10.6362V29.64C138.28 30.0297 138.408 30.3865 138.622 30.6778C138.938 31.1085 139.452 31.3915 140.032 31.3915C141.002 31.3915 141.787 30.608 141.787 29.64V23.6103L143.394 25.3905L148.188 30.7024C148.837 31.4202 149.947 31.4776 150.667 30.8295C151.39 30.1855 151.444 29.0739 150.798 28.3561L145.758 22.7735L145.762 22.7776ZM136.533 22.6423C136.533 27.4742 132.607 31.3956 127.761 31.3956C122.914 31.3956 118.988 27.4783 118.988 22.6423C118.988 17.8062 122.914 13.889 127.761 13.889C132.607 13.889 136.533 17.8062 136.533 22.6423ZM133.027 22.6423C133.027 19.7464 130.667 17.3878 127.765 17.3878C124.862 17.3878 122.499 19.7464 122.499 22.6423C122.499 25.5382 124.858 27.8926 127.765 27.8926C130.671 27.8926 133.027 25.5382 133.027 22.6423ZM102.676 37.8724L98.9101 49.4313L95.1404 37.856C94.906 37.134 94.2318 36.6459 93.4713 36.6459C92.2792 36.6459 91.4364 37.8067 91.8023 38.9388L96.09 52.1098C96.4846 53.328 97.6234 54.1525 98.906 54.1525C100.189 54.1525 101.327 53.328 101.722 52.1098L106.006 38.9552C106.371 37.8354 105.541 36.6787 104.361 36.6623C103.592 36.6541 102.906 37.1422 102.667 37.8724H102.676ZM84.1888 25.9196L80.1725 29.9271C79.2352 30.8664 77.9567 31.3915 76.6288 31.3915H75.449C74.1212 31.3915 72.8468 30.8664 71.9054 29.9271L68.777 26.8056C67.8397 25.8663 67.3094 24.5948 67.3094 23.2699V19.6685C67.3094 17.597 68.9949 15.9153 71.0709 15.9153H73.3031L76.1684 13.0563C77.1263 12.1006 78.6884 12.0145 79.6833 12.9292C80.2259 13.4255 80.4972 14.0982 80.4972 14.7709C80.4972 15.218 80.378 15.661 80.1396 16.0589C80.3903 16.1778 80.6206 16.3419 80.8261 16.5429C81.3153 17.031 81.562 17.6668 81.562 18.3067C81.562 18.4871 81.5414 18.6676 81.5044 18.844C81.8744 18.9588 82.2197 19.168 82.5116 19.4593C83.1365 20.0868 83.3626 20.9605 83.1858 21.7645C83.5517 21.8793 83.9011 22.0844 84.193 22.3798C85.1714 23.356 85.1714 24.9393 84.193 25.9155L84.1888 25.9196ZM83.1693 24.1518C83.1693 23.9754 83.1036 23.7949 82.9761 23.6513C82.6842 23.3273 82.1622 23.3478 81.8538 23.6513L81.7963 23.7088C81.6236 23.881 81.4016 23.9631 81.1755 23.9672C80.9535 23.9672 80.7274 23.881 80.5548 23.7088C80.2136 23.3683 80.2136 22.8105 80.5548 22.47L80.6452 22.3798L81.266 21.7604C81.414 21.6127 81.488 21.4199 81.488 21.2313C81.488 21.0426 81.414 20.8457 81.266 20.7021C80.9741 20.4109 80.5013 20.4109 80.2054 20.7021L79.4942 21.4076C79.4942 21.4076 79.4859 21.4117 79.4818 21.4158C79.3421 21.5553 79.1653 21.6291 78.9844 21.6537C78.9474 21.6578 78.9104 21.666 78.8734 21.666C78.8323 21.666 78.7953 21.6578 78.7542 21.6537C78.5651 21.6291 78.3842 21.5471 78.2444 21.3994C77.9073 21.0508 77.9443 20.4806 78.2855 20.1402L78.9639 19.4634L79.5805 18.8481C79.7244 18.7004 79.7984 18.5076 79.7984 18.319C79.7984 18.0277 79.6298 17.7365 79.2927 17.6052C79.0255 17.5027 78.7213 17.5806 78.5158 17.7857L77.1879 19.1147C77.0153 19.287 76.7933 19.3731 76.5672 19.3731C76.3534 19.3731 76.1355 19.2952 75.9711 19.1393C75.6052 18.7989 75.6258 18.2 75.9793 17.8473L77.2784 16.5511C77.2784 16.5511 77.2784 16.5511 77.2825 16.5511L78.5199 15.3164C78.6679 15.1688 78.7419 14.976 78.7419 14.7873C78.7419 14.5822 78.6555 14.373 78.4829 14.2253C78.1828 13.9587 77.7182 13.9997 77.4305 14.2828L72.4028 19.2993C72.0616 19.6397 71.5025 19.6397 71.1613 19.2993C70.9887 19.127 70.9023 18.9055 70.9023 18.6799C70.9023 18.4543 70.9887 18.2328 71.1613 18.0605L71.5395 17.6832H70.8078C69.8376 17.6832 69.0524 18.4666 69.0524 19.4347V23.2822C69.0524 24.1436 69.3936 24.9721 70.0061 25.5833L73.1346 28.7048C73.7471 29.316 74.5734 29.6564 75.4408 29.6564H76.6247C77.488 29.6564 78.3184 29.316 78.931 28.7048L82.9473 24.6973C83.0953 24.5496 83.1693 24.3568 83.1693 24.1682V24.1518ZM82.2649 11.756L83.5064 10.5173C83.8476 10.1768 83.8476 9.62309 83.5064 9.27854C83.1652 8.93399 82.6102 8.93809 82.2649 9.27854L81.0234 10.5173C80.6822 10.8577 80.6822 11.4115 81.0234 11.756C81.3646 12.1006 81.9196 12.0965 82.2649 11.756ZM77.9937 10.4968C78.4788 10.4968 78.8693 10.103 78.8693 9.62309V7.87161C78.8693 7.3876 78.4747 6.99792 77.9937 6.99792C77.5127 6.99792 77.118 7.3917 77.118 7.87161V9.62309C77.118 10.1071 77.5127 10.4968 77.9937 10.4968ZM73.7183 11.7478C74.0595 12.0883 74.6145 12.0883 74.9598 11.7478C75.3051 11.4074 75.301 10.8536 74.9598 10.5091L73.7183 9.27034C73.3771 8.92988 72.8221 8.92988 72.4768 9.27034C72.1315 9.61079 72.1356 10.1645 72.4768 10.5091L73.7183 11.7478ZM68.2549 42.4418L64.144 51.876C63.5314 53.2788 61.5376 53.2788 60.9251 51.876L56.8142 42.4418V52.4543C56.8142 53.4183 56.029 54.2058 55.0588 54.2058C54.0886 54.2058 53.3034 53.4224 53.3034 52.4543V39.6074C53.3034 37.9995 54.6107 36.6951 56.2222 36.6951C57.3856 36.6951 58.4339 37.3842 58.8984 38.4466L62.5325 46.7856L66.1665 38.4466C66.6311 37.3842 67.6794 36.6951 68.8427 36.6951C70.4542 36.6951 71.7615 37.9995 71.7615 39.6074V52.4543C71.7615 53.4183 70.9763 54.2058 70.0061 54.2058C69.036 54.2058 68.2508 53.4224 68.2508 52.4543V42.4418H68.2549Z" fill="#171717"/>
<path d="M40.5759 28.4792C40.5759 33.1225 38.763 37.4909 35.4702 40.7765C34.5246 41.7199 33.316 42.8315 31.9882 44.0046L28.9009 41.4164C30.3479 40.153 31.6634 38.9512 32.6542 37.9627C35.1947 35.4277 36.5924 32.0601 36.5924 28.4792C36.5924 24.8983 35.1947 21.5266 32.6542 18.9917C30.1136 16.4568 26.7385 15.0622 23.1497 15.0622C19.5609 15.0622 16.1858 16.4568 13.6452 18.9917C11.1047 21.5266 9.70696 24.8942 9.70696 28.4751C9.70696 32.056 11.1047 35.4277 13.6452 37.9586C14.9936 39.304 16.8641 40.9775 18.8414 42.6551C19.0018 43.4878 19.4416 44.2426 20.1035 44.7963C20.7695 45.3541 21.6122 45.6618 22.4837 45.6659C22.7098 45.8464 22.9318 46.0268 23.1538 46.1991L26.2658 48.8038L27.6183 49.9359L30.7261 52.5405C29.6532 53.4101 28.609 54.2428 27.6347 54.9934L24.5104 52.3765L23.1497 51.2403C19.3101 48.3239 13.8631 43.7996 10.8251 40.7642C7.53228 37.4827 5.71936 33.1143 5.71936 28.4669C5.71936 23.8196 7.53228 19.4552 10.8251 16.1697C14.1139 12.8841 18.492 11.0752 23.1497 11.0752C27.8074 11.0752 32.1814 12.8841 35.4743 16.1697C38.7671 19.4511 40.58 23.8196 40.58 28.4669L40.5759 28.4792Z" fill="#171717"/>
<path d="M35.1167 48.8531C34.1259 49.7186 33.09 50.5923 32.0581 51.4495L28.9503 48.849L27.6019 47.721L24.494 45.1204C25.5176 44.2878 26.5659 43.4141 27.5854 42.5486L30.6769 45.1409L32.0211 46.2648L35.1126 48.8531H35.1167Z" fill="#171717"/>
<path d="M39.5112 12.1499C30.4754 3.13003 15.8199 3.13003 6.77995 12.1499C-2.25998 21.1658 -2.25998 35.7888 6.77995 44.8087C10.6566 48.6767 17.9288 54.5915 21.6286 57.2249C22.5371 57.8689 23.754 57.8689 24.6584 57.2249C25.1435 56.8803 25.6902 56.4784 26.2781 56.0354L23.1415 53.4102C19.5238 50.744 13.1601 45.5552 9.59594 41.9989C5.97832 38.3893 3.98041 33.5861 3.98041 28.4793C3.98041 23.3725 5.97421 18.5734 9.59183 14.9638C13.2094 11.3501 18.0233 9.3607 23.1415 9.3607C28.2596 9.3607 33.0693 11.3501 36.687 14.9597C40.3046 18.5693 42.3025 23.3725 42.3025 28.4793C42.3025 33.5861 40.3087 38.3852 36.6911 41.9948C35.7743 42.9136 34.6068 43.9883 33.3242 45.1245L33.39 45.1778L36.4115 47.7046C37.5667 46.6709 38.6273 45.6865 39.5071 44.8046C48.547 35.7888 48.547 21.1658 39.5071 12.1458L39.5112 12.1499Z" fill="#171717"/>
<path d="M31.425 36.7405C30.2081 37.9546 28.35 39.6282 26.2411 41.4207C25.5916 41.9703 24.6296 42.7661 23.7457 43.4921C23.0099 44.0992 21.9411 44.091 21.2093 43.4798C20.2638 42.6882 20.2638 41.2361 21.2093 40.4486L23.1414 38.8324C25.3243 36.9948 27.2524 35.2762 28.4939 34.0456C29.8505 32.7043 30.722 30.9241 30.8494 29.0209C31.018 26.5352 30.0149 24.1766 28.0951 22.5646C26.8618 21.5309 25.3202 20.9075 23.7129 20.7926C21.1723 20.6121 18.7674 21.6417 17.1436 23.6229C16.1693 24.8042 15.5773 26.2644 15.4458 27.7903C15.2443 30.1038 16.0583 32.3146 17.6821 33.9349C18.6934 34.9439 20.1405 36.2606 21.8259 37.7126L18.7345 40.3009C17.2916 39.0457 15.9268 37.807 14.862 36.7446C12.5065 34.3943 11.2773 31.2277 11.4458 27.8806C11.5774 25.2021 12.6462 22.6384 14.4509 20.649C16.7037 18.1674 19.8157 16.7933 23.1414 16.7933C26.4672 16.7933 29.5792 18.1674 31.8319 20.649C33.6366 22.6343 34.7055 25.2021 34.837 27.8806C35.0015 31.2236 33.7764 34.3943 31.4209 36.7446L31.425 36.7405Z" fill="#171717"/>
</svg>
