<svg width="24" height="24" viewBox="0 0 24 24" fill="none" xmlns="http://www.w3.org/2000/svg">
<path d="M3.76634 3.00456C3.53354 3.08282 3.33276 3.23513 3.19466 3.43822C3.05656 3.64131 2.98873 3.88402 3.00153 4.12928V15.3764C3.00153 15.6747 3.12003 15.9608 3.33095 16.1717C3.54188 16.3826 3.82795 16.5011 4.12624 16.5011H9.74982V18.7506H7.50039C6.2632 18.7506 5.25096 19.7628 5.25096 21H18.7475C18.7475 19.7628 17.7353 18.7506 16.4981 18.7506H14.2487V16.5011H19.8722C20.1705 16.5011 20.4566 16.3826 20.6675 16.1717C20.8785 15.9608 20.997 15.6747 20.997 15.3764V4.12928C20.997 3.83099 20.8785 3.54491 20.6675 3.33399C20.4566 3.12306 20.1705 3.00456 19.8722 3.00456L4.12624 3.00456C4.0589 2.99848 3.99114 2.99848 3.9238 3.00456C3.87885 3.00186 3.83378 3.00186 3.78883 3.00456L3.76634 3.00456ZM5.25096 5.25399H18.7475V14.2517H5.25096V5.25399Z" fill="#313131"/>
</svg>
