<svg width="24" height="24" viewBox="0 0 24 24" fill="none" xmlns="http://www.w3.org/2000/svg">
<path d="M9.00098 20L7.60098 18.6L9.35098 16.8C7.21764 16.5167 5.45931 15.9333 4.07598 15.05C2.69264 14.1667 2.00098 13.15 2.00098 12C2.00098 10.6167 2.96364 9.43767 4.88898 8.463C6.81431 7.48833 9.18498 7.00067 12.001 7C14.8176 7 17.1886 7.48767 19.114 8.463C21.0393 9.43833 22.0016 10.6173 22.001 12C22.001 13.0333 21.447 13.9583 20.339 14.775C19.231 15.5917 17.785 16.2 16.001 16.6V14.55C17.2843 14.2167 18.272 13.8043 18.964 13.313C19.656 12.8217 20.0016 12.384 20.001 12C20.001 11.4667 19.2886 10.8333 17.864 10.1C16.4393 9.36667 14.485 9 12.001 9C9.51764 9 7.56331 9.36667 6.13798 10.1C4.71264 10.8333 4.00031 11.4667 4.00098 12C4.00098 12.4 4.42598 12.8793 5.27598 13.438C6.12598 13.9967 7.33431 14.4173 8.90098 14.7L7.60098 13.4L9.00098 12L13.001 16L9.00098 20Z" fill="#313131"/>
</svg>
