<svg width="30" height="40" viewBox="0 0 30 40" fill="none" xmlns="http://www.w3.org/2000/svg">
<path d="M13.8306 10.5994V7.74407H16.1706V10.6077L13.8306 10.5994Z" fill="#6F7F8F"/>
<path d="M24.633 0.818119V5.98204C24.633 6.05462 24.6041 6.12415 24.5526 6.17571L22.5612 8.16898C22.5105 8.22054 22.4411 8.24859 22.3686 8.24859H7.63065C7.5581 8.24859 7.48868 8.22046 7.4372 8.16898L5.44578 6.17571C5.39508 6.12415 5.36622 6.0547 5.36622 5.98204V0.818119C5.36622 0.666641 5.4879 0.544849 5.63923 0.544849H24.36C24.5105 0.544849 24.633 0.666641 24.633 0.818119Z" fill="#7AC2ED"/>
<path d="M24.633 0.818119V3.45551H5.36622V0.818119C5.36622 0.666641 5.4879 0.544849 5.63923 0.544849H24.36C24.5105 0.544849 24.633 0.666641 24.633 0.818119Z" fill="#68A6DC"/>
<path d="M9.07436 0.544849H10.2444V8.24859H9.07436V0.544849Z" fill="#D0EDF5"/>
<path d="M19.7569 0.544849H20.927V8.24859H19.7569V0.544849Z" fill="#D0EDF5"/>
<path d="M9.07436 0.544849H10.2444V3.45551H9.07436V0.544849Z" fill="#A6DFF5"/>
<path d="M19.7569 0.544849H20.927V3.45551H19.7569V0.544849Z" fill="#A6DFF5"/>
<path d="M25.92 0H4.07916C3.756 0 3.49414 0.262177 3.49414 0.5856C3.49414 0.909024 3.756 1.1712 4.07916 1.1712H25.92C26.2432 1.1712 26.5051 0.909024 26.5051 0.5856C26.5051 0.262177 26.2431 0 25.92 0Z" fill="#A5BABF"/>
<path d="M30 24.9954C30 29.1342 28.3167 32.8865 25.5983 35.6035C22.8822 38.319 19.1342 40 15 40C14.7122 40 14.4267 39.9922 14.1427 39.9758C10.3495 39.7611 6.92902 38.1301 4.40172 35.6035C1.68331 32.8865 0 29.1342 0 24.9954C0 20.8589 1.68253 17.1081 4.3986 14.3911C6.9259 11.8631 10.3471 10.2305 14.1427 10.0158C14.4267 9.99938 14.7122 9.99157 15 9.99157C19.1357 9.99157 22.8853 11.6741 25.6014 14.3911C28.3175 17.1081 30 20.8589 30 24.9954Z" fill="#E8F4F9"/>
<path d="M25.6014 14.3911L24.7138 15.2788L15.0032 24.9993L14.9993 25.0024L4.3986 14.3911C6.9259 11.8631 10.3471 10.2305 14.1427 10.0158C14.4267 9.99938 14.7122 9.99157 15 9.99157C19.1357 9.99157 22.8853 11.6741 25.6014 14.3911Z" fill="#D4E3E8"/>
<path d="M25.5983 35.6035C22.8822 38.319 19.1342 40 15 40C14.7122 40 14.4267 39.9922 14.1427 39.9758C10.3495 39.7611 6.92902 38.1301 4.40172 35.6035L14.9971 24.9988L15.0002 24.9949L25.5983 35.6035Z" fill="#D4E3E8"/>
<path d="M30 24.9954C30 29.1342 28.3167 32.8865 25.5983 35.6035C22.8822 38.319 19.1342 40 15 40C14.7122 40 14.4267 39.9922 14.1427 39.9758C22.0273 39.5307 28.2835 32.9943 28.2835 24.9954C28.2835 16.9973 22.0273 10.4608 14.1427 10.0158C14.4267 9.99938 14.7122 9.99157 15 9.99157C19.1357 9.99157 22.8853 11.6741 25.6014 14.3911C28.3175 17.1081 30 20.8589 30 24.9954Z" fill="#D4E3E8"/>
<path d="M24.7112 34.7141L25.5981 35.6018C22.882 38.3173 19.134 39.9982 14.9998 39.9982C14.712 39.9982 14.4265 39.9904 14.1426 39.974C18.3719 39.7351 22.1324 37.7434 24.7112 34.7141Z" fill="#B8CDD3"/>
<path d="M14.1427 10.0158C14.4267 9.99938 14.7122 9.99157 15 9.99157C19.1357 9.99157 22.8853 11.6741 25.6014 14.3911L24.7138 15.2788C22.135 12.2472 18.3736 10.2547 14.1427 10.0158Z" fill="#B8CDD3"/>
<path d="M26.4563 24.9971C26.4563 31.3267 21.3269 36.4571 14.9992 36.4571C14.7372 36.4571 14.4766 36.4485 14.2192 36.4305C8.25509 36.03 3.54214 31.0643 3.54214 24.9971C3.54214 18.9306 8.25509 13.9642 14.2192 13.5637C14.4766 13.5457 14.7372 13.5371 14.9992 13.5371C21.3269 13.5371 26.4563 18.6683 26.4563 24.9971Z" fill="#B0C5CA"/>
<path d="M26.4577 24.9971C26.4577 31.3267 21.3282 36.4571 15.0006 36.4571C14.7385 36.4571 14.478 36.4485 14.2206 36.4305C20.1847 36.03 24.8976 31.0643 24.8976 24.9971C24.8976 18.9306 20.1847 13.9642 14.2206 13.5637C14.478 13.5457 14.7385 13.5371 15.0006 13.5371C21.3282 13.5371 26.4577 18.6683 26.4577 24.9971Z" fill="#9BB4BA"/>
<path d="M20.8761 17.0288C20.6161 16.8368 20.2498 16.892 20.058 17.1522C19.8662 17.4125 19.9214 17.7791 20.1814 17.9711C20.9033 18.5044 21.537 19.1429 22.0653 19.8693C22.1798 20.0268 22.358 20.1103 22.5388 20.1103C22.6581 20.1103 22.7786 20.0738 22.8825 19.9981C23.1438 19.8078 23.2014 19.4415 23.0112 19.1801C22.4126 18.357 21.6943 17.6332 20.8761 17.0288Z" fill="#D4E3E8"/>
<path d="M9.24337 16.9438C8.37769 17.5642 7.62067 18.3162 6.99329 19.1789C6.80312 19.4404 6.86076 19.8066 7.12199 19.9969C7.22589 20.0727 7.34633 20.1091 7.46575 20.1091C7.64649 20.1091 7.82472 20.0255 7.93923 19.8681C8.49282 19.1069 9.16076 18.4434 9.92457 17.8959C10.1873 17.7077 10.2477 17.3419 10.0596 17.0789C9.8716 16.816 9.50616 16.7554 9.24337 16.9438Z" fill="#D4E3E8"/>
<path d="M22.8827 29.9988C22.6213 29.8084 22.2555 29.8662 22.0653 30.1276C21.5372 30.8539 20.9033 31.4925 20.1814 32.0258C19.9214 32.2178 19.8662 32.5844 20.0581 32.8447C20.1728 33.0003 20.3498 33.0825 20.5293 33.0825C20.65 33.0825 20.7717 33.0453 20.8763 32.9681C21.6944 32.3637 22.4128 31.6399 23.0114 30.8168C23.2015 30.5554 23.1439 30.1891 22.8827 29.9988Z" fill="#D4E3E8"/>
<path d="M9.92457 32.0998C9.16076 31.5523 8.49282 30.8888 7.93923 30.1276C7.74914 29.8663 7.3833 29.8083 7.12199 29.9988C6.86076 30.1891 6.80312 30.5554 6.99329 30.8168C7.62059 31.6795 8.37769 32.4315 9.24337 33.052C9.34656 33.126 9.4656 33.1615 9.58346 33.1615C9.76575 33.1615 9.94539 33.0765 10.0596 32.9168C10.2477 32.6538 10.1873 32.2879 9.92457 32.0998Z" fill="#D4E3E8"/>
<path d="M15.0025 16.2667C15.3256 16.2667 15.5875 16.0045 15.5875 15.6811C15.5875 15.3577 15.3256 15.0955 15.0025 15.0955C14.6794 15.0955 14.4175 15.3577 14.4175 15.6811C14.4175 16.0045 14.6794 16.2667 15.0025 16.2667Z" fill="#D4E3E8"/>
<path d="M11.8164 16.8276C12.1395 16.8276 12.4014 16.5654 12.4014 16.242C12.4014 15.9186 12.1395 15.6564 11.8164 15.6564C11.4933 15.6564 11.2314 15.9186 11.2314 16.242C11.2314 16.5654 11.4933 16.8276 11.8164 16.8276Z" fill="#D4E3E8"/>
<path d="M18.1867 16.8276C18.5098 16.8276 18.7717 16.5654 18.7717 16.242C18.7717 15.9186 18.5098 15.6564 18.1867 15.6564C17.8636 15.6564 17.6016 15.9186 17.6016 16.242C17.6016 16.5654 17.8636 16.8276 18.1867 16.8276Z" fill="#D4E3E8"/>
<path d="M15.0025 34.8998C15.3256 34.8998 15.5875 34.6376 15.5875 34.3142C15.5875 33.9907 15.3256 33.7286 15.0025 33.7286C14.6794 33.7286 14.4175 33.9907 14.4175 34.3142C14.4175 34.6376 14.6794 34.8998 15.0025 34.8998Z" fill="#D4E3E8"/>
<path d="M11.8164 34.3389C12.1395 34.3389 12.4014 34.0767 12.4014 33.7533C12.4014 33.4299 12.1395 33.1677 11.8164 33.1677C11.4933 33.1677 11.2314 33.4299 11.2314 33.7533C11.2314 34.0767 11.4933 34.3389 11.8164 34.3389Z" fill="#D4E3E8"/>
<path d="M18.1867 34.3389C18.5098 34.3389 18.7717 34.0767 18.7717 33.7533C18.7717 33.4299 18.5098 33.1677 18.1867 33.1677C17.8636 33.1677 17.6016 33.4299 17.6016 33.7533C17.6016 34.0767 17.8636 34.3389 18.1867 34.3389Z" fill="#D4E3E8"/>
<path d="M24.3149 25.5812C24.638 25.5812 24.8999 25.3191 24.8999 24.9956C24.8999 24.6722 24.638 24.41 24.3149 24.41C23.9918 24.41 23.7299 24.6722 23.7299 24.9956C23.7299 25.3191 23.9918 25.5812 24.3149 25.5812Z" fill="#D4E3E8"/>
<path d="M23.7549 22.3963C24.078 22.3963 24.3399 22.1341 24.3399 21.8107C24.3399 21.4873 24.078 21.2251 23.7549 21.2251C23.4318 21.2251 23.1699 21.4873 23.1699 21.8107C23.1699 22.1341 23.4318 22.3963 23.7549 22.3963Z" fill="#D4E3E8"/>
<path d="M23.7549 28.7702C24.078 28.7702 24.3399 28.508 24.3399 28.1846C24.3399 27.8612 24.078 27.599 23.7549 27.599C23.4318 27.599 23.1699 27.8612 23.1699 28.1846C23.1699 28.508 23.4318 28.7702 23.7549 28.7702Z" fill="#D4E3E8"/>
<path d="M5.70015 25.5812C6.02325 25.5812 6.28518 25.3191 6.28518 24.9956C6.28518 24.6722 6.02325 24.41 5.70015 24.41C5.37705 24.41 5.11513 24.6722 5.11513 24.9956C5.11513 25.3191 5.37705 25.5812 5.70015 25.5812Z" fill="#D4E3E8"/>
<path d="M6.26217 22.3963C6.58527 22.3963 6.8472 22.1341 6.8472 21.8107C6.8472 21.4873 6.58527 21.2251 6.26217 21.2251C5.93907 21.2251 5.67715 21.4873 5.67715 21.8107C5.67715 22.1341 5.93907 22.3963 6.26217 22.3963Z" fill="#D4E3E8"/>
<path d="M6.26217 28.7702C6.58527 28.7702 6.8472 28.508 6.8472 28.1846C6.8472 27.8612 6.58527 27.599 6.26217 27.599C5.93907 27.599 5.67715 27.8612 5.67715 28.1846C5.67715 28.508 5.93907 28.7702 6.26217 28.7702Z" fill="#D4E3E8"/>
<path d="M18.8644 30.7679H10.8804V29.0449L13.7444 26.0748C14.3204 25.4622 14.7844 24.9535 15.1364 24.5487C15.4884 24.133 15.7444 23.7611 15.9044 23.4329C16.0644 23.0937 16.1444 22.7327 16.1444 22.3498C16.1444 21.8794 16.0164 21.5294 15.7604 21.2996C15.5151 21.0699 15.1791 20.955 14.7524 20.955C14.3151 20.955 13.8884 21.0589 13.4724 21.2668C13.0564 21.4747 12.6191 21.77 12.1604 22.1529L10.8484 20.5612C11.1791 20.2658 11.5257 19.9923 11.8884 19.7407C12.2617 19.4891 12.6884 19.2867 13.1684 19.1336C13.6591 18.9695 14.2457 18.8874 14.9284 18.8874C15.6751 18.8874 16.3151 19.0296 16.8484 19.3141C17.3924 19.5876 17.8084 19.965 18.0964 20.4463C18.3951 20.9167 18.5444 21.4528 18.5444 22.0545C18.5444 22.6999 18.4164 23.2906 18.1604 23.8267C17.9151 24.3627 17.5524 24.8933 17.0724 25.4184C16.6031 25.9435 16.0324 26.5233 15.3604 27.1578L13.8884 28.5691V28.6839H18.8644V30.7679Z" fill="white"/>
</svg>
