<svg width="24" height="24" viewBox="0 0 24 24" fill="none" xmlns="http://www.w3.org/2000/svg">
<path d="M21.612 2.21387L23.21 3.81187L20.9486 6.07551V18.6877C20.9486 19.2872 20.7104 19.8621 20.2866 20.286C19.8627 20.7098 19.2878 20.948 18.6883 20.948H6.07499L3.80796 23.215L2.20996 21.617L21.612 2.21387ZM12.3822 14.6419L13.5135 15.7731L14.6436 14.643C14.9873 14.3681 15.42 14.2289 15.8595 14.2518C16.2991 14.2747 16.7149 14.4581 17.0282 14.7673L18.6883 16.4275V8.33463L12.3822 14.6419ZM15.481 5.1262H5.12682V12.3364L7.60179 9.86143L9.1738 11.4334L2.86656 17.7407V5.1262C2.86656 4.52675 3.1047 3.95184 3.52858 3.52796C3.95246 3.10408 4.52736 2.86595 5.12682 2.86595H17.7413L15.481 5.1262Z" fill="#313131"/>
</svg>
