<svg width="24" height="24" viewBox="0 0 24 24" fill="none" xmlns="http://www.w3.org/2000/svg">
<path d="M5.1709 5.53155C5.1709 5.94409 4.83342 6.28162 4.42096 6.28162C4.0085 6.28162 3.67102 5.94409 3.67102 5.53155C3.67102 5.11901 4.0085 4.78147 4.42096 4.78147C4.83342 4.78147 5.1709 5.11901 5.1709 5.53155ZM6.96324 4.78147C6.55078 4.78147 6.21331 5.11901 6.21331 5.53155C6.21331 5.94409 6.55078 6.28162 6.96324 6.28162C7.37571 6.28162 7.71318 5.94409 7.71318 5.53155C7.71318 5.11901 7.37571 4.78147 6.96324 4.78147ZM9.50553 4.78147C9.09306 4.78147 8.75559 5.11901 8.75559 5.53155C8.75559 5.94409 9.09306 6.28162 9.50553 6.28162C9.91799 6.28162 10.2555 5.94409 10.2555 5.53155C10.2555 5.11901 9.91799 4.78147 9.50553 4.78147ZM19.8171 2.53125H3.24356C2.02117 2.53125 1.03125 3.52135 1.03125 4.74397V18.3203C1.03125 19.5429 2.02117 20.533 3.24356 20.533H14.3464C14.6576 20.533 14.9088 20.2818 14.9088 19.9705H14.9051C14.9051 19.6592 14.6538 19.4079 14.3426 19.4079H3.57353C2.78985 19.4079 2.15615 18.7741 2.15615 17.9903V8.53184H20.9046V12.8448C20.9046 13.1561 21.1558 13.4073 21.467 13.4073C21.7782 13.4073 22.0295 13.1561 22.0295 12.8448V4.74397C22.0295 3.52135 21.0395 2.53125 19.8171 2.53125ZM20.9046 7.40673H2.15615V4.98399C2.15615 4.24892 2.75235 3.65636 3.48354 3.65636H19.5359C20.2934 3.65636 20.9046 4.27142 20.9046 5.02525V7.40673ZM21.0658 15.2413C19.8471 14.0261 17.8561 14.0486 16.6674 15.305C15.5988 16.4376 15.565 18.2641 16.5962 19.4304C17.6273 20.5968 19.4497 20.7918 20.6983 19.8805L22.1494 21.3281C22.3369 21.5156 22.6407 21.5156 22.8281 21.3281C23.0156 21.1406 23.0156 20.8368 22.8281 20.6493L21.377 19.2017C22.2507 18.0015 22.1494 16.3176 21.0658 15.2375V15.2413ZM20.3871 18.8979C19.5659 19.7155 18.2273 19.7155 17.4061 18.8979C16.5812 18.0803 16.5849 16.7414 17.4061 15.9201C18.2273 15.0987 19.5659 15.1025 20.3871 15.9201C21.212 16.7377 21.2083 18.0765 20.3871 18.8979Z" fill="#191F28"/>
</svg>
