<svg width="12" height="12" viewBox="0 0 12 12" fill="none" xmlns="http://www.w3.org/2000/svg">
<path d="M10.3969 4.41679H10.4479L10.4494 4.41829C10.9669 4.41829 11.3869 4.83829 11.3869 5.35579V6.88129C11.3869 7.38829 10.9849 7.79929 10.4839 7.81729V7.68929C10.4839 9.34679 9.14137 11.1893 7.48387 11.1893H5.99738C5.50087 11.1893 5.09737 10.7858 5.09737 10.2893C5.09737 9.79279 5.50087 9.38929 5.99738 9.38929C6.44287 9.38929 6.81187 9.71329 6.88387 10.1393H7.48387C8.55937 10.1393 9.43388 8.76479 9.43388 7.68929V5.28679C9.43388 3.39229 7.89188 1.85029 5.99738 1.85029C4.10287 1.85029 2.56088 3.39229 2.56088 5.28679V6.88129C2.56088 7.39879 2.14088 7.81879 1.62338 7.81879H1.54688C1.02938 7.81879 0.609375 7.39879 0.609375 6.88129V5.35429C0.609375 4.83679 1.02938 4.41679 1.54688 4.41679H1.59488C1.99988 2.35579 3.81638 0.800293 5.99588 0.800293C8.17538 0.800293 9.99188 2.35579 10.3969 4.41679Z" fill="#87929A"/>
<path d="M6.74951 4.39813C6.74951 3.98413 6.41351 3.64813 5.99951 3.64813C5.58551 3.64813 5.24951 3.98413 5.24951 4.39813C5.24951 4.81213 5.58551 5.14663 5.99951 5.14663C6.41351 5.14663 6.74801 4.81213 6.74951 4.39813Z" fill="#87929A"/>
<path d="M5.99941 5.52313C5.66791 5.52313 5.39941 5.79163 5.39941 6.12313V7.92313C5.39941 8.25463 5.66791 8.52313 5.99941 8.52313C6.33091 8.52313 6.59941 8.25463 6.59941 7.92313V6.12313C6.59941 5.79163 6.33091 5.52313 5.99941 5.52313Z" fill="#87929A"/>
</svg>
