<svg width="24" height="24" viewBox="0 0 24 24" fill="none" xmlns="http://www.w3.org/2000/svg">
<path d="M13.2 2.15869C7.86598 2.15869 3.52678 6.43309 3.39718 11.7539V11.9999H0.550781L4.86358 16.6727L9.05638 11.9999H5.84998V11.7539C5.97838 7.79029 9.21958 4.61989 13.2 4.61989C17.2632 4.61989 20.5572 7.92469 20.5572 11.9999C20.5572 16.0751 17.2632 19.3799 13.2 19.3799C11.6334 19.3807 10.1078 18.8789 8.84758 17.9483L7.16038 19.7531C8.8824 21.1065 11.0097 21.8412 13.2 21.8387C18.618 21.8387 23.0088 17.4347 23.0088 11.9999C23.0088 6.56509 18.618 2.15869 13.2 2.15869Z" fill="#191F28"/>
<path d="M18 11.9999H14V6.99989H12V13.9999H18V11.9999Z" fill="#191F28"/>
</svg>
