<svg width="24" height="24" viewBox="0 0 24 24" fill="none" xmlns="http://www.w3.org/2000/svg">
<path d="M4.4081 13.2414C2.27338 10.3745 1.12008 6.88124 2.81384 3.8583C2.86812 3.75882 2.92239 3.6616 2.97666 3.56212C3.85181 1.92516 4.97118 1.83246 6.72374 2.1377C7.07199 2.19874 7.30491 2.45197 7.43607 2.7979C7.95844 4.1658 8.4876 5.53369 9.02581 6.89707C9.24064 7.44422 9.09591 7.89642 8.70469 8.28305C8.43785 8.54532 8.13031 8.7669 7.85216 9.02013C7.25064 9.56502 7.13305 10.1031 7.44738 10.8447C7.76623 11.5954 8.23659 12.2533 8.75671 12.8751C9.89643 14.2407 11.1764 15.4526 12.7435 16.3276C13.8335 16.9381 14.383 16.8341 15.2084 15.8935C15.3938 15.681 15.5747 15.4639 15.776 15.2672C16.1627 14.8829 16.6262 14.7969 17.1283 14.9891C18.4987 15.5137 19.86 16.0586 21.2304 16.5786C21.7234 16.7663 21.945 17.1438 21.9698 17.6164C22.0784 19.6965 21.9834 20.1736 20.1359 21.1752C17.7954 22.4458 15.473 22.127 13.2025 21.0418C9.83764 19.4342 7.19863 16.9494 4.95083 14.0192L4.41263 13.2391L4.4081 13.2414Z" fill="#191F28"/>
</svg>
