<svg width="24" height="24" viewBox="0 0 24 24" fill="none" xmlns="http://www.w3.org/2000/svg">
<path d="M10.9457 19.9457C10.9457 20.528 11.4177 21 12 21C12.5823 21 13.0543 20.528 13.0543 19.9457V13.0543H19.9457C20.528 13.0543 21 12.5823 21 12C21 11.4177 20.528 10.9457 19.9457 10.9457H13.0543V4.05427C13.0543 3.47201 12.5823 3 12 3C11.4178 3 10.9457 3.47201 10.9457 4.05426L10.9457 10.9457H4.05427C3.47201 10.9457 3 11.4177 3 12C3 12.5823 3.47201 13.0543 4.05427 13.0543H10.9457V19.9457Z" fill="#313131"/>
</svg>
