<svg width="20" height="20" viewBox="0 0 20 20" fill="none" xmlns="http://www.w3.org/2000/svg">
<circle cx="10" cy="10" r="10" fill="#191F28"/>
<path fill-rule="evenodd" clip-rule="evenodd" d="M16 10C16 13.312 13.312 16 10 16C6.688 16 4 13.312 4 10C4 6.688 6.688 4 10 4C13.312 4 16 6.688 16 10ZM9.2 10L9.2 12.96C9.2 13.0925 9.30745 13.2 9.44 13.2H10.56C10.6925 13.2 10.8 13.0925 10.8 12.96V10L12.6206 10C12.8344 10 12.9415 9.74149 12.7903 9.59029L10.1697 6.96971C10.076 6.87598 9.92402 6.87598 9.8303 6.96971L7.20971 9.59029C7.05851 9.74149 7.16559 10 7.37941 10L9.2 10Z" fill="white"/>
</svg>
