<svg width="24" height="24" viewBox="0 0 24 24" fill="none" xmlns="http://www.w3.org/2000/svg">
<path d="M15.0927 15.8047L19.6881 11.2093C20.6374 10.26 20.6374 8.71424 19.6881 7.76492L16.2437 4.31209C15.2944 3.36277 13.7486 3.36277 12.7992 4.31209L8.19547 8.90746L5.9944 9.63835C5.42313 9.83158 5.2467 10.5541 5.67516 10.9825L8.76674 14.0741L4.23858 18.6107C3.82693 19.0223 3.6001 19.5768 3.6001 20.1565C3.6001 20.2909 3.70931 20.4001 3.84373 20.4001C4.4234 20.4001 4.97787 20.1733 5.38952 19.7616L9.91769 15.2335L13.0093 18.325C13.4377 18.7535 14.1602 18.5771 14.3534 18.0058L15.0843 15.8047H15.0927Z" fill="#313131"/>
</svg>
