<svg width="24" height="24" viewBox="0 0 24 24" fill="none" xmlns="http://www.w3.org/2000/svg">
<path d="M15.0926 15.8048L19.688 11.2094C20.6373 10.2601 20.6373 8.71433 19.688 7.76501L16.2436 4.31218C15.2943 3.36286 13.7485 3.36286 12.7992 4.31218L8.19538 8.90755L5.99431 9.63844C5.42303 9.83167 5.24661 10.5542 5.67507 10.9826L8.76665 14.0742L4.23849 18.6108C3.82683 19.0224 3.60001 19.5769 3.60001 20.1566C3.60001 20.291 3.70922 20.4002 3.84364 20.4002C4.42331 20.4002 4.97778 20.1734 5.38943 19.7617L9.9176 15.2335L13.0092 18.3251C13.4376 18.7536 14.1601 18.5772 14.3534 18.0059L15.0842 15.8048H15.0926Z" fill="#191F28"/>
</svg>
