<svg width="25" height="24" viewBox="0 0 25 24" fill="none" xmlns="http://www.w3.org/2000/svg">
<path fill-rule="evenodd" clip-rule="evenodd" d="M17.3462 5.07692H7.65385C7.10301 5.07692 6.57474 5.29574 6.18524 5.68524C5.79574 6.07474 5.57692 6.60301 5.57692 7.15385V14.1143L6.90892 13.1451C7.32807 12.8405 7.83379 12.6784 8.35188 12.6823C8.86996 12.6863 9.37313 12.8563 9.78754 13.1672L11.0725 14.1309L14.3512 11.3202C14.802 10.9341 15.3788 10.7269 15.9722 10.7379C16.5655 10.7489 17.1343 10.9772 17.5705 11.3797L19.4231 13.0897V7.15385C19.4231 6.60301 19.2043 6.07474 18.8148 5.68524C18.4253 5.29574 17.897 5.07692 17.3462 5.07692ZM21.5 7.15385C21.5 6.05218 21.0624 4.99563 20.2834 4.21663C19.5044 3.43764 18.4478 3 17.3462 3H7.65385C6.55218 3 5.49563 3.43764 4.71663 4.21663C3.93764 4.99563 3.5 6.05218 3.5 7.15385V16.8462C3.5 17.9478 3.93764 19.0044 4.71663 19.7834C5.49563 20.5624 6.55218 21 7.65385 21H17.3462C18.4478 21 19.5044 20.5624 20.2834 19.7834C21.0624 19.0044 21.5 17.9478 21.5 16.8462V7.15385ZM19.4231 15.9157L16.1623 12.9055C16.1 12.8481 16.0188 12.8156 15.934 12.814C15.8493 12.8125 15.767 12.8421 15.7026 12.8972L11.1583 16.7935L8.54 14.8302C8.48088 14.7861 8.40925 14.7621 8.33553 14.7616C8.26181 14.7611 8.18986 14.7841 8.13015 14.8274L5.57692 16.6814V16.8462C5.57692 17.397 5.79574 17.9253 6.18524 18.3148C6.57474 18.7043 7.10301 18.9231 7.65385 18.9231H17.3462C17.897 18.9231 18.4253 18.7043 18.8148 18.3148C19.2043 17.9253 19.4231 17.397 19.4231 16.8462V15.9157ZM11.8077 9.23077C11.8077 9.7816 11.5889 10.3099 11.1994 10.6994C10.8099 11.0889 10.2816 11.3077 9.73077 11.3077C9.17993 11.3077 8.65166 11.0889 8.26216 10.6994C7.87266 10.3099 7.65385 9.7816 7.65385 9.23077C7.65385 8.67993 7.87266 8.15166 8.26216 7.76216C8.65166 7.37266 9.17993 7.15385 9.73077 7.15385C10.2816 7.15385 10.8099 7.37266 11.1994 7.76216C11.5889 8.15166 11.8077 8.67993 11.8077 9.23077Z" fill="#191F28"/>
</svg>
