<svg width="12" height="12" viewBox="0 0 12 12" fill="none" xmlns="http://www.w3.org/2000/svg">
<path d="M10.875 6.53069C10.875 6.00265 10.6184 5.5284 10.2122 5.21167L9.45594 3.1292C9.21233 2.596 8.64915 2.25 8.02577 2.25H4.04277C3.43143 2.25 2.87705 2.58266 2.62603 3.10037L1.80304 5.19919C1.38853 5.51592 1.125 5.99576 1.125 6.53069V8.40615H1.15047C1.13426 8.46339 1.125 8.52321 1.125 8.58475V8.86017C1.125 9.24835 1.46355 9.5625 1.88084 9.5625C2.29813 9.5625 2.63669 9.24792 2.63669 8.86017V8.58475C2.63669 8.52278 2.62742 8.46296 2.61121 8.40615H9.38832C9.37211 8.46339 9.36285 8.52321 9.36285 8.58475V8.86017C9.36285 9.24835 9.70141 9.5625 10.1187 9.5625C10.5364 9.5625 10.8745 9.24792 10.8745 8.86017V8.58475C10.8745 8.52278 10.8653 8.46296 10.8491 8.40615H10.8745V6.53069H10.875ZM3.30499 3.52383C3.50553 3.11027 3.94829 2.84431 4.43644 2.84431H7.61821C8.11608 2.84431 8.56579 3.1206 8.76077 3.54664L9.22298 4.81919C9.19149 4.81617 9.15953 4.81359 9.12758 4.81187L8.47085 4.77701C6.82485 4.68965 5.17469 4.68965 3.52869 4.77701L2.87196 4.81187C2.84695 4.81316 2.82194 4.81531 2.79739 4.81747L3.30453 3.52383H3.30499ZM2.77655 7.14953C2.44541 7.14953 2.17725 6.90036 2.17725 6.59266C2.17725 6.28496 2.44541 6.03579 2.77655 6.03579C3.1077 6.03579 3.37585 6.28496 3.37585 6.59266C3.37585 6.90036 3.1077 7.14953 2.77655 7.14953ZM7.15322 6.83882H4.83104C4.60456 6.83882 4.42116 6.6684 4.42116 6.45796C4.42116 6.24752 4.60456 6.0771 4.83104 6.0771H7.15322C7.37969 6.0771 7.56309 6.24752 7.56309 6.45796C7.56309 6.6684 7.37969 6.83882 7.15322 6.83882ZM9.20446 7.14953C8.87331 7.14953 8.60516 6.90036 8.60516 6.59266C8.60516 6.28496 8.87331 6.03579 9.20446 6.03579C9.5356 6.03579 9.80376 6.28496 9.80376 6.59266C9.80376 6.90036 9.5356 7.14953 9.20446 7.14953Z" fill="#87929A"/>
</svg>
