<svg width="24" height="24" viewBox="0 0 24 24" fill="none" xmlns="http://www.w3.org/2000/svg">
<path d="M20.62 5.08C20.24 4.54 18.74 4.03 15.73 3L15.16 2.8C13.59 2.26 12.81 2 12 2C11.19 2 10.41 2.27 8.84 2.8L8.27 3C5.26 4.03 3.76 4.54 3.38 5.08C3 5.62 3 7.22 3 10.41V11.98C3 17.62 7.24 20.35 9.9 21.52C10.62 21.84 10.98 21.99 12 21.99C13.02 21.99 13.38 21.83 14.1 21.52C16.76 20.36 21 17.62 21 11.98V10.41C21 7.21 21 5.61 20.62 5.08ZM12 6.97C13.12 6.97 14.03 7.88 14.03 9C14.03 10.12 13.12 11.03 12 11.03C10.88 11.03 9.97 10.12 9.97 9C9.97 7.88 10.88 6.97 12 6.97ZM12 17C8 17 8 16.1 8 15C8 13.9 9.79 13 12 13C14.21 13 16 13.9 16 15C16 16.1 16 17 12 17Z" fill="#313131"/>
</svg>
