<svg width="24" height="24" viewBox="0 0 24 24" fill="none" xmlns="http://www.w3.org/2000/svg">
<path d="M12 11.628C10.4875 11.628 9.25 11.132 8.2875 10.1401C7.325 9.14815 6.84375 7.87279 6.84375 6.31401C6.84375 4.75523 7.325 3.47987 8.2875 2.48792C9.25 1.49597 10.4875 1 12 1C13.5125 1 14.75 1.49597 15.7125 2.48792C16.675 3.47987 17.1562 4.75523 17.1562 6.31401C17.1562 7.87279 16.675 9.14815 15.7125 10.1401C14.75 11.132 13.5125 11.628 12 11.628ZM3.61937 23C2.17563 23 1 21.7884 1 20.3005V19.6699C1 18.7701 1.22 18.0048 1.65312 17.3672C2.08625 16.7295 2.65 16.2477 3.3375 15.9147C4.87063 15.2061 6.34875 14.6747 7.75812 14.3205C9.1675 13.9662 10.5837 13.7891 12 13.7891C13.4163 13.7891 14.8325 13.9733 16.2281 14.3346C17.6237 14.7031 19.095 15.2274 20.6281 15.9147C21.3362 16.2477 21.9137 16.7295 22.3469 17.3672C22.78 18.0048 23 18.7701 23 19.6699V20.3005C23 21.7884 21.8244 23 20.3806 23H3.61937Z" fill="#313131"/>
</svg>
