<svg width="24" height="24" viewBox="0 0 24 24" fill="none" xmlns="http://www.w3.org/2000/svg">
<path d="M12.0002 2.75024C6.89274 2.75024 2.75049 6.89024 2.75049 12C2.75049 17.1097 6.89274 21.2497 12.0002 21.2497C17.1092 21.2497 21.25 17.1097 21.25 12C21.25 6.89024 17.11 2.75024 12.0002 2.75024ZM12.0002 5.00024C13.3877 5.00024 14.6792 5.41124 15.7682 6.11024L6.11049 15.768C5.3856 14.645 5.00018 13.3366 5.00049 12C5.00049 8.14049 8.14074 5.00024 12.0002 5.00024ZM12.0002 18.9997C10.6637 18.9996 9.35543 18.6142 8.23224 17.8897L17.8892 8.23199C18.6141 9.35501 18.9995 10.6633 18.9992 12C18.9992 15.8595 15.8597 18.9997 12.0002 18.9997Z" fill="#313131"/>
</svg>
