<svg width="24" height="24" viewBox="0 0 24 24" fill="none" xmlns="http://www.w3.org/2000/svg">
<path d="M19.2544 8.22222H18.218V3.5H5.78168V8.22222H4.74532C3.02496 8.22222 1.63623 9.48778 1.63623 11.0556V16.7222H5.78168V20.5H18.218V16.7222H22.3635V11.0556C22.3635 9.48778 20.9748 8.22222 19.2544 8.22222ZM7.85441 5.38889H16.1453V8.22222H7.85441V5.38889ZM16.1453 18.6111H7.85441V14.8333H16.1453V18.6111ZM18.218 14.8333V12.9444H5.78168V14.8333H3.70896V11.0556C3.70896 10.5361 4.17532 10.1111 4.74532 10.1111H19.2544C19.8244 10.1111 20.2908 10.5361 20.2908 11.0556V14.8333H18.218Z" fill="#313131"/>
<path d="M18.218 12.4722C18.7904 12.4722 19.2544 12.0494 19.2544 11.5278C19.2544 11.0062 18.7904 10.5833 18.218 10.5833C17.6457 10.5833 17.1817 11.0062 17.1817 11.5278C17.1817 12.0494 17.6457 12.4722 18.218 12.4722Z" fill="#313131"/>
</svg>
