<svg width="24" height="24" viewBox="0 0 24 24" fill="none" xmlns="http://www.w3.org/2000/svg">
<path d="M17.6442 2.85556C17.6442 2.38305 18.0273 2 18.4998 2C18.9723 2 19.3553 2.38304 19.3553 2.85555V4.64444H21.1442C21.6167 4.64444 21.9998 5.02749 21.9998 5.5C21.9998 5.97251 21.6167 6.35556 21.1442 6.35556H19.3553V8.14444C19.3553 8.61695 18.9723 9 18.4998 9C18.0273 9 17.6442 8.61696 17.6442 8.14445V6.35556H15.8553C15.3828 6.35556 14.9998 5.97251 14.9998 5.5C14.9998 5.02749 15.3828 4.64444 15.8553 4.64444H17.6442V2.85556Z" fill="#313131"/>
<path d="M3.06644 19.8316C3.06644 20.7765 3.811 21.5459 4.72538 21.5459H15.3408C16.2552 21.5459 16.9998 20.7765 16.9998 19.8316V19.4311C16.9998 18.8597 16.8604 18.3737 16.5861 17.9688C16.3118 17.5638 15.9461 17.2578 15.4976 17.0464C14.5266 16.6099 13.5948 16.277 12.7109 16.043C11.827 15.8135 10.9301 15.6965 10.0331 15.6965C9.13615 15.6965 8.23919 15.809 7.34659 16.034C6.45398 16.259 5.51784 16.5964 4.54686 17.0464C4.11144 17.2578 3.7544 17.5638 3.48009 17.9688C3.20577 18.3737 3.06644 18.8597 3.06644 19.4311V19.8316Z" fill="#313131"/>
<path d="M7.64858 12.5044C8.25816 13.1343 9.04191 13.4493 9.99983 13.4493C10.9577 13.4493 11.7415 13.1343 12.3511 12.5044C12.9607 11.8745 13.2655 11.0645 13.2655 10.0746C13.2655 9.08476 12.9607 8.27484 12.3511 7.64491C11.7415 7.01498 10.9577 6.70001 9.99983 6.70001C9.04191 6.70001 8.25816 7.01498 7.64858 7.64491C7.039 8.27484 6.7342 9.08476 6.7342 10.0746C6.7342 11.0645 7.039 11.8745 7.64858 12.5044Z" fill="#313131"/>
</svg>
