<svg width="24" height="24" viewBox="0 0 24 24" fill="none" xmlns="http://www.w3.org/2000/svg">
<path d="M16.8462 5.07692C17.397 5.07692 17.9253 5.29574 18.3148 5.68524C18.7043 6.07474 18.9231 6.60301 18.9231 7.15385V13.0897L17.0705 11.3797C16.6343 10.9772 16.0655 10.7489 15.4722 10.7379C14.8788 10.7269 14.302 10.9341 13.8512 11.3202L10.5725 14.1309L9.28754 13.1672C8.87313 12.8563 8.36996 12.6863 7.85188 12.6823C7.33379 12.6784 6.82807 12.8405 6.40892 13.1451L5.07692 14.1143V7.15385C5.07692 6.60301 5.29574 6.07474 5.68524 5.68524C6.07474 5.29574 6.60301 5.07692 7.15385 5.07692H16.8462ZM21 7.15385C21 6.05218 20.5624 4.99563 19.7834 4.21663C19.0044 3.43764 17.9478 3 16.8462 3H7.15385C6.05218 3 4.99563 3.43764 4.21663 4.21663C3.43764 4.99563 3 6.05218 3 7.15385V16.8462C3 17.9478 3.43764 19.0044 4.21663 19.7834C4.99563 20.5624 6.05218 21 7.15385 21H16.8462C17.9478 21 19.0044 20.5624 19.7834 19.7834C20.5624 19.0044 21 17.9478 21 16.8462V7.15385ZM18.9231 15.9157V16.8462C18.9231 17.397 18.7043 17.9253 18.3148 18.3148C17.9253 18.7043 17.397 18.9231 16.8462 18.9231H7.15385C6.60301 18.9231 6.07474 18.7043 5.68524 18.3148C5.29574 17.9253 5.07692 17.397 5.07692 16.8462V16.6814L7.63015 14.8274C7.68986 14.7841 7.76181 14.7611 7.83553 14.7616C7.90925 14.7621 7.98088 14.7861 8.04 14.8302L10.6583 16.7935L15.2026 12.8972C15.267 12.8421 15.3493 12.8125 15.434 12.814C15.5188 12.8156 15.6 12.8481 15.6623 12.9055L18.9231 15.9157ZM11.3077 9.23077C11.3077 9.7816 11.0889 10.3099 10.6994 10.6994C10.3099 11.0889 9.7816 11.3077 9.23077 11.3077C8.67993 11.3077 8.15166 11.0889 7.76216 10.6994C7.37266 10.3099 7.15385 9.7816 7.15385 9.23077C7.15385 8.67993 7.37266 8.15166 7.76216 7.76216C8.15166 7.37266 8.67993 7.15385 9.23077 7.15385C9.7816 7.15385 10.3099 7.37266 10.6994 7.76216C11.0889 8.15166 11.3077 8.67993 11.3077 9.23077Z" fill="#313131"/>
</svg>
