<svg width="24" height="24" viewBox="0 0 24 24" fill="none" xmlns="http://www.w3.org/2000/svg">
<path d="M21.3497 11.1453H12.8632V2.65878C12.8632 2.18259 12.4805 1.79993 12.0043 1.79993C11.5281 1.79993 11.1454 2.18259 11.1454 2.65878V11.1453H2.65891C2.18271 11.1453 1.80005 11.528 1.80005 12.0042C1.80005 12.4804 2.18271 12.863 2.65891 12.863H11.1454V21.3411C11.1454 21.8173 11.5281 22.1999 12.0043 22.1999C12.4805 22.1999 12.8632 21.8173 12.8632 21.3411V12.863H21.3412C21.8174 12.863 22.2001 12.4804 22.2001 12.0042C22.2001 11.528 21.8174 11.1453 21.3412 11.1453H21.3497Z" fill="#191F28"/>
</svg>
