<svg width="24" height="24" viewBox="0 0 24 24" fill="none" xmlns="http://www.w3.org/2000/svg">
<path fill-rule="evenodd" clip-rule="evenodd" d="M16.2748 11.1365C16.3882 11.1365 16.5005 11.1588 16.6053 11.2022C16.71 11.2456 16.8052 11.3092 16.8854 11.3894C16.9656 11.4696 17.0292 11.5648 17.0726 11.6695C17.116 11.7743 17.1383 11.8866 17.1383 12C17.1383 12.1134 17.116 12.2257 17.0726 12.3305C17.0292 12.4352 16.9656 12.5304 16.8854 12.6106C16.8052 12.6908 16.71 12.7544 16.6053 12.7978C16.5005 12.8412 16.3882 12.8635 16.2748 12.8635H12.8635V16.2748C12.8638 16.3883 12.8417 16.5007 12.7984 16.6056C12.7552 16.7106 12.6916 16.8059 12.6113 16.8861C12.5311 16.9664 12.4357 17.03 12.3308 17.0733C12.2259 17.1165 12.1135 17.1386 12 17.1383C11.8866 17.1384 11.7742 17.1161 11.6694 17.0728C11.5646 17.0294 11.4694 16.9658 11.3892 16.8856C11.309 16.8054 11.2454 16.7102 11.202 16.6054C11.1587 16.5006 11.1364 16.3882 11.1365 16.2748V12.8635H7.72519C7.61179 12.8635 7.49951 12.8412 7.39474 12.7978C7.28997 12.7544 7.19478 12.6908 7.1146 12.6106C7.03441 12.5304 6.97081 12.4352 6.92741 12.3305C6.88401 12.2257 6.86168 12.1134 6.86168 12C6.86168 11.8866 6.88401 11.7743 6.92741 11.6695C6.97081 11.5648 7.03441 11.4696 7.1146 11.3894C7.19478 11.3092 7.28997 11.2456 7.39474 11.2022C7.49951 11.1588 7.61179 11.1365 7.72519 11.1365H11.1365V7.72519C11.1365 7.61179 11.1588 7.49951 11.2022 7.39474C11.2456 7.28997 11.3092 7.19478 11.3894 7.1146C11.4696 7.03441 11.5648 6.97081 11.6695 6.92741C11.7743 6.88402 11.8866 6.86168 12 6.86168C12.1134 6.86168 12.2257 6.88401 12.3305 6.92741C12.4352 6.97081 12.5304 7.03441 12.6106 7.11459C12.6908 7.19478 12.7544 7.28997 12.7978 7.39474C12.8412 7.49951 12.8635 7.61179 12.8635 7.72519V11.1365L16.2748 11.1365ZM5.28244 5.28244C1.57252 8.99237 1.57252 15.0076 5.28244 18.7176C8.99237 22.4275 15.0076 22.4275 18.7176 18.7176C22.4275 15.0076 22.4275 8.99237 18.7176 5.28244C15.0076 1.57252 8.99237 1.57252 5.28244 5.28244Z" fill="#313131"/>
</svg>
