<svg width="24" height="24" viewBox="0 0 24 24" fill="none" xmlns="http://www.w3.org/2000/svg">
<path fill-rule="evenodd" clip-rule="evenodd" d="M15.6125 10.9843C15.3647 12.063 14.622 12.538 14.0787 12.886C13.5165 13.2453 13.3222 13.3956 13.3222 13.9043C13.3222 14.1104 13.2403 14.3081 13.0945 14.4539C12.9488 14.5997 12.7511 14.6815 12.5449 14.6815C12.3388 14.6815 12.1411 14.5997 11.9953 14.4539C11.8495 14.3081 11.7676 14.1104 11.7676 13.9043C11.7676 12.5181 12.6192 11.974 13.241 11.5759C13.735 11.2607 13.9967 11.075 14.0977 10.6363C14.185 10.2554 14.1159 9.91859 13.8905 9.63532C13.5951 9.26482 13.0674 9.02473 12.5449 9.02473C11.7003 9.02473 11.0128 9.71305 11.0128 10.5577C11.0128 10.7638 10.9309 10.9615 10.7852 11.1073C10.6394 11.2531 10.4417 11.335 10.2355 11.335C10.0294 11.335 9.8317 11.2531 9.68593 11.1073C9.54016 10.9615 9.45827 10.7638 9.45827 10.5577C9.45919 9.73934 9.78468 8.95477 10.3633 8.37611C10.942 7.79745 11.7266 7.47196 12.5449 7.47105C13.5372 7.47105 14.5183 7.92877 15.1065 8.66718C15.6264 9.32009 15.806 10.1431 15.6125 10.9843ZM12.5587 17.668C12.2839 17.668 12.0203 17.5588 11.8259 17.3645C11.6316 17.1701 11.5224 16.9065 11.5224 16.6316C11.5224 16.3568 11.6316 16.0932 11.8259 15.8988C12.0203 15.7045 12.2839 15.5953 12.5587 15.5953C12.8336 15.5953 13.0972 15.7045 13.2915 15.8988C13.4859 16.0932 13.5951 16.3568 13.5951 16.6316C13.5951 16.9065 13.4859 17.1701 13.2915 17.3645C13.0972 17.5588 12.8336 17.668 12.5587 17.668ZM12.5 3C7.25255 3 3 7.25341 3 12.5C3 17.7475 7.25255 22 12.5 22C17.7466 22 22 17.7475 22 12.5C22 7.25341 17.7466 3 12.5 3Z" fill="#313131"/>
</svg>
