<svg width="24" height="24" viewBox="0 0 24 24" fill="none" xmlns="http://www.w3.org/2000/svg">
<path fill-rule="evenodd" clip-rule="evenodd" d="M5.7 3H18.3C19.83 3 21 4.17 21 5.7V18.3C21 19.83 19.83 21 18.3 21H5.7C4.17 21 3 19.83 3 18.3V5.7C3 4.17 4.17 3 5.7 3ZM18.3 19.2C18.84 19.2 19.2 18.84 19.2 18.3V5.7C19.2 5.16 18.84 4.8 18.3 4.8H5.7C5.16 4.8 4.8 5.16 4.8 5.7V18.3C4.8 18.84 5.16 19.2 5.7 19.2H18.3ZM7.5 6.6H16.5C17.04 6.6 17.4 6.96 17.4 7.5C17.4 8.04 17.04 8.4 16.5 8.4H7.5C6.96 8.4 6.6 8.04 6.6 7.5C6.6 6.96 6.96 6.6 7.5 6.6ZM16.5 11.1H7.5C6.96 11.1 6.6 11.46 6.6 12C6.6 12.54 6.96 12.9 7.5 12.9H16.5C17.04 12.9 17.4 12.54 17.4 12C17.4 11.46 17.04 11.1 16.5 11.1ZM7.5 15.6H12.9C13.44 15.6 13.8 15.96 13.8 16.5C13.8 17.04 13.44 17.4 12.9 17.4H7.5C6.96 17.4 6.6 17.04 6.6 16.5C6.6 15.96 6.96 15.6 7.5 15.6Z" fill="#191F28"/>
</svg>
