<svg width="24" height="24" viewBox="0 0 24 24" fill="none" xmlns="http://www.w3.org/2000/svg">
<path d="M15.7986 9.08425L20.7748 8.38676C20.9488 8.36519 21.0722 8.19981 21.0431 8.03442L20.3395 3.10165C20.2597 2.5264 19.7229 2.13092 19.1426 2.21002C18.5623 2.28911 18.1633 2.82122 18.2431 3.39647L18.497 5.15817C17.7063 4.53259 16.8214 4.04363 15.8711 3.69848C14.8048 3.30299 13.6804 3.11603 12.5778 3.11603C11.1923 3.11603 9.81408 3.41085 8.51563 4.01486C6.17987 5.08627 4.40991 6.99897 3.53219 9.39345C1.71871 14.3334 4.3011 19.8199 9.27729 21.6247C10.3364 22.0058 11.4462 22.2 12.5343 22.2C14.6597 22.2 16.7633 21.5025 18.468 20.1866C18.9685 19.7983 18.9975 19.0576 18.5478 18.6118C18.1633 18.2307 17.5613 18.202 17.1333 18.5255C15.8058 19.5394 14.1809 20.0787 12.5343 20.0787C11.6783 20.0787 10.8224 19.9277 10.0027 19.6329C6.13635 18.2307 4.12701 13.9667 5.53427 10.1269C6.21614 8.26452 7.58713 6.77606 9.40061 5.94195C10.4017 5.47456 11.4825 5.24446 12.5488 5.24446C13.412 5.24446 14.2825 5.39546 15.1094 5.69747C15.8276 5.94914 16.4877 6.32305 17.097 6.79044L15.4866 7.01335C14.9063 7.09245 14.5074 7.62456 14.5872 8.19981C14.667 8.77506 15.2037 9.17054 15.7841 9.09144L15.7986 9.08425Z" fill="#313131"/>
</svg>
