<svg width="24" height="24" viewBox="0 0 24 24" fill="none" xmlns="http://www.w3.org/2000/svg">
<path d="M4 9.70182C4 9.25196 4.35066 8.88727 4.78322 8.88727H6.68531C7.11787 8.88727 7.46853 9.25196 7.46853 9.70182V19.1855C7.46853 19.6353 7.11787 20 6.68531 20H4.78322C4.35066 20 4 19.6353 4 19.1855V9.70182Z" fill="#191F28"/>
<path d="M10.2657 4.81455C10.2657 4.36468 10.6164 4 11.049 4H12.951C13.3836 4 13.7343 4.36468 13.7343 4.81455V19.1855C13.7343 19.6353 13.3836 20 12.951 20H11.049C10.6164 20 10.2657 19.6353 10.2657 19.1855V4.81455Z" fill="#191F28"/>
<path d="M16.5315 12.1455C16.5315 11.6956 16.8821 11.3309 17.3147 11.3309H19.2168C19.6493 11.3309 20 11.6956 20 12.1455V19.1855C20 19.6353 19.6493 20 19.2168 20H17.3147C16.8821 20 16.5315 19.6353 16.5315 19.1855V12.1455Z" fill="#191F28"/>
</svg>
