<svg width="24" height="24" viewBox="0 0 24 24" fill="none" xmlns="http://www.w3.org/2000/svg">
<path d="M2.5 9C2.5 8.44772 2.94772 8 3.5 8H6.5C7.05228 8 7.5 8.44772 7.5 9V21C7.5 21.5523 7.05228 22 6.5 22H3.5C2.94772 22 2.5 21.5523 2.5 21V9Z" fill="#313131"/>
<path d="M9.5 3C9.5 2.44772 9.94772 2 10.5 2H13.5C14.0523 2 14.5 2.44772 14.5 3V21C14.5 21.5523 14.0523 22 13.5 22H10.5C9.94772 22 9.5 21.5523 9.5 21V3Z" fill="#313131"/>
<path d="M16.5 12C16.5 11.4477 16.9477 11 17.5 11H20.5C21.0523 11 21.5 11.4477 21.5 12V21C21.5 21.5523 21.0523 22 20.5 22H17.5C16.9477 22 16.5 21.5523 16.5 21V12Z" fill="#313131"/>
</svg>
