<svg width="24" height="24" viewBox="0 0 24 24" fill="none" xmlns="http://www.w3.org/2000/svg">
<path d="M16.4086 8.35435L22.1836 7.53828C22.3856 7.51304 22.5288 7.31954 22.4951 7.12604L21.6785 1.3547C21.5859 0.681662 20.9629 0.218945 20.2895 0.311489C19.616 0.404032 19.153 1.0266 19.2456 1.69964L19.5402 3.76083C18.6226 3.0289 17.5956 2.45681 16.4928 2.05299C15.2553 1.59027 13.9504 1.37153 12.6709 1.37153C11.0629 1.37153 9.46346 1.71647 7.95657 2.42316C5.24586 3.6767 3.19177 5.91457 2.17315 8.71611C0.0685622 14.4959 3.0655 20.915 8.8405 23.0267C10.0696 23.4726 11.3576 23.6997 12.6203 23.6997C15.0869 23.6997 17.5282 22.8837 19.5066 21.3441C20.0874 20.8898 20.1211 20.0232 19.5992 19.5016C19.153 19.0557 18.4543 19.0221 17.9576 19.4007C16.417 20.5869 14.5313 21.2179 12.6203 21.2179C11.627 21.2179 10.6336 21.0412 9.68233 20.6963C5.19535 19.0557 2.86346 14.0668 4.49662 9.57424C5.28795 7.39526 6.87902 5.65376 8.98361 4.67785C10.1453 4.13101 11.3997 3.86179 12.6372 3.86179C13.639 3.86179 14.6492 4.03846 15.6089 4.39181C16.4423 4.68627 17.2083 5.12374 17.9155 5.67059L16.0466 5.93139C15.3731 6.02394 14.9101 6.6465 15.0027 7.31954C15.0953 7.99259 15.7183 8.4553 16.3918 8.36276L16.4086 8.35435Z" fill="#191F28"/>
</svg>
