<svg width="24" height="24" viewBox="0 0 24 24" fill="none" xmlns="http://www.w3.org/2000/svg">
<path d="M20.7947 8.8334H20.8967L20.8997 8.8364C21.9347 8.8364 22.7747 9.6764 22.7747 10.7114V13.7624C22.7747 14.7764 21.9707 15.5984 20.9687 15.6344V15.3784C20.9687 18.6934 18.2837 22.3784 14.9687 22.3784H11.9957C11.0027 22.3784 10.1957 21.5714 10.1957 20.5784C10.1957 19.5854 11.0027 18.7784 11.9957 18.7784C12.8867 18.7784 13.6247 19.4264 13.7687 20.2784H14.9687C17.1197 20.2784 18.8687 17.5294 18.8687 15.3784V10.5734C18.8687 6.7844 15.7847 3.7004 11.9957 3.7004C8.20673 3.7004 5.12273 6.7844 5.12273 10.5734V13.7624C5.12273 14.7974 4.28273 15.6374 3.24773 15.6374H3.09473C2.05973 15.6374 1.21973 14.7974 1.21973 13.7624V10.7084C1.21973 9.6734 2.05973 8.8334 3.09473 8.8334H3.19073C4.00073 4.7114 7.63373 1.6004 11.9927 1.6004C16.3517 1.6004 19.9847 4.7114 20.7947 8.8334Z" fill="#191F28"/>
<path d="M13.5 8.79608C13.5 7.96808 12.828 7.29608 12 7.29608C11.172 7.29608 10.5 7.96808 10.5 8.79608C10.5 9.62408 11.172 10.2931 12 10.2931C12.828 10.2931 13.497 9.62408 13.5 8.79608Z" fill="#191F28"/>
<path d="M11.9998 11.0461C11.3368 11.0461 10.7998 11.5831 10.7998 12.2461V15.8461C10.7998 16.5091 11.3368 17.0461 11.9998 17.0461C12.6628 17.0461 13.1998 16.5091 13.1998 15.8461V12.2461C13.1998 11.5831 12.6628 11.0461 11.9998 11.0461Z" fill="#191F28"/>
</svg>
