<svg width="24" height="24" viewBox="0 0 24 24" fill="none" xmlns="http://www.w3.org/2000/svg">
<path fill-rule="evenodd" clip-rule="evenodd" d="M14.5795 1.8295C15.0188 1.39017 15.7312 1.39017 16.1705 1.8295L20.6705 6.3295C21.1098 6.76884 21.1098 7.48116 20.6705 7.9205L16.1705 12.4205C15.7312 12.8598 15.0188 12.8598 14.5795 12.4205C14.1402 11.9812 14.1402 11.2688 14.5795 10.8295L17.159 8.25H4.125C3.50368 8.25 3 7.74632 3 7.125C3 6.50368 3.50368 6 4.125 6H17.159L14.5795 3.4205C14.1402 2.98116 14.1402 2.26884 14.5795 1.8295ZM9.4205 11.5795C9.85984 12.0188 9.85984 12.7312 9.4205 13.1705L6.84099 15.75H19.875C20.4963 15.75 21 16.2537 21 16.875C21 17.4963 20.4963 18 19.875 18H6.84099L9.4205 20.5795C9.85984 21.0188 9.85984 21.7312 9.4205 22.1705C8.98116 22.6098 8.26884 22.6098 7.8295 22.1705L3.3295 17.6705C2.89017 17.2312 2.89017 16.5188 3.3295 16.0795L7.8295 11.5795C8.26884 11.1402 8.98116 11.1402 9.4205 11.5795Z" fill="#313131"/>
</svg>
