<svg width="24" height="24" viewBox="0 0 24 24" fill="none" xmlns="http://www.w3.org/2000/svg">
<path d="M7.66684 16.6311C7.37498 16.8206 7.11936 16.9913 6.85945 17.1539C6.47364 17.3956 6.06541 17.5789 5.60329 17.6129C4.76156 17.6748 4.04669 17.2067 3.75626 16.4095C3.58743 15.9457 3.51208 15.4656 3.53259 14.9774C3.60079 13.3538 3.94988 11.7926 4.66332 10.3302C5.08204 9.47219 5.72633 8.82085 6.61957 8.4453C7.37307 8.12827 8.23722 8.31916 8.80044 8.91294C9.37892 9.52303 9.64884 10.2669 9.75996 11.0833C9.77713 11.208 9.79859 11.3384 9.78142 11.4612C9.73373 11.795 9.45665 12.019 9.12378 12.0152C8.78709 12.0113 8.53767 11.7763 8.47662 11.4248C8.42941 11.1538 8.3903 10.8765 8.30065 10.619C8.21862 10.383 8.09701 10.1528 7.95155 9.9499C7.69117 9.5873 7.33969 9.5331 6.95054 9.74893C6.53087 9.98203 6.20371 10.3087 5.96097 10.7216C5.52747 11.4583 5.29617 12.2684 5.11495 13.0958C4.96329 13.7869 4.81402 14.48 4.8579 15.1937C4.8722 15.4229 4.91226 15.6546 4.97283 15.8767C5.0706 16.2359 5.31382 16.3736 5.66624 16.2565C5.88228 16.1851 6.08401 16.0652 6.28383 15.951C6.73164 15.6954 7.1599 15.3985 7.6244 15.1807C7.8824 15.0599 8.19668 15.0364 8.48854 15.0191C8.84717 14.998 9.09946 15.2671 9.1419 15.6277C9.19579 16.0915 9.04175 16.5227 8.95591 16.9649C8.94875 17.0024 8.94303 17.0398 8.93254 17.0992C9.07752 17.0278 9.20437 16.9597 9.33504 16.9016C9.74327 16.7208 10.1381 16.7472 10.5054 17.0062C10.5969 17.0705 10.689 17.1597 10.7338 17.259C10.8001 17.4052 10.8859 17.4614 11.0433 17.4618C11.5069 17.4633 11.8898 17.6642 12.2251 17.9726C12.3629 18.0993 12.5079 18.2187 12.6447 18.3463C12.9113 18.5938 12.9423 18.9895 12.7206 19.2576C12.4878 19.5386 12.0996 19.5871 11.8049 19.3607C11.6523 19.2437 11.5102 19.1118 11.37 18.9799C11.2269 18.8456 11.0676 18.7631 10.8673 18.7736C10.8072 18.777 10.7467 18.7707 10.6861 18.7664C10.2717 18.7372 9.91209 18.6058 9.69415 18.2177C9.51531 18.3098 9.34601 18.4091 9.16718 18.4868C8.46756 18.7899 7.94583 18.4336 7.67972 17.8436C7.53474 17.5218 7.57576 17.1841 7.62917 16.8489C7.63871 16.7899 7.64968 16.7309 7.66684 16.6297V16.6311Z" fill="#313131"/>
<path d="M15.8858 10.0875C16.7394 10.4031 17.5759 10.7125 18.4262 11.0267C18.2684 11.4617 18.1172 11.8814 17.9641 12.2996C17.429 13.7649 16.9116 15.2373 16.3517 16.693C15.9764 17.669 15.3841 18.5185 14.5938 19.2C14.364 19.3986 14.2147 19.6015 14.1212 19.8758C14.0511 20.0811 13.8809 20.1612 13.7092 20.094C13.547 20.0303 13.4636 19.8533 13.548 19.6662C13.6696 19.3976 13.6586 19.1482 13.5962 18.8595C13.444 18.1611 13.527 17.4537 13.5985 16.7486C13.6796 15.9496 14.0154 15.2311 14.281 14.491C14.7889 13.0742 15.3101 11.6626 15.8261 10.2492C15.8428 10.2031 15.86 10.1576 15.8858 10.0875Z" fill="#313131"/>
<path d="M14.5523 9.28321C14.5728 9.1964 14.5852 9.10239 14.6172 9.0151C15.1413 7.58677 15.6673 6.15939 16.1953 4.7325C16.3097 4.42266 16.5391 4.26294 16.8305 4.27829C17.0947 4.29172 17.3327 4.47206 17.387 4.73873C17.4133 4.86679 17.408 5.01979 17.3637 5.1421C16.8405 6.58242 16.3088 8.01939 15.7751 9.45588C15.6626 9.75852 15.4322 9.91632 15.1523 9.90817C14.9129 9.90097 14.6863 9.73502 14.6024 9.5C14.5786 9.43334 14.57 9.36091 14.5523 9.28321Z" fill="#313131"/>
<path d="M19.5802 3.96463C20.2822 4.22231 20.6445 5.00474 20.3881 5.71122L18.8244 10.0204L16.2802 9.08655L17.8439 4.77739C18.1002 4.07136 18.8777 3.7068 19.5802 3.96463Z" fill="#313131"/>
</svg>
