<svg width="24" height="24" viewBox="0 0 24 24" fill="none" xmlns="http://www.w3.org/2000/svg">
<path d="M6 19.5H3C2.6023 19.4996 2.221 19.3414 1.93978 19.0602C1.65856 18.779 1.5004 18.3977 1.5 18V15H3V18H6V19.5ZM1.5 9H3V12H1.5V9ZM19.5 6H18V3H15V1.5H18C18.3977 1.5004 18.779 1.65856 19.0602 1.93978C19.3414 2.221 19.4996 2.6023 19.5 3V6ZM9 1.5H12V3H9V1.5ZM3 6H1.5V3C1.5004 2.6023 1.65856 2.221 1.93978 1.93978C2.221 1.65856 2.6023 1.5004 3 1.5H6V3H3V6ZM20.25 24C20.1515 24.0001 20.0539 23.9807 19.963 23.943C19.872 23.9053 19.7893 23.85 19.7197 23.7803L15.1163 19.1768L12.624 22.9163C12.545 23.0347 12.434 23.1282 12.3038 23.1859C12.1736 23.2436 12.0297 23.263 11.8889 23.2419C11.7481 23.2208 11.6163 23.1601 11.5087 23.0668C11.4011 22.9736 11.3223 22.8516 11.2815 22.7153L6.7815 7.71525C6.74263 7.58556 6.73959 7.44776 6.77271 7.31648C6.80582 7.1852 6.87386 7.06533 6.9696 6.9696C7.06533 6.87386 7.1852 6.80582 7.31648 6.77271C7.44776 6.73959 7.58556 6.74263 7.71525 6.7815L22.7153 11.2815C22.8516 11.3223 22.9736 11.4011 23.0668 11.5087C23.1601 11.6163 23.2208 11.7481 23.2419 11.8889C23.263 12.0297 23.2436 12.1736 23.1859 12.3038C23.1282 12.434 23.0347 12.545 22.9163 12.624L19.1768 15.1163L23.7803 19.7197C23.9209 19.8604 23.9998 20.0511 23.9998 20.25C23.9998 20.4489 23.9209 20.6396 23.7803 20.7803L20.7803 23.7803C20.7107 23.85 20.628 23.9053 20.537 23.943C20.4461 23.9807 20.3485 24.0001 20.25 24ZM20.25 22.1895L22.1895 20.25L16.8232 14.8837L20.7577 12.2603L8.619 8.619L12.2603 20.7577L14.8837 16.8232L20.25 22.1895Z" fill="#191F28"/>
</svg>
