<svg width="24" height="24" viewBox="0 0 24 24" fill="none" xmlns="http://www.w3.org/2000/svg">
<path d="M16.8568 4.88343C15.7049 3.73014 14.2447 2.93387 12.6515 2.59025C11.0583 2.24664 9.39981 2.3703 7.87512 2.94632C6.35044 3.52234 5.02436 4.52628 4.05611 5.8376C3.08786 7.14892 2.51857 8.71187 2.41661 10.3389C2.31465 11.9658 2.68436 13.5877 3.48131 15.0097C4.27827 16.4317 5.46862 17.5934 6.90945 18.3554C8.35029 19.1173 9.98037 19.4471 11.604 19.3052C13.2276 19.1633 14.7758 18.5556 16.0627 17.5552L20.1041 21.6L21.6 20.1013L17.5586 16.0566C18.8199 14.4273 19.4444 12.3942 19.3152 10.3376C19.186 8.28105 18.312 6.34202 16.8568 4.88343ZM15.3585 15.3678C14.4702 16.2558 13.3386 16.8605 12.1068 17.1053C10.8749 17.3501 9.59822 17.2241 8.43799 16.7432C7.27776 16.2623 6.28615 15.4482 5.58849 14.4036C4.89083 13.3591 4.51845 12.1311 4.51845 10.8749C4.51845 9.61876 4.89083 8.39081 5.58849 7.3463C6.28615 6.30178 7.27776 5.48764 8.43799 5.00676C9.59822 4.52588 10.8749 4.39989 12.1068 4.64469C13.3386 4.88949 14.4702 5.4941 15.3585 6.3821C16.5485 7.57438 17.2169 9.1902 17.2169 10.8749C17.2169 12.5597 16.5485 14.1756 15.3585 15.3678Z" fill="#191F28"/>
</svg>
