<svg width="24" height="24" viewBox="0 0 24 24" fill="none" xmlns="http://www.w3.org/2000/svg">
<path d="M22.5 12C22.5 17.796 17.796 22.5 12 22.5C6.204 22.5 1.5 17.796 1.5 12C1.5 6.204 6.204 1.5 12 1.5C17.796 1.5 22.5 6.204 22.5 12ZM17.502 8.22C17.1345 7.8525 16.536 7.8525 16.179 8.22L10.5825 13.8165L7.8315 11.0655C7.464 10.698 6.8655 10.698 6.5085 11.0655C6.141 11.433 6.141 12.0315 6.5085 12.3885L9.2595 15.1395L9.8895 15.7695C10.278 16.158 10.8975 16.158 11.286 15.7695L11.916 15.1395L17.5125 9.543C17.88 9.1755 17.88 8.577 17.5125 8.22H17.502Z" fill="#191F28"/>
</svg>
