<svg width="24" height="24" viewBox="0 0 24 24" fill="none" xmlns="http://www.w3.org/2000/svg">
<path d="M6.6 2.375C6.6 1.89175 7.00294 1.5 7.5 1.5H16.5C16.9971 1.5 17.4 1.89175 17.4 2.375V3.25H20.1C20.5971 3.25 21 3.64175 21 4.125V21.625C21 22.1082 20.5971 22.5 20.1 22.5H3.9C3.40294 22.5 3 22.1082 3 21.625V4.125C3 3.64175 3.40294 3.25 3.9 3.25H6.6V2.375ZM6.6 6.75C6.10294 6.75 5.7 7.14175 5.7 7.625C5.7 8.10825 6.10294 8.5 6.6 8.5H17.4C17.8971 8.5 18.3 8.10825 18.3 7.625C18.3 7.14175 17.8971 6.75 17.4 6.75H6.6ZM6.6 13.75C6.10294 13.75 5.7 14.1418 5.7 14.625C5.7 15.1082 6.10294 15.5 6.6 15.5H12.9C13.3971 15.5 13.8 15.1082 13.8 14.625C13.8 14.1418 13.3971 13.75 12.9 13.75H6.6ZM5.7 11.125C5.7 11.6082 6.10294 12 6.6 12H17.4C17.8971 12 18.3 11.6082 18.3 11.125C18.3 10.6418 17.8971 10.25 17.4 10.25H6.6C6.10294 10.25 5.7 10.6418 5.7 11.125Z" fill="#313131"/>
</svg>
