<svg width="24" height="24" viewBox="0 0 24 24" fill="none" xmlns="http://www.w3.org/2000/svg">
<path d="M17.1357 18.5646C14.9288 20.2748 12.4582 21.0106 9.70279 20.652C7.19558 20.3246 5.10879 19.1786 3.48501 17.2382C0.270844 13.4001 0.510531 7.86745 3.82686 4.31515C7.30003 0.59258 12.9641 0.177722 16.9153 3.22447C19.0765 4.89175 20.3404 7.10552 20.6665 9.81665C20.9926 12.5278 20.2513 14.9573 18.566 17.1331C18.5957 17.1496 18.6237 17.169 18.6495 17.1911C19.9254 18.4676 21.2008 19.7446 22.4756 21.022C22.7923 21.3393 22.8836 21.7663 22.7212 22.1641C22.4593 22.8059 21.6226 23.0118 21.1082 22.5472C20.787 22.2568 20.4904 21.9391 20.1842 21.6323C19.1822 20.6293 18.1807 19.626 17.1796 18.6223C17.1637 18.604 17.1491 18.5848 17.1357 18.5646ZM10.9723 3.25558C6.72701 3.26671 3.32424 6.6517 3.25809 10.8441C3.18966 15.1967 6.68477 18.6855 10.969 18.6878C11.995 18.689 13.011 18.4855 13.9574 18.0891C14.9037 17.6928 15.7615 17.1115 16.4803 16.3793C17.1991 15.6472 17.7645 14.779 18.1435 13.8255C18.5224 12.8721 18.7073 11.8526 18.6871 10.8268C18.6125 6.66545 15.232 3.26736 10.9723 3.25558Z" fill="#313131"/>
</svg>
