<svg width="24" height="24" viewBox="0 0 24 24" fill="none" xmlns="http://www.w3.org/2000/svg">
<path fill-rule="evenodd" clip-rule="evenodd" d="M11.9932 15.5003C11.5336 15.5003 11.0785 15.4098 10.6539 15.2339C10.2293 15.058 9.84345 14.8002 9.51846 14.4752C9.19347 14.1502 8.93568 13.7644 8.75979 13.3398C8.58391 12.9152 8.49338 12.4601 8.49338 12.0005C8.49338 11.5409 8.58391 11.0858 8.75979 10.6611C8.93568 10.2365 9.19347 9.85071 9.51846 9.52572C9.84345 9.20073 10.2293 8.94293 10.6539 8.76705C11.0785 8.59116 11.5336 8.50064 11.9932 8.50064C12.9214 8.50064 13.8116 8.86937 14.468 9.52572C15.1243 10.1821 15.4931 11.0723 15.4931 12.0005C15.4931 12.9287 15.1243 13.8189 14.468 14.4752C13.8116 15.1316 12.9214 15.5003 11.9932 15.5003ZM20.6156 13.8633C20.1355 13.3661 19.8675 12.7017 19.8682 12.0105V11.9905C19.8675 11.2993 20.1355 10.6349 20.6156 10.1377L21.5119 9.21177C21.8804 8.82996 21.951 8.24959 21.6866 7.79045L20.4858 5.71145C20.3569 5.48766 20.1586 5.31198 19.9209 5.21104C19.6832 5.1101 19.4191 5.0894 19.1685 5.15209L17.9133 5.46518C17.2393 5.63395 16.5259 5.53219 15.926 5.18168L15.9088 5.17214C15.3178 4.82871 14.883 4.26967 14.6955 3.61241L14.3366 2.36291C14.2659 2.11442 14.1161 1.89577 13.9099 1.74006C13.7037 1.58436 13.4524 1.50008 13.194 1.5H10.7924C10.2626 1.5 9.79491 1.85223 9.64981 2.36291L9.26322 3.70786C9.09348 4.30896 8.69448 4.81937 8.15213 5.12918C8.09611 5.16051 8.04074 5.19297 7.98604 5.22655C7.44186 5.55061 6.79151 5.64602 6.17718 5.49191L4.81695 5.15209C4.56653 5.08948 4.30253 5.11011 4.06487 5.21085C3.82721 5.3116 3.62881 5.48699 3.49968 5.7105L2.29981 7.79045C2.17076 8.01423 2.118 8.27392 2.14952 8.53032C2.18103 8.78672 2.29509 9.0259 2.4745 9.21177L3.37081 10.1377C3.85095 10.635 4.11918 11.2994 4.11918 11.9895V12.0105C4.11918 12.7016 3.85095 13.366 3.37081 13.8633L2.89068 14.3596C2.59126 14.6692 2.4008 15.0679 2.3481 15.4953C2.29541 15.9228 2.38333 16.3558 2.59859 16.7288L3.50063 18.2895C3.766 18.7496 4.30245 18.9777 4.81791 18.8489L6.17813 18.509C6.79246 18.3549 7.44282 18.4503 7.987 18.7744C8.04141 18.8078 8.09677 18.8403 8.15309 18.8718C8.69622 19.1791 9.09236 19.6917 9.26418 20.2931L9.64981 21.638C9.79491 22.1487 10.2626 22.5 10.7924 22.5H13.194C13.7238 22.5 14.1915 22.1487 14.3366 21.638L14.7223 20.2931C14.8941 19.6917 15.2902 19.1791 15.8334 18.8718C15.8897 18.8403 15.945 18.8078 15.9995 18.7744C16.5436 18.4503 17.194 18.3549 17.8083 18.509L19.1685 18.8489C19.419 18.9115 19.683 18.8908 19.9206 18.7901C20.1583 18.6894 20.3567 18.514 20.4858 18.2905L21.6866 16.2105C21.8157 15.9867 21.8684 15.727 21.8369 15.4706C21.8054 15.2142 21.6914 14.975 21.5119 14.7892L20.6147 13.8633H20.6156Z" fill="#313131"/>
</svg>
