<svg width="24" height="24" viewBox="0 0 24 24" fill="none" xmlns="http://www.w3.org/2000/svg">
<path d="M12.0003 17.2748L7.35025 20.0748C7.21692 20.1581 7.07525 20.1956 6.92525 20.1873C6.77525 20.179 6.64192 20.1331 6.52525 20.0498C6.40858 19.9665 6.32108 19.8581 6.26275 19.7248C6.20442 19.5915 6.19192 19.4415 6.22525 19.2748L7.45025 13.9748L3.35025 10.3998C3.21692 10.2831 3.13775 10.154 3.11275 10.0123C3.08775 9.87064 3.09192 9.73314 3.12525 9.5998C3.15858 9.46647 3.23358 9.35397 3.35025 9.2623C3.46692 9.17064 3.60858 9.11647 3.77525 9.0998L9.20025 8.6248L11.3003 3.6248C11.3669 3.4748 11.4669 3.3623 11.6003 3.2873C11.7336 3.2123 11.8669 3.1748 12.0003 3.1748C12.1336 3.1748 12.2669 3.2123 12.4003 3.2873C12.5336 3.3623 12.6336 3.4748 12.7003 3.6248L14.8003 8.6248L20.2253 9.0998C20.3919 9.11647 20.5336 9.17064 20.6503 9.2623C20.7669 9.35397 20.8419 9.46647 20.8753 9.5998C20.9086 9.73314 20.9128 9.87064 20.8878 10.0123C20.8628 10.154 20.7836 10.2831 20.6503 10.3998L16.5503 13.9748L17.7753 19.2748C17.8086 19.4415 17.7961 19.5915 17.7378 19.7248C17.6794 19.8581 17.5919 19.9665 17.4753 20.0498C17.3586 20.1331 17.2253 20.179 17.0753 20.1873C16.9253 20.1956 16.7836 20.1581 16.6503 20.0748L12.0003 17.2748Z" fill="#313131"/>
</svg>
