<svg width="24" height="24" viewBox="0 0 24 24" fill="none" xmlns="http://www.w3.org/2000/svg">
<path d="M19.5152 9.39062C19.5152 9.78779 19.5607 10.1918 19.5041 10.5813C19.4269 11.1154 19.3086 11.6494 19.1465 12.1648C18.789 13.2968 18.1854 14.308 17.4361 15.2214C16.8685 15.912 16.2718 16.5889 15.6159 17.1953C14.8477 17.9063 14.0049 18.5382 13.1878 19.1956C12.8526 19.4652 12.4908 19.7008 12.1572 19.9712C12.0304 20.0741 11.9369 20.0443 11.8374 19.9729C11.3968 19.6548 10.9535 19.3402 10.524 19.0076C9.55427 18.2575 8.60344 17.4845 7.7555 16.6C6.72322 15.5233 5.80069 14.3633 5.17995 12.994C4.84558 12.2558 4.57722 11.4989 4.51549 10.6867C4.47948 10.2105 4.43489 9.72655 4.47605 9.2537C4.59179 7.91252 5.04534 6.68275 5.82898 5.578C6.59462 4.49877 7.57802 3.67552 8.78006 3.11082C9.4711 2.78594 10.1947 2.56397 10.9569 2.48148C11.2707 2.44746 11.5854 2.39813 11.8992 2.40153C13.6542 2.42195 15.2558 2.89735 16.6482 3.99445C17.99 5.05157 18.8979 6.38509 19.2974 8.04434M8.58286 9.88219C8.52542 11.6622 10.127 13.4388 12.2293 13.2781C13.944 13.1471 15.4264 11.8289 15.4281 9.88049C15.4298 7.94824 13.9397 6.50671 11.9918 6.4846C10.0884 6.46248 8.55114 8.03158 8.58286 9.88219Z" fill="#313131"/>
<path d="M20.2285 16.7668C19.7715 16.7668 19.3351 16.7761 18.9004 16.7634C18.6801 16.7566 18.5377 16.8136 18.3903 17.0007C17.7755 17.7797 17.1239 18.5289 16.3703 19.1829C15.8027 19.6754 15.2574 20.1975 14.6607 20.6534C13.8239 21.2929 12.9494 21.6297 12.086 22.2344C12.0406 22.2667 11.9291 22.2591 11.8794 22.225C11.1883 21.7488 10.4853 21.543 9.81997 21.0327C9.11436 20.4909 8.4216 19.9279 7.76657 19.3267C6.9392 18.5672 6.17357 17.7448 5.47995 16.8595C5.4448 16.8144 5.37364 16.7719 5.31877 16.771C4.84721 16.7642 4.37566 16.7693 3.9041 16.7659C3.79179 16.7659 3.75492 16.7982 3.73263 16.919L3.00901 19.751C2.87183 20.4314 2.73122 21.1109 2.59489 21.7913C2.52888 22.1213 2.46715 22.4513 2.39941 22.7999H21.5994C21.1416 20.5292 20.6846 19.0299 20.2285 16.7668Z" fill="#313131"/>
</svg>
