<svg width="24" height="24" viewBox="0 0 24 24" fill="none" xmlns="http://www.w3.org/2000/svg">
<path d="M22.4802 10.6384L20.1048 7.15036C19.5423 6.3244 18.6081 5.83208 17.6056 5.83208H13.9207V4.27507C13.9207 3.57095 13.3468 3 12.6391 3H2.28168C1.57391 3 1 3.57095 1 4.27507V17.545C1 18.1415 1.41227 18.6416 1.96909 18.7804C2.224 20.5974 3.79548 22 5.69094 22C7.5864 22 9.13509 20.6173 9.40709 18.8201H13.5099C13.7819 20.6173 15.3441 22 17.226 22C19.108 22 20.6773 20.6109 20.9443 18.8074C22.0843 18.7712 23.0007 17.8376 23.0007 16.695V12.3229C23.0007 11.7201 22.8213 11.1371 22.4809 10.6384H22.4802ZM5.69094 19.7552C5.06149 19.7552 4.52248 19.3677 4.29961 18.8208C4.22912 18.648 4.18924 18.4595 4.18924 18.2612C4.18924 17.4374 4.86283 16.7672 5.69094 16.7672C6.51905 16.7672 7.19264 17.4374 7.19264 18.2612C7.19264 18.4588 7.15277 18.6473 7.08227 18.8208C6.8594 19.3684 6.32039 19.7552 5.69094 19.7552ZM15.0493 8.07762H17.6063C17.859 8.07762 18.0947 8.2023 18.2371 8.41056L20.6125 11.8986C20.6987 12.0247 20.7435 12.1713 20.7435 12.3236V16.5646H20.5734C19.9503 15.3533 18.6843 14.5224 17.226 14.5224C16.415 14.5224 15.6638 14.7803 15.0493 15.2159V8.07762ZM17.226 19.7545C16.593 19.7545 16.0512 19.362 15.8304 18.8095C15.7628 18.6395 15.7243 18.4546 15.7243 18.2612C15.7243 17.4374 16.3979 16.7672 17.226 16.7672C18.0541 16.7672 18.7277 17.4374 18.7277 18.2612C18.7277 18.4553 18.6893 18.6395 18.6216 18.8095C18.4009 19.362 17.8598 19.7545 17.226 19.7545Z" fill="#313131"/>
</svg>
