<svg width="24" height="24" viewBox="0 0 24 24" fill="none" xmlns="http://www.w3.org/2000/svg">
<path d="M4.72727 20.182C3.9697 20.182 3.32576 19.9168 2.79545 19.3865C2.26515 18.8562 2 18.2123 2 17.4547C2 16.8638 2.17061 16.3335 2.51182 15.8638C2.85303 15.3941 3.28848 15.0684 3.81818 14.8865V9.11381C3.28788 8.932 2.85242 8.60624 2.51182 8.13654C2.17121 7.66684 2.00061 7.13654 2 6.54563C2 5.78806 2.26515 5.14412 2.79545 4.61381C3.32576 4.08351 3.9697 3.81836 4.72727 3.81836C5.48485 3.81836 6.12879 4.08351 6.65909 4.61381C7.18939 5.14412 7.45455 5.78806 7.45455 6.54563C7.45455 7.13654 7.28424 7.66684 6.94364 8.13654C6.60303 8.60624 6.16727 8.932 5.63636 9.11381V11.0911H11.0909V9.11381C10.5606 8.932 10.1252 8.60624 9.78455 8.13654C9.44394 7.66684 9.27333 7.13654 9.27273 6.54563C9.27273 5.78806 9.53788 5.14412 10.0682 4.61381C10.5985 4.08351 11.2424 3.81836 12 3.81836C12.7576 3.81836 13.4015 4.08351 13.9318 4.61381C14.4621 5.14412 14.7273 5.78806 14.7273 6.54563C14.7273 7.13654 14.557 7.66684 14.2164 8.13654C13.8758 8.60624 13.44 8.932 12.9091 9.11381V11.0911H17.4545C17.7121 11.0911 17.9282 11.0041 18.1027 10.8302C18.2773 10.6562 18.3642 10.4402 18.3636 10.182V9.11381C17.8333 8.932 17.3979 8.60624 17.0573 8.13654C16.7167 7.66684 16.5461 7.13654 16.5455 6.54563C16.5455 5.78806 16.8106 5.14412 17.3409 4.61381C17.8712 4.08351 18.5152 3.81836 19.2727 3.81836C20.0303 3.81836 20.6742 4.08351 21.2045 4.61381C21.7348 5.14412 22 5.78806 22 6.54563C22 7.13654 21.8297 7.66684 21.4891 8.13654C21.1485 8.60624 20.7127 8.932 20.1818 9.11381V10.182C20.1818 10.9396 19.9167 11.5835 19.3864 12.1138C18.8561 12.6441 18.2121 12.9093 17.4545 12.9093H12.9091V14.8865C13.4394 15.0684 13.8752 15.3941 14.2164 15.8638C14.5576 16.3335 14.7279 16.8638 14.7273 17.4547C14.7273 18.2123 14.4621 18.8562 13.9318 19.3865C13.4015 19.9168 12.7576 20.182 12 20.182C11.2424 20.182 10.5985 19.9168 10.0682 19.3865C9.53788 18.8562 9.27273 18.2123 9.27273 17.4547C9.27273 16.8638 9.44333 16.3335 9.78455 15.8638C10.1258 15.3941 10.5612 15.0684 11.0909 14.8865V12.9093H5.63636V14.8865C6.16667 15.0684 6.60242 15.3941 6.94364 15.8638C7.28485 16.3335 7.45515 16.8638 7.45455 17.4547C7.45455 18.2123 7.18939 18.8562 6.65909 19.3865C6.12879 19.9168 5.48485 20.182 4.72727 20.182Z" fill="#313131"/>
</svg>
