<svg width="25" height="24" viewBox="0 0 25 24" fill="none" xmlns="http://www.w3.org/2000/svg">
<path d="M5.22727 20.182C4.4697 20.182 3.82576 19.9168 3.29545 19.3865C2.76515 18.8562 2.5 18.2123 2.5 17.4547C2.5 16.8638 2.67061 16.3335 3.01182 15.8638C3.35303 15.3941 3.78848 15.0684 4.31818 14.8865V9.11381C3.78788 8.932 3.35242 8.60624 3.01182 8.13654C2.67121 7.66684 2.50061 7.13654 2.5 6.54563C2.5 5.78806 2.76515 5.14412 3.29545 4.61381C3.82576 4.08351 4.4697 3.81836 5.22727 3.81836C5.98485 3.81836 6.62879 4.08351 7.15909 4.61381C7.68939 5.14412 7.95455 5.78806 7.95455 6.54563C7.95455 7.13654 7.78424 7.66684 7.44364 8.13654C7.10303 8.60624 6.66727 8.932 6.13636 9.11381V11.0911H11.5909V9.11381C11.0606 8.932 10.6252 8.60624 10.2845 8.13654C9.94394 7.66684 9.77333 7.13654 9.77273 6.54563C9.77273 5.78806 10.0379 5.14412 10.5682 4.61381C11.0985 4.08351 11.7424 3.81836 12.5 3.81836C13.2576 3.81836 13.9015 4.08351 14.4318 4.61381C14.9621 5.14412 15.2273 5.78806 15.2273 6.54563C15.2273 7.13654 15.057 7.66684 14.7164 8.13654C14.3758 8.60624 13.94 8.932 13.4091 9.11381V11.0911H17.9545C18.2121 11.0911 18.4282 11.0041 18.6027 10.8302C18.7773 10.6562 18.8642 10.4402 18.8636 10.182V9.11381C18.3333 8.932 17.8979 8.60624 17.5573 8.13654C17.2167 7.66684 17.0461 7.13654 17.0455 6.54563C17.0455 5.78806 17.3106 5.14412 17.8409 4.61381C18.3712 4.08351 19.0152 3.81836 19.7727 3.81836C20.5303 3.81836 21.1742 4.08351 21.7045 4.61381C22.2348 5.14412 22.5 5.78806 22.5 6.54563C22.5 7.13654 22.3297 7.66684 21.9891 8.13654C21.6485 8.60624 21.2127 8.932 20.6818 9.11381V10.182C20.6818 10.9396 20.4167 11.5835 19.8864 12.1138C19.3561 12.6441 18.7121 12.9093 17.9545 12.9093H13.4091V14.8865C13.9394 15.0684 14.3752 15.3941 14.7164 15.8638C15.0576 16.3335 15.2279 16.8638 15.2273 17.4547C15.2273 18.2123 14.9621 18.8562 14.4318 19.3865C13.9015 19.9168 13.2576 20.182 12.5 20.182C11.7424 20.182 11.0985 19.9168 10.5682 19.3865C10.0379 18.8562 9.77273 18.2123 9.77273 17.4547C9.77273 16.8638 9.94333 16.3335 10.2845 15.8638C10.6258 15.3941 11.0612 15.0684 11.5909 14.8865V12.9093H6.13636V14.8865C6.66667 15.0684 7.10242 15.3941 7.44364 15.8638C7.78485 16.3335 7.95515 16.8638 7.95455 17.4547C7.95455 18.2123 7.68939 18.8562 7.15909 19.3865C6.62879 19.9168 5.98485 20.182 5.22727 20.182Z" fill="#191F28"/>
</svg>
