<svg width="24" height="24" viewBox="0 0 24 24" fill="none" xmlns="http://www.w3.org/2000/svg">
<path d="M19.1142 4.87353H15.0188V4.40011C15.0188 3.62451 14.3949 3 13.6201 3H10.3799C9.60514 3 8.98126 3.62451 8.98126 4.40011V4.87353H4.88582C4.37264 4.87353 3.95001 5.29659 3.95001 5.8103C3.95001 6.32401 4.37264 6.74706 4.88582 6.74706H5.96251V18.0487C5.96251 19.6805 7.2807 21 8.91082 21H15.0892C16.7193 21 18.0375 19.6805 18.0375 18.0487V6.75713H19.1142C19.6274 6.75713 20.05 6.33408 20.05 5.82037C20.05 5.30666 19.6274 4.8836 19.1142 4.8836V4.87353ZM16.2263 18.0386C16.2263 18.6631 15.7131 19.1768 15.0892 19.1768H8.91082C8.28695 19.1768 7.77376 18.6631 7.77376 18.0386V6.75713H16.2263V18.0487V18.0386ZM13.8113 16.9205C13.3081 16.9205 12.9056 16.5176 12.9056 16.014V9.76889C12.9056 9.26525 13.3081 8.86234 13.8113 8.86234C14.3144 8.86234 14.7169 9.26525 14.7169 9.76889V16.014C14.7169 16.5176 14.3144 16.9205 13.8113 16.9205ZM10.1888 16.9205C9.68564 16.9205 9.28314 16.5176 9.28314 16.014V9.76889C9.28314 9.26525 9.68564 8.86234 10.1888 8.86234C10.6919 8.86234 11.0944 9.26525 11.0944 9.76889V16.014C11.0944 16.5176 10.6919 16.9205 10.1888 16.9205Z" fill="#191F28"/>
</svg>
