<svg width="24" height="24" viewBox="0 0 24 24" fill="none" xmlns="http://www.w3.org/2000/svg">
<path d="M1 6C1 8.76142 3.23858 11 6 11H18C20.7614 11 23 8.76142 23 6C23 3.23858 20.7614 1 18 1H6C3.23858 1 1 3.23858 1 6ZM1 18C1 20.7614 3.23858 23 6 23H18C20.7614 23 23 20.7614 23 18C23 15.2386 20.7614 13 18 13H6C3.23858 13 1 15.2386 1 18ZM15 6C15 4.34315 16.3431 3 18 3C19.6569 3 21 4.34315 21 6C21 7.65685 19.6569 9 18 9C16.3431 9 15 7.65685 15 6ZM3 18C3 16.3431 4.34315 15 6 15C7.65685 15 9 16.3431 9 18C9 19.6569 7.65685 21 6 21C4.34315 21 3 19.6569 3 18Z" fill="#313131"/>
</svg>
