<svg width="24" height="24" viewBox="0 0 24 24" fill="none" xmlns="http://www.w3.org/2000/svg">
<path fill-rule="evenodd" clip-rule="evenodd" d="M15.4402 10.3248C15.1662 11.517 14.3453 12.042 13.7449 12.4267C13.1235 12.8238 12.9087 12.9899 12.9087 13.5521C12.9087 13.7799 12.8182 13.9984 12.6571 14.1596C12.496 14.3207 12.2775 14.4112 12.0496 14.4112C11.8218 14.4112 11.6033 14.3207 11.4422 14.1596C11.2811 13.9984 11.1905 13.7799 11.1905 13.5521C11.1905 12.02 12.1317 11.4187 12.819 10.9786C13.365 10.6302 13.6542 10.425 13.7659 9.94009C13.8623 9.51914 13.786 9.14686 13.5368 8.83377C13.2104 8.42427 12.6271 8.15891 12.0496 8.15891C11.1161 8.15891 10.3563 8.91968 10.3563 9.85323C10.3563 10.0811 10.2658 10.2996 10.1047 10.4607C9.94354 10.6218 9.72503 10.7123 9.49718 10.7123C9.26934 10.7123 9.05082 10.6218 8.88971 10.4607C8.7286 10.2996 8.63809 10.0811 8.63809 9.85323C8.6391 8.94874 8.99886 8.08159 9.63842 7.44202C10.278 6.80245 11.1451 6.44269 12.0496 6.44168C13.1464 6.44168 14.2308 6.94759 14.8808 7.76373C15.4555 8.48536 15.654 9.39505 15.4402 10.3248ZM12.0649 17.712C11.7611 17.712 11.4698 17.5913 11.255 17.3765C11.0401 17.1617 10.9195 16.8703 10.9195 16.5665C10.9195 16.2628 11.0401 15.9714 11.255 15.7566C11.4698 15.5418 11.7611 15.4211 12.0649 15.4211C12.3687 15.4211 12.6601 15.5418 12.8749 15.7566C13.0897 15.9714 13.2104 16.2628 13.2104 16.5665C13.2104 16.8703 13.0897 17.1617 12.8749 17.3765C12.6601 17.5913 12.3687 17.712 12.0649 17.712ZM12 1.5C6.20018 1.5 1.5 6.20114 1.5 12C1.5 17.7998 6.20018 22.5 12 22.5C17.7989 22.5 22.5 17.7998 22.5 12C22.5 6.20114 17.7989 1.5 12 1.5Z" fill="#191F28"/>
</svg>
