<svg width="24" height="24" viewBox="0 0 24 24" fill="none" xmlns="http://www.w3.org/2000/svg">
<path d="M11.9888 0.750235C9.76419 0.752459 7.59023 1.41415 5.74166 2.65167C3.89309 3.88918 2.4529 5.64697 1.60313 7.70283C0.753374 9.7587 0.532191 12.0203 0.967544 14.2019C1.4029 16.3834 2.47524 18.3869 4.04903 19.9592C5.62282 21.5314 7.62739 22.6017 9.80937 23.0349C11.9913 23.4681 14.2528 23.2446 16.3078 22.3928C18.3628 21.541 20.1191 20.099 21.3548 18.2492C22.5905 16.3994 23.25 14.2248 23.25 12.0002C23.25 10.5219 22.9586 9.05809 22.3926 7.69244C21.8265 6.3268 20.9968 5.08611 19.951 4.0413C18.9051 2.9965 17.6636 2.16806 16.2974 1.60336C14.9312 1.03866 13.4671 0.748756 11.9888 0.750235ZM19.785 7.50023H16.4663C16.116 6.10712 15.5965 4.76213 14.9194 3.49523C16.9694 4.20291 18.6964 5.62446 19.785 7.50023ZM12 3.04523C12.945 4.40861 13.6701 5.91192 14.1488 7.50023H9.85125C10.3299 5.91192 11.055 4.40861 12 3.04523ZM3.2925 14.2502C3.10327 13.515 3.00503 12.7594 3 12.0002C3.00503 11.2411 3.10327 10.4854 3.2925 9.75023H7.08938C6.99324 10.4965 6.94252 11.2478 6.9375 12.0002C6.94439 12.7527 6.99699 13.5041 7.095 14.2502H3.2925ZM4.215 16.5002H7.53375C7.88405 17.8933 8.40354 19.2383 9.08063 20.5052C7.0284 19.8015 5.30013 18.3789 4.215 16.5002ZM7.53375 7.50023H4.215C5.30151 5.62051 7.03193 4.19781 9.08625 3.49523C8.40722 4.76186 7.88584 6.10687 7.53375 7.50023ZM12 20.9552C11.055 19.5918 10.3299 18.0885 9.85125 16.5002H14.1488C13.6701 18.0885 12.945 19.5918 12 20.9552ZM14.6325 14.2502H9.3675C9.25637 13.5052 9.19623 12.7535 9.1875 12.0002C9.19578 11.247 9.25593 10.4952 9.3675 9.75023H14.6325C14.7441 10.4952 14.8042 11.247 14.8125 12.0002C14.8038 12.7535 14.7436 13.5052 14.6325 14.2502ZM14.9138 20.5052C15.5908 19.2383 16.1103 17.8933 16.4606 16.5002H19.7794C18.6894 18.377 16.9603 19.7987 14.9081 20.5052H14.9138ZM16.905 14.2502C17.003 13.5041 17.0556 12.7527 17.0625 12.0002C17.0556 11.2477 17.003 10.4963 16.905 9.75023H20.7019C20.893 10.4852 20.9931 11.2409 21 12.0002C20.995 12.7594 20.8967 13.515 20.7075 14.2502H16.905Z" fill="#191F28"/>
</svg>
