<svg width="24" height="24" viewBox="0 0 24 24" fill="none" xmlns="http://www.w3.org/2000/svg">
<path d="M6 2.5C6.55228 2.5 7 2.94772 7 3.5V10.5C7 13.2614 9.23858 15.5 12 15.5C14.7614 15.5 17 13.2614 17 10.5V3.5C17 2.94772 17.4477 2.5 18 2.5C18.5523 2.5 19 2.94772 19 3.5V10.5C19 14.366 15.866 17.5 12 17.5C8.13401 17.5 5 14.366 5 10.5V3.5C5 2.94772 5.44772 2.5 6 2.5ZM3 20.5C3 19.9477 3.44772 19.5 4 19.5H20C20.5523 19.5 21 19.9477 21 20.5C21 21.0523 20.5523 21.5 20 21.5H4C3.44772 21.5 3 21.0523 3 20.5Z" fill="#313131"/>
</svg>
