<svg width="24" height="24" viewBox="0 0 24 24" fill="none" xmlns="http://www.w3.org/2000/svg">
<path d="M20.84 10.62L18.52 5.21C18.2 4.47 17.48 4 16.68 4H7.32C6.52 4 5.8 4.48 5.48 5.21L3.16 10.62C3.05 10.87 3 11.14 3 11.41V20.4C3 20.73 3.27 21 3.6 21H6.4C6.73 21 7 20.73 7 20.4V18H17V20.4C17 20.73 17.27 21 17.6 21H20.4C20.73 21 21 20.73 21 20.4V11.41C21 11.14 20.95 10.87 20.84 10.62ZM12.01 14.83C10.91 14.83 9.88 14.31 9.17 13.45V13.93C9.17 14.21 8.95 14.43 8.67 14.43C8.39 14.43 8.17 14.21 8.17 13.93V12.48C8.17 11.98 8.57 11.58 9.07 11.58H10.34C10.62 11.58 10.84 11.8 10.84 12.08C10.84 12.36 10.62 12.58 10.34 12.58H9.77C10.3 13.35 11.12 13.83 12.01 13.83C13.48 13.83 14.69 12.59 14.84 10.95C14.86 10.67 15.11 10.47 15.38 10.5C15.65 10.52 15.86 10.77 15.83 11.04C15.64 13.2 13.99 14.83 12.01 14.83ZM15.83 9.08C15.83 9.58 15.43 9.98 14.93 9.98H13.66C13.38 9.98 13.16 9.76 13.16 9.48C13.16 9.2 13.38 8.98 13.66 8.98H14.08C13.55 8.48 12.8 8.17 11.99 8.17C10.52 8.17 9.3 9.13 9.16 10.39C9.13 10.65 8.91 10.83 8.66 10.83C8.64 10.83 8.62 10.83 8.6 10.83C8.33 10.8 8.13 10.55 8.16 10.28C8.36 8.51 10 7.17 11.98 7.17C13.08 7.17 14.1 7.6 14.82 8.31V8C14.82 7.72 15.04 7.5 15.32 7.5C15.6 7.5 15.82 7.72 15.82 8V9.08H15.83Z" fill="#313131"/>
</svg>
