<svg width="24" height="24" viewBox="0 0 24 24" fill="none" xmlns="http://www.w3.org/2000/svg">
<path d="M21.75 13.0614C21.75 12.0053 21.2368 11.0568 20.4245 10.4233L18.9119 6.25841C18.4247 5.192 17.2983 4.5 16.0515 4.5H8.08555C6.86286 4.5 5.75411 5.16532 5.25207 6.20074L3.60607 10.3984C2.77705 11.0318 2.25 11.9915 2.25 13.0614V16.8123H2.30095C2.26853 16.9268 2.25 17.0464 2.25 17.1695V17.7203C2.25 18.4967 2.92711 19.125 3.76169 19.125C4.59626 19.125 5.27337 18.4958 5.27337 17.7203V17.1695C5.27337 17.0456 5.25485 16.9259 5.22243 16.8123H18.7766C18.7442 16.9268 18.7257 17.0464 18.7257 17.1695V17.7203C18.7257 18.4967 19.4028 19.125 20.2374 19.125C21.0729 19.125 21.7491 18.4958 21.7491 17.7203V17.1695C21.7491 17.0456 21.7305 16.9259 21.6981 16.8123H21.7491L21.75 13.0614ZM6.60999 7.04767C7.01107 6.22054 7.89659 5.68863 8.87289 5.68863H15.2364C16.2322 5.68863 17.1316 6.24119 17.5215 7.09329L18.446 9.63837C18.383 9.63235 18.3191 9.62718 18.2552 9.62374L16.9417 9.55403C13.6497 9.3793 10.3494 9.3793 7.05738 9.55403L5.74392 9.62374C5.6939 9.62632 5.64388 9.63063 5.59479 9.63493L6.60999 7.04767ZM5.55311 14.2991C4.89082 14.2991 4.3545 13.8007 4.3545 13.1853C4.3545 12.5699 4.89082 12.0716 5.55311 12.0716C6.2154 12.0716 6.75171 12.5699 6.75171 13.1853C6.75171 13.8007 6.2154 14.2991 5.55311 14.2991ZM14.3064 13.6776H9.66207C9.20912 13.6776 8.84232 13.3368 8.84232 12.9159C8.84232 12.495 9.20912 12.1542 9.66207 12.1542H14.3064C14.7594 12.1542 15.1262 12.495 15.1262 12.9159C15.1262 13.3368 14.7594 13.6776 14.3064 13.6776ZM18.4089 14.2991C17.7466 14.2991 17.2103 13.8007 17.2103 13.1853C17.2103 12.5699 17.7466 12.0716 18.4089 12.0716C19.0712 12.0716 19.6075 12.5699 19.6075 13.1853C19.6075 13.8007 19.0712 14.2991 18.4089 14.2991Z" fill="#313131"/>
</svg>
