<svg width="45" height="54" viewBox="0 0 45 54" fill="none" xmlns="http://www.w3.org/2000/svg">
<g clip-path="url(#clip0_15670_197435)">
<circle opacity="0.4" cx="22.5" cy="22.5" r="22.5" transform="matrix(-1 0 0 1 45 0)" fill="#F59C15"/>
<mask id="path-2-inside-1_15670_197435" fill="white">
<path fill-rule="evenodd" clip-rule="evenodd" d="M19.0365 42.455C9.50279 40.8119 2.25 32.5029 2.25 22.5C2.25 11.3162 11.3162 2.25 22.5 2.25C33.6838 2.25 42.75 11.3162 42.75 22.5C42.75 32.5029 35.4972 40.8119 25.9635 42.455L22.5 54L19.0365 42.455Z"/>
</mask>
<path fill-rule="evenodd" clip-rule="evenodd" d="M19.0365 42.455C9.50279 40.8119 2.25 32.5029 2.25 22.5C2.25 11.3162 11.3162 2.25 22.5 2.25C33.6838 2.25 42.75 11.3162 42.75 22.5C42.75 32.5029 35.4972 40.8119 25.9635 42.455L22.5 54L19.0365 42.455Z" fill="#F59C15"/>
<path d="M19.0365 42.455L20.4732 42.0239L20.2064 41.1345L19.2913 40.9768L19.0365 42.455ZM25.9635 42.455L25.7087 40.9768L24.7936 41.1345L24.5268 42.0239L25.9635 42.455ZM22.5 54L21.0633 54.431L22.5 59.2202L23.9367 54.431L22.5 54ZM0.75 22.5C0.75 33.2454 8.54075 42.1682 18.7817 43.9332L19.2913 40.9768C10.4648 39.4556 3.75 31.7604 3.75 22.5H0.75ZM22.5 0.75C10.4878 0.75 0.75 10.4878 0.75 22.5H3.75C3.75 12.1447 12.1447 3.75 22.5 3.75V0.75ZM44.25 22.5C44.25 10.4878 34.5122 0.75 22.5 0.75V3.75C32.8553 3.75 41.25 12.1447 41.25 22.5H44.25ZM26.2183 43.9332C36.4592 42.1682 44.25 33.2454 44.25 22.5H41.25C41.25 31.7604 34.5352 39.4556 25.7087 40.9768L26.2183 43.9332ZM24.5268 42.0239L21.0633 53.569L23.9367 54.431L27.4002 42.886L24.5268 42.0239ZM23.9367 53.569L20.4732 42.0239L17.5998 42.886L21.0633 54.431L23.9367 53.569Z" fill="white" mask="url(#path-2-inside-1_15670_197435)"/>
<path d="M27.4934 16.6641L29.3919 19.6508L32.835 20.8821C33.9538 21.2822 34.7005 22.3422 34.7005 23.5304L34.7005 27.1649C34.7005 27.8505 34.0936 28.4062 33.3449 28.4062H31.4097C31.4097 26.7043 30.03 25.3246 28.3281 25.3246C26.6261 25.3246 25.2464 26.7043 25.2464 28.4062H18.236C18.236 26.7043 16.8562 25.3246 15.1543 25.3246C13.4523 25.3246 12.0726 26.7043 12.0726 28.4062H11.5002C10.7516 28.4062 10.2996 27.8505 10.2996 27.1649V24.5848C10.2996 24.0655 10.4792 23.5621 10.808 23.1602L11.5002 22.314L12.3518 16.9946C12.5454 15.7856 13.6966 14.9062 14.7858 14.9062H24.6809C25.6474 14.9062 26.8958 15.6445 27.4934 16.6641ZM20.8512 21.0937L26.4293 21.0937C27.1682 21.0937 27.6699 20.407 27.3873 19.7826L26.4293 18C25.6834 16.563 24.9803 16.5234 23.9607 16.5234H20.8512C20.2785 16.5234 19.8143 16.948 19.8143 17.4718V20.1454C19.8143 20.6692 20.2785 21.0937 20.8512 21.0937ZM17.2222 21.0937C17.7948 21.0937 18.259 20.6692 18.259 20.1454V17.5113C18.259 16.9875 17.7948 16.563 17.2222 16.563L15.225 16.563C14.4353 16.563 13.9688 17.1231 13.8825 17.7593L13.6462 19.8656C13.5475 20.7426 14.1259 21.0937 14.811 21.0937H17.2222ZM16.9824 28.4062C16.9824 29.4159 16.1639 30.2344 15.1543 30.2344C14.1446 30.2344 13.3262 29.4159 13.3262 28.4062C13.3262 27.3966 14.1446 26.5781 15.1543 26.5781C16.1639 26.5781 16.9824 27.3966 16.9824 28.4062ZM28.3281 30.2344C29.3377 30.2344 30.1562 29.4159 30.1562 28.4062C30.1562 27.3966 29.3377 26.5781 28.3281 26.5781C27.3184 26.5781 26.4999 27.3966 26.4999 28.4062C26.4999 29.4159 27.3184 30.2344 28.3281 30.2344Z" fill="white"/>
</g>
<defs>
<clipPath id="clip0_15670_197435">
<rect width="45" height="54" fill="white"/>
</clipPath>
</defs>
</svg>
