<svg width="24" height="24" viewBox="0 0 24 24" fill="none" xmlns="http://www.w3.org/2000/svg">
<path d="M22.6186 4H1.38143C0.618344 4 0 4.60914 0 5.36088V18.6385C0 19.3902 0.618344 19.9993 1.38143 19.9993H22.6186C23.3817 19.9993 24 19.3902 24 18.6385V5.36088C24 4.60914 23.3817 4 22.6186 4ZM15.2938 11.5949C15.2938 11.3846 15.4673 11.2138 15.6807 11.2138H19.164C19.3774 11.2138 19.5509 11.3846 19.5509 11.5949V12.1469C19.5509 12.3571 19.3774 12.528 19.164 12.528H15.6807C15.4673 12.528 15.2938 12.3571 15.2938 12.1469V11.5949ZM13.4495 15.2097C13.4495 15.6913 13.0693 16.1033 12.5803 16.1191C12.0694 16.1362 11.6491 15.7327 11.6491 15.2327V14.8266C11.6491 14.8266 11.6485 14.8246 11.6471 14.8246H4.25236C4.25236 14.8246 4.25036 14.8252 4.25036 14.8266V15.2327C4.25036 15.7327 3.8308 16.1355 3.31918 16.1191C2.83024 16.1033 2.45003 15.6913 2.45003 15.2097V12.8368C2.45003 12.2789 2.70017 11.7789 3.09505 11.4378L4.24036 8.82714C4.4925 8.25151 5.06682 7.88024 5.70317 7.88024H10.197C10.8334 7.88024 11.407 8.25217 11.6598 8.82714L12.8051 11.4378C13.2007 11.7782 13.4501 12.2789 13.4501 12.8368L13.4495 15.2097ZM21.4646 14.7753C21.4646 14.9856 21.2912 15.1564 21.0777 15.1564H15.6807C15.4673 15.1564 15.2938 14.9856 15.2938 14.7753V14.2233C15.2938 14.0131 15.4673 13.8422 15.6807 13.8422H21.0777C21.2912 13.8422 21.4646 14.0131 21.4646 14.2233V14.7753ZM21.4646 9.51842C21.4646 9.7287 21.2912 9.89954 21.0777 9.89954H15.6807C15.4673 9.89954 15.2938 9.7287 15.2938 9.51842V8.96645C15.2938 8.75617 15.4673 8.58532 15.6807 8.58532H21.0777C21.2912 8.58532 21.4646 8.75617 21.4646 8.96645V9.51842Z" fill="#313131"/>
<path d="M11.4723 13.4394C11.8348 13.4394 12.1287 13.1499 12.1287 12.7928C12.1287 12.4357 11.8348 12.1462 11.4723 12.1462C11.1098 12.1462 10.816 12.4357 10.816 12.7928C10.816 13.1499 11.1098 13.4394 11.4723 13.4394Z" fill="#313131"/>
<path d="M9.3245 12.1462H6.78509C6.53628 12.1462 6.33484 12.3447 6.33484 12.5898C6.33484 12.8349 6.53628 13.0333 6.78509 13.0333H9.3245C9.5733 13.0333 9.77475 12.8349 9.77475 12.5898C9.77475 12.3447 9.5733 12.1462 9.3245 12.1462Z" fill="#313131"/>
<path d="M4.42712 13.4394C4.78962 13.4394 5.08348 13.1499 5.08348 12.7928C5.08348 12.4357 4.78962 12.1462 4.42712 12.1462C4.06462 12.1462 3.77075 12.4357 3.77075 12.7928C3.77075 13.1499 4.06462 13.4394 4.42712 13.4394Z" fill="#313131"/>
<path d="M11.5811 10.9785L10.798 9.19313C10.694 8.95657 10.4578 8.80347 10.1963 8.80347H5.70252C5.44104 8.80347 5.20424 8.95657 5.10085 9.19313L4.31775 10.9785C4.32375 10.9785 11.5751 10.9785 11.5811 10.9785Z" fill="#313131"/>
</svg>
