<svg width="24" height="24" viewBox="0 0 24 24" fill="none" xmlns="http://www.w3.org/2000/svg">
<path fill-rule="evenodd" clip-rule="evenodd" d="M1.77564 10.8807C1.2092 10.8807 0.75 11.3455 0.75 11.9189V15.3903C0.75 15.9636 1.20919 16.4284 1.77564 16.4284L3.37821 16.4284C3.37821 14.6367 4.81319 13.1842 6.58333 13.1842C8.35348 13.1842 9.78846 14.6367 9.78846 16.4284H14.8526C14.8526 14.6367 16.2875 13.1842 18.0577 13.1842C19.8278 13.1842 21.2628 14.6367 21.2628 16.4284L22.2244 16.4284C22.7908 16.4284 23.25 15.9636 23.25 15.3903V12.3088C23.25 11.9285 23.0446 11.5787 22.7146 11.3969L21.3697 10.6562C21.1755 10.5492 21.0206 10.3815 20.9282 10.1782L19.1336 6.22931C18.9662 5.861 18.6023 5.625 18.2018 5.625H12.7692C12.2028 5.625 11.7436 6.0898 11.7436 6.66317V10.8807H1.77564ZM19.9807 16.4158C19.974 15.3466 19.1156 14.4819 18.0577 14.4819C16.9956 14.4819 16.1346 15.3534 16.1346 16.4284C16.1346 17.5035 16.9956 18.375 18.0577 18.375C19.1198 18.375 19.9808 17.5035 19.9808 16.4284C19.9808 16.4242 19.9808 16.42 19.9807 16.4158ZM8.50637 16.4158C8.49968 15.3466 7.64127 14.4819 6.58333 14.4819C5.52125 14.4819 4.66026 15.3534 4.66026 16.4284C4.66026 17.5035 5.52125 18.375 6.58333 18.375C7.64542 18.375 8.50641 17.5035 8.50641 16.4284C8.50641 16.4242 8.5064 16.42 8.50637 16.4158ZM13.6346 11.1078H13.5705C13.1457 11.1078 12.8013 10.7592 12.8013 10.3292V7.86355C12.8013 7.43353 13.1457 7.08492 13.5705 7.08492H13.6346C14.0595 7.08492 14.4038 7.43353 14.4038 7.86355V10.3292C14.4038 10.7592 14.0595 11.1078 13.6346 11.1078ZM18.7747 11.1078H16.1346C15.7098 11.1078 15.3654 10.7592 15.3654 10.3292V7.86355C15.3654 7.43353 15.7098 7.08492 16.1346 7.08492H17.7139C18.02 7.08492 18.297 7.26861 18.4192 7.55267L19.48 10.0183C19.7012 10.5326 19.3289 11.1078 18.7747 11.1078Z" fill="#313131"/>
</svg>
