<svg width="24" height="24" viewBox="0 0 24 24" fill="none" xmlns="http://www.w3.org/2000/svg">
<path d="M17.4543 9.84312L15.8429 6.38098C15.5226 5.69263 14.8149 5.25 14.0348 5.25H6.747C5.86784 5.25 5.09362 5.81018 4.84492 6.62623L4.01392 9.35294H1.46912C0.864853 9.35294 0.375 9.82699 0.375 10.4118V15.7059C0.375 16.2907 0.864853 16.7647 1.46912 16.7647H2.28971C2.28971 14.9373 3.8205 13.4559 5.70882 13.4559C7.59715 13.4559 9.12794 14.9373 9.12794 16.7647H13.5728C13.5728 14.9373 15.1036 13.4559 16.9919 13.4559C18.8802 13.4559 20.411 14.9373 20.411 16.7647H22.5309C23.1351 16.7647 23.625 16.2907 23.625 15.7059V11.4453C23.625 10.905 23.2047 10.4514 22.6498 10.3927L17.4543 9.84312ZM16.9919 14.7794C18.1249 14.7794 19.0434 15.6683 19.0434 16.7647C19.0434 17.8612 18.1249 18.75 16.9919 18.75C15.8589 18.75 14.9404 17.8612 14.9404 16.7647C14.9404 15.6683 15.8589 14.7794 16.9919 14.7794ZM5.70882 14.7794C6.84182 14.7794 7.76029 15.6683 7.76029 16.7647C7.76029 17.8612 6.84182 18.75 5.70882 18.75C4.57583 18.75 3.65735 17.8612 3.65735 16.7647C3.65735 15.6683 4.57583 14.7794 5.70882 14.7794ZM15.4221 11.2059H11.9316C11.4784 11.2059 11.111 10.8503 11.111 10.4118V7.76471C11.111 7.32613 11.4784 6.97059 11.9316 6.97059H14.2895C14.6214 6.97059 14.9207 7.16411 15.0477 7.4609L16.1802 10.108C16.404 10.6308 16.0069 11.2059 15.4221 11.2059ZM9.88015 10.2794C9.88015 10.718 9.51276 11.0735 9.05957 11.0735H5.96643C5.42419 11.0735 5.03103 10.5736 5.17551 10.0678L5.88435 7.58622C5.98266 7.24203 6.30628 7.00368 6.67527 7.00368H9.05957C9.51276 7.00368 9.88015 7.35922 9.88015 7.79779V10.2794Z" fill="#313131"/>
</svg>
