<svg width="45" height="54" viewBox="0 0 45 54" fill="none" xmlns="http://www.w3.org/2000/svg">
<g clip-path="url(#clip0_13523_2517)">
<circle opacity="0.4" cx="22.5" cy="22.5" r="22.5" transform="matrix(-1 0 0 1 45 0)" fill="#3389FF"/>
<mask id="path-2-inside-1_13523_2517" fill="white">
<path fill-rule="evenodd" clip-rule="evenodd" d="M19.0365 42.455C9.50279 40.8119 2.25 32.5029 2.25 22.5C2.25 11.3162 11.3162 2.25 22.5 2.25C33.6838 2.25 42.75 11.3162 42.75 22.5C42.75 32.5029 35.4972 40.8119 25.9635 42.455L22.5 54L19.0365 42.455Z"/>
</mask>
<path fill-rule="evenodd" clip-rule="evenodd" d="M19.0365 42.455C9.50279 40.8119 2.25 32.5029 2.25 22.5C2.25 11.3162 11.3162 2.25 22.5 2.25C33.6838 2.25 42.75 11.3162 42.75 22.5C42.75 32.5029 35.4972 40.8119 25.9635 42.455L22.5 54L19.0365 42.455Z" fill="white"/>
<path d="M19.0365 42.455L20.4732 42.0239L20.2064 41.1345L19.2913 40.9768L19.0365 42.455ZM25.9635 42.455L25.7087 40.9768L24.7936 41.1345L24.5268 42.0239L25.9635 42.455ZM22.5 54L21.0633 54.431L22.5 59.2202L23.9367 54.431L22.5 54ZM0.75 22.5C0.75 33.2454 8.54075 42.1682 18.7817 43.9332L19.2913 40.9768C10.4648 39.4556 3.75 31.7604 3.75 22.5H0.75ZM22.5 0.75C10.4878 0.75 0.75 10.4878 0.75 22.5H3.75C3.75 12.1447 12.1447 3.75 22.5 3.75V0.75ZM44.25 22.5C44.25 10.4878 34.5122 0.75 22.5 0.75V3.75C32.8553 3.75 41.25 12.1447 41.25 22.5H44.25ZM26.2183 43.9332C36.4592 42.1682 44.25 33.2454 44.25 22.5H41.25C41.25 31.7604 34.5352 39.4556 25.7087 40.9768L26.2183 43.9332ZM24.5268 42.0239L21.0633 53.569L23.9367 54.431L27.4002 42.886L24.5268 42.0239ZM23.9367 53.569L20.4732 42.0239L17.5998 42.886L21.0633 54.431L23.9367 53.569Z" fill="#3389FF" mask="url(#path-2-inside-1_13523_2517)"/>
<path fill-rule="evenodd" clip-rule="evenodd" d="M28.6361 20.0735L26.8233 16.1786C26.4629 15.4042 25.6668 14.9062 24.7891 14.9062H16.5904C15.6013 14.9062 14.7303 15.5364 14.4505 16.4545L13.5157 19.5221H10.6528C9.97296 19.5221 9.42188 20.0554 9.42188 20.7132V26.6691C9.42188 27.327 9.97296 27.8603 10.6528 27.8603H11.5759C11.5759 25.8045 13.2981 24.1379 15.4224 24.1379C17.5468 24.1379 19.2689 25.8045 19.2689 27.8603H24.2694C24.2694 25.8045 25.9915 24.1379 28.1159 24.1379C30.2403 24.1379 31.9624 25.8045 31.9624 27.8603H34.3472C35.027 27.8603 35.5781 27.327 35.5781 26.6691V21.8759C35.5781 21.2682 35.1053 20.7578 34.481 20.6918L28.6361 20.0735ZM28.1159 25.6268C29.3905 25.6268 30.4238 26.6268 30.4238 27.8603C30.4238 29.0938 29.3905 30.0937 28.1159 30.0937C26.8413 30.0937 25.808 29.0938 25.808 27.8603C25.808 26.6268 26.8413 25.6268 28.1159 25.6268ZM15.4224 25.6268C16.697 25.6268 17.7303 26.6268 17.7303 27.8603C17.7303 29.0938 16.697 30.0937 15.4224 30.0937C14.1478 30.0937 13.1145 29.0938 13.1145 27.8603C13.1145 26.6268 14.1478 25.6268 15.4224 25.6268ZM26.3498 21.6066H22.4231C21.9132 21.6066 21.4999 21.2066 21.4999 20.7132V17.7353C21.4999 17.2419 21.9132 16.8419 22.4231 16.8419H25.0757C25.4491 16.8419 25.7858 17.0596 25.9286 17.3935L27.2028 20.3715C27.4545 20.9597 27.0077 21.6066 26.3498 21.6066ZM20.1152 20.5643V17.7725C20.1152 17.2791 19.7019 16.8791 19.192 16.8791H16.5097C16.0946 16.8791 15.7305 17.1473 15.6199 17.5345L14.8224 20.3263C14.6599 20.8953 15.1022 21.4577 15.7122 21.4577H19.192C19.7019 21.4577 20.1152 21.0577 20.1152 20.5643Z" fill="#3389FF"/>
</g>
<defs>
<clipPath id="clip0_13523_2517">
<rect width="45" height="54" fill="white"/>
</clipPath>
</defs>
</svg>
