<svg width="45" height="54" viewBox="0 0 45 54" fill="none" xmlns="http://www.w3.org/2000/svg">
<g clip-path="url(#clip0_13526_2541)">
<circle opacity="0.4" cx="22.5" cy="22.5" r="22.5" transform="matrix(-1 0 0 1 45 0)" fill="#F59C15"/>
<mask id="path-2-inside-1_13526_2541" fill="white">
<path fill-rule="evenodd" clip-rule="evenodd" d="M19.0365 42.455C9.50279 40.8119 2.25 32.5029 2.25 22.5C2.25 11.3162 11.3162 2.25 22.5 2.25C33.6838 2.25 42.75 11.3162 42.75 22.5C42.75 32.5029 35.4972 40.8119 25.9635 42.455L22.5 54L19.0365 42.455Z"/>
</mask>
<path fill-rule="evenodd" clip-rule="evenodd" d="M19.0365 42.455C9.50279 40.8119 2.25 32.5029 2.25 22.5C2.25 11.3162 11.3162 2.25 22.5 2.25C33.6838 2.25 42.75 11.3162 42.75 22.5C42.75 32.5029 35.4972 40.8119 25.9635 42.455L22.5 54L19.0365 42.455Z" fill="white"/>
<path d="M19.0365 42.455L20.4732 42.0239L20.2064 41.1345L19.2913 40.9768L19.0365 42.455ZM25.9635 42.455L25.7087 40.9768L24.7936 41.1345L24.5268 42.0239L25.9635 42.455ZM22.5 54L21.0633 54.431L22.5 59.2202L23.9367 54.431L22.5 54ZM0.75 22.5C0.75 33.2454 8.54075 42.1682 18.7817 43.9332L19.2913 40.9768C10.4648 39.4556 3.75 31.7604 3.75 22.5H0.75ZM22.5 0.75C10.4878 0.75 0.75 10.4878 0.75 22.5H3.75C3.75 12.1447 12.1447 3.75 22.5 3.75V0.75ZM44.25 22.5C44.25 10.4878 34.5122 0.75 22.5 0.75V3.75C32.8553 3.75 41.25 12.1447 41.25 22.5H44.25ZM26.2183 43.9332C36.4592 42.1682 44.25 33.2454 44.25 22.5H41.25C41.25 31.7604 34.5352 39.4556 25.7087 40.9768L26.2183 43.9332ZM24.5268 42.0239L21.0633 53.569L23.9367 54.431L27.4002 42.886L24.5268 42.0239ZM23.9367 53.569L20.4732 42.0239L17.5998 42.886L21.0633 54.431L23.9367 53.569Z" fill="#F59C15" mask="url(#path-2-inside-1_13526_2541)"/>
<path fill-rule="evenodd" clip-rule="evenodd" d="M10.9976 21.2408C10.3603 21.2408 9.84375 21.7637 9.84375 22.4088V26.3141C9.84375 26.9591 10.3603 27.482 10.9976 27.482L12.8005 27.482C12.8005 25.4663 14.4148 23.8322 16.4062 23.8322C18.3977 23.8322 20.012 25.4663 20.012 27.482H25.7091C25.7091 25.4663 27.3235 23.8322 29.3149 23.8322C31.3063 23.8322 32.9207 25.4663 32.9207 27.482L34.0024 27.482C34.6397 27.482 35.1562 26.9591 35.1562 26.3141V22.8474C35.1562 22.4196 34.9251 22.026 34.5539 21.8215L33.041 20.9882C32.8224 20.8679 32.6481 20.6792 32.5442 20.4504L30.5253 16.008C30.337 15.5936 29.9276 15.3281 29.477 15.3281H23.3654C22.7281 15.3281 22.2115 15.851 22.2115 16.4961V21.2408H10.9976ZM31.4783 27.4678C31.4708 26.2649 30.5051 25.2921 29.3149 25.2921C28.1201 25.2921 27.1514 26.2726 27.1514 27.482C27.1514 28.6914 28.1201 29.6719 29.3149 29.6719C30.5098 29.6719 31.4784 28.6914 31.4784 27.482C31.4784 27.4773 31.4783 27.4725 31.4783 27.4678ZM18.5697 27.4678C18.5621 26.2649 17.5964 25.2921 16.4062 25.2921C15.2114 25.2921 14.2428 26.2726 14.2428 27.482C14.2428 28.6914 15.2114 29.6719 16.4062 29.6719C17.6011 29.6719 18.5697 28.6914 18.5697 27.482C18.5697 27.4773 18.5697 27.4725 18.5697 27.4678ZM24.3389 21.4963H24.2668C23.7889 21.4963 23.4014 21.1041 23.4014 20.6203V17.8465C23.4014 17.3627 23.7889 16.9705 24.2668 16.9705H24.3389C24.8169 16.9705 25.2043 17.3627 25.2043 17.8465V20.6203C25.2043 21.1041 24.8169 21.4963 24.3389 21.4963ZM30.1216 21.4963H27.1514C26.6735 21.4963 26.2861 21.1041 26.2861 20.6203V17.8465C26.2861 17.3627 26.6735 16.9705 27.1514 16.9705H28.9282C29.2725 16.9705 29.5841 17.1772 29.7216 17.4968L30.915 20.2706C31.1639 20.8492 30.745 21.4963 30.1216 21.4963Z" fill="#F59C15"/>
</g>
<defs>
<clipPath id="clip0_13526_2541">
<rect width="45" height="54" fill="white"/>
</clipPath>
</defs>
</svg>
