<svg width="24" height="24" viewBox="0 0 24 24" fill="none" xmlns="http://www.w3.org/2000/svg">
<path d="M0 12.0964C0 11.6435 0.0532518 11.192 0.15875 10.7505L1.20047 6.39076C1.30753 5.94271 1.72391 5.625 2.20404 5.625H18.7804C19.0201 5.625 19.2522 5.70504 19.4368 5.85132L22.9974 10.1581C23.6324 10.6613 24 11.4093 24 12.1984V15.2025C24 15.9509 23.3662 16.5576 22.5845 16.5576H20.7826L20.7828 16.5268C20.7828 14.8259 19.3424 13.4471 17.5656 13.4471C15.7888 13.4471 14.3485 14.8259 14.3485 16.5268L14.3486 16.5576H9.20085L9.20101 16.5268C9.20101 14.8259 7.76064 13.4471 5.98385 13.4471C4.20706 13.4471 2.76669 14.8259 2.76669 16.5268L2.76685 16.5576H1.02949C0.460919 16.5576 0 16.1164 0 15.5721V12.0964ZM15.6353 16.5268C15.6353 16.5371 15.6355 16.5474 15.6356 16.5576C15.6526 17.5641 16.5102 18.375 17.5657 18.375C18.6318 18.375 19.496 17.5477 19.496 16.5272C19.496 16.4227 19.4869 16.3203 19.4695 16.2206C19.3171 15.3458 18.5227 14.679 17.5656 14.679C16.4995 14.679 15.6353 15.5063 15.6353 16.5268ZM4.05356 16.5268C4.05356 16.5371 4.0537 16.5474 4.05388 16.5576C4.07086 17.5641 4.92846 18.375 5.98391 18.375C7.04999 18.375 7.91421 17.5477 7.91421 16.5272C7.91421 16.4227 7.90515 16.3203 7.88776 16.2206C7.73533 15.3458 6.94094 14.679 5.98385 14.679C4.91778 14.679 4.05356 15.5063 4.05356 16.5268ZM15.6998 10.8601H20.3413C20.3538 10.8601 20.3662 10.8602 20.3787 10.8602C21.0279 10.8608 21.7429 10.8615 21.375 10.1581L20.25 8.625C19.125 7.125 18.7029 6.72826 18.2649 6.72826H14.8176H13.703H12.8873H2.76685C2.40244 6.72826 2.08765 6.97215 2.01169 7.31333L1.61442 9.96731C1.51203 10.4272 1.87837 10.8605 2.36958 10.8605H12.9973C13.4238 10.8605 13.6044 10.8601 13.6044 10.8601H15.6998Z" fill="#313131"/>
</svg>
