<svg width="24" height="24" viewBox="0 0 24 24" fill="none" xmlns="http://www.w3.org/2000/svg">
<path d="M15.3148 7.36775V14.0956H12.6111V13.6545C12.6111 13.0048 12.0805 12.478 11.4259 12.478H10.9444V7.36775H15.3148ZM9.53704 7.36775V12.478H4.72222V7.36775H9.53704ZM3.31481 7.36775V12.478H2.68519C2.03064 12.478 1.5 13.0048 1.5 13.6545V16.1177C1.5 16.7674 2.03064 17.2941 2.68519 17.2941H4.35185C4.35185 15.2638 6.01005 13.6177 8.05556 13.6177C10.1011 13.6177 11.7593 15.2638 11.7593 17.2941H16.5741C16.5741 15.2638 18.2323 13.6177 20.2778 13.6177C20.6894 13.6177 21.0853 13.6843 21.4552 13.8074C21.8758 12.7167 21.7278 11.4677 21.0185 10.4927L18.1296 6.22805L17.376 5.19391C17.0584 4.7582 16.5495 4.50013 16.0077 4.50013C15.9989 4.50013 15.9902 4.49984 15.9815 4.50013H2.72222C2.06767 4.50013 1.53704 5.02689 1.53704 5.67659V6.19129C1.53704 6.84099 2.06767 7.36775 2.72222 7.36775H3.31481ZM10.2778 17.2941C10.2778 16.0759 9.28284 15.0883 8.05556 15.0883C6.82827 15.0883 5.83333 16.0759 5.83333 17.2941C5.83333 18.5124 6.82827 19.5 8.05556 19.5C9.28284 19.5 10.2778 18.5124 10.2778 17.2941ZM22.5 17.2941C22.5 16.2097 21.7117 15.3081 20.673 15.123C20.6177 15.1131 20.5616 15.1054 20.505 15.0996C20.4303 15.0921 20.3545 15.0883 20.2778 15.0883C19.0505 15.0883 18.0556 16.0759 18.0556 17.2941C18.0556 18.5124 19.0505 19.5 20.2778 19.5C21.5051 19.5 22.5 18.5124 22.5 17.2941Z" fill="#313131"/>
</svg>
