<svg width="45" height="54" viewBox="0 0 45 54" fill="none" xmlns="http://www.w3.org/2000/svg">
<g clip-path="url(#clip0_13523_2579)">
<circle opacity="0.4" cx="22.5" cy="22.5" r="22.5" transform="matrix(-1 0 0 1 45 0)" fill="#F59C15"/>
<mask id="path-2-inside-1_13523_2579" fill="white">
<path fill-rule="evenodd" clip-rule="evenodd" d="M19.0365 42.455C9.50279 40.8119 2.25 32.5029 2.25 22.5C2.25 11.3162 11.3162 2.25 22.5 2.25C33.6838 2.25 42.75 11.3162 42.75 22.5C42.75 32.5029 35.4972 40.8119 25.9635 42.455L22.5 54L19.0365 42.455Z"/>
</mask>
<path fill-rule="evenodd" clip-rule="evenodd" d="M19.0365 42.455C9.50279 40.8119 2.25 32.5029 2.25 22.5C2.25 11.3162 11.3162 2.25 22.5 2.25C33.6838 2.25 42.75 11.3162 42.75 22.5C42.75 32.5029 35.4972 40.8119 25.9635 42.455L22.5 54L19.0365 42.455Z" fill="#F59C15"/>
<path d="M19.0365 42.455L20.4732 42.0239L20.2064 41.1345L19.2913 40.9768L19.0365 42.455ZM25.9635 42.455L25.7087 40.9768L24.7936 41.1345L24.5268 42.0239L25.9635 42.455ZM22.5 54L21.0633 54.431L22.5 59.2202L23.9367 54.431L22.5 54ZM0.75 22.5C0.75 33.2454 8.54075 42.1682 18.7817 43.9332L19.2913 40.9768C10.4648 39.4556 3.75 31.7604 3.75 22.5H0.75ZM22.5 0.75C10.4878 0.75 0.75 10.4878 0.75 22.5H3.75C3.75 12.1447 12.1447 3.75 22.5 3.75V0.75ZM44.25 22.5C44.25 10.4878 34.5122 0.75 22.5 0.75V3.75C32.8553 3.75 41.25 12.1447 41.25 22.5H44.25ZM26.2183 43.9332C36.4592 42.1682 44.25 33.2454 44.25 22.5H41.25C41.25 31.7604 34.5352 39.4556 25.7087 40.9768L26.2183 43.9332ZM24.5268 42.0239L21.0633 53.569L23.9367 54.431L27.4002 42.886L24.5268 42.0239ZM23.9367 53.569L20.4732 42.0239L17.5998 42.886L21.0633 54.431L23.9367 53.569Z" fill="white" mask="url(#path-2-inside-1_13523_2579)"/>
<path fill-rule="evenodd" clip-rule="evenodd" d="M30.0304 20.4216L28.1588 16.4683C27.8303 15.7744 27.1046 15.3281 26.3047 15.3281H13.4232C12.4606 15.3281 11.6298 15.9703 11.4327 16.8667L10.6635 20.3653L10.4808 20.3751C9.88656 20.4069 9.42188 20.8746 9.42188 21.4408V26.603C9.42188 27.1925 9.9242 27.6704 10.5439 27.6704H12.4372C12.4372 25.8281 14.007 24.3347 15.9434 24.3347C17.8798 24.3347 19.4496 25.8281 19.4496 27.6704H25.0595C25.0595 25.8281 26.6293 24.3347 28.5657 24.3347C30.5021 24.3347 32.0719 25.8281 32.0719 27.6704H34.4561C35.0758 27.6704 35.5781 27.1925 35.5781 26.603V22.4548C35.5781 21.9549 35.2134 21.5219 34.7005 21.413L30.0304 20.4216ZM28.5657 25.669C29.7276 25.669 30.6694 26.565 30.6694 27.6704C30.6694 28.7758 29.7276 29.6719 28.5657 29.6719C27.4039 29.6719 26.462 28.7758 26.462 27.6704C26.462 26.565 27.4039 25.669 28.5657 25.669ZM15.9434 25.669C17.1053 25.669 18.0471 26.565 18.0471 27.6704C18.0471 28.7758 17.1053 29.6719 15.9434 29.6719C14.7816 29.6719 13.8397 28.7758 13.8397 27.6704C13.8397 26.565 14.7816 25.669 15.9434 25.669ZM24.1479 21.1991H27.7117C28.3154 21.1991 28.7227 20.612 28.4854 20.0838L27.3465 17.5487C27.2141 17.2539 26.9096 17.0627 26.5727 17.0627H24.1479C23.6832 17.0627 23.3064 17.4212 23.3064 17.8633V20.3985C23.3064 20.8406 23.6832 21.1991 24.1479 21.1991ZM22.0442 17.93V20.3985C22.0442 20.8406 21.6674 21.1991 21.2027 21.1991H17.1113C16.629 21.1991 16.2454 20.8142 16.271 20.356L16.4087 17.8876C16.4325 17.4625 16.8017 17.1294 17.2491 17.1294H21.2027C21.6674 17.1294 22.0442 17.4879 22.0442 17.93ZM14.9636 20.4462L15.1187 17.9778C15.1476 17.5177 14.7632 17.1294 14.2787 17.1294H13.2524C12.8367 17.1294 12.4833 17.4182 12.4205 17.8091L12.0242 20.2776C11.9463 20.7623 12.3406 21.1991 12.856 21.1991H14.1236C14.5689 21.1991 14.9371 20.8691 14.9636 20.4462Z" fill="white"/>
</g>
<defs>
<clipPath id="clip0_13523_2579">
<rect width="45" height="54" fill="white"/>
</clipPath>
</defs>
</svg>
