<svg width="24" height="24" viewBox="0 0 24 24" fill="none" xmlns="http://www.w3.org/2000/svg">
<path d="M1.5 6.42188C1.5 5.154 2.529 4.125 3.79688 4.125H20.2031C21.471 4.125 22.5 5.154 22.5 6.42188V17.5781C22.5 18.1873 22.258 18.7715 21.8273 19.2023C21.3965 19.633 20.8123 19.875 20.2031 19.875H3.79688C3.18771 19.875 2.60349 19.633 2.17274 19.2023C1.74199 18.7715 1.5 18.1873 1.5 17.5781V6.42188ZM3.79688 6.09375C3.70985 6.09375 3.62639 6.12832 3.56486 6.18986C3.50332 6.25139 3.46875 6.33485 3.46875 6.42188V17.5781C3.46875 17.7592 3.61575 17.9062 3.79688 17.9062H20.2031C20.2901 17.9062 20.3736 17.8717 20.4351 17.8101C20.4967 17.7486 20.5312 17.6651 20.5312 17.5781V6.42188C20.5312 6.33485 20.4967 6.25139 20.4351 6.18986C20.3736 6.12832 20.2901 6.09375 20.2031 6.09375H3.79688Z" fill="#313131"/>
<path d="M9.375 15.3585V8.64245C9.3748 8.58424 9.39009 8.52703 9.4193 8.47668C9.44851 8.42633 9.49059 8.38465 9.54122 8.35593C9.59185 8.32721 9.64921 8.31247 9.70742 8.31324C9.76562 8.314 9.82258 8.33023 9.87244 8.36027L15.4689 11.719C15.5173 11.7482 15.5573 11.7894 15.5851 11.8386C15.6128 11.8878 15.6274 11.9433 15.6274 11.9998C15.6274 12.0563 15.6128 12.1119 15.5851 12.1611C15.5573 12.2103 15.5173 12.2515 15.4689 12.2807L9.87244 15.6394C9.82267 15.6694 9.76584 15.6856 9.70775 15.6864C9.64965 15.6872 9.59239 15.6726 9.54179 15.644C9.4912 15.6155 9.4491 15.574 9.4198 15.5238C9.3905 15.4737 9.37504 15.4166 9.375 15.3585Z" fill="#313131"/>
</svg>
