<svg width="24" height="24" viewBox="0 0 24 24" fill="none" xmlns="http://www.w3.org/2000/svg">
<path d="M18.6937 10.1525L17.0301 6.6385C16.7381 6.02165 16.093 5.625 15.3819 5.625H3.93177C3.07609 5.625 2.33763 6.1958 2.16243 6.99264L1.47866 10.1025L1.31623 10.1112C0.788053 10.1395 0.375 10.5552 0.375 11.0585V15.6471C0.375 16.1711 0.821515 16.5959 1.37232 16.5959H3.05529C3.05529 14.9583 4.45065 13.6308 6.17192 13.6308C7.89318 13.6308 9.28854 14.9583 9.28854 16.5959H14.2751C14.2751 14.9583 15.6705 13.6308 17.3918 13.6308C19.113 13.6308 20.5084 14.9583 20.5084 16.5959H22.6277C23.1785 16.5959 23.625 16.1711 23.625 15.6471V11.9599C23.625 11.5155 23.3008 11.1306 22.8449 11.0338L18.6937 10.1525ZM17.3918 14.8169C18.4245 14.8169 19.2617 15.6134 19.2617 16.5959C19.2617 17.5785 18.4245 18.375 17.3918 18.375C16.359 18.375 15.5218 17.5785 15.5218 16.5959C15.5218 15.6134 16.359 14.8169 17.3918 14.8169ZM6.17192 14.8169C7.20467 14.8169 8.04189 15.6134 8.04189 16.5959C8.04189 17.5785 7.20467 18.375 6.17192 18.375C5.13916 18.375 4.30194 17.5785 4.30194 16.5959C4.30194 15.6134 5.13916 14.8169 6.17192 14.8169ZM13.4648 10.8436C13.0517 10.8436 12.7168 10.525 12.7168 10.132V7.87849C12.7168 7.48547 13.0517 7.16686 13.4648 7.16686H15.6202C15.9197 7.16686 16.1903 7.33681 16.308 7.5988L17.3204 9.85229C17.5313 10.3218 17.1693 10.8436 16.6326 10.8436H13.4648ZM11.5948 7.93779V10.132C11.5948 10.525 11.2599 10.8436 10.8468 10.8436H7.21C6.78132 10.8436 6.44033 10.5015 6.46307 10.0942L6.58556 7.90005C6.60665 7.52223 6.9348 7.22616 7.33249 7.22616H10.8468C11.2599 7.22616 11.5948 7.54477 11.5948 7.93779ZM5.301 10.1744C5.27738 10.5503 4.95011 10.8436 4.55434 10.8436H3.42756C2.96945 10.8436 2.61897 10.4554 2.68815 10.0245L3.04048 7.83032C3.09628 7.48283 3.41041 7.22616 3.77989 7.22616H4.69221C5.12286 7.22616 5.46456 7.57127 5.43887 7.98026L5.301 10.1744Z" fill="#313131"/>
</svg>
