<svg width="45" height="54" viewBox="0 0 45 54" fill="none" xmlns="http://www.w3.org/2000/svg">
<g clip-path="url(#clip0_13526_2621)">
<circle opacity="0.4" cx="22.5" cy="22.5" r="22.5" transform="matrix(-1 0 0 1 45 0)" fill="#F59C15"/>
<mask id="path-2-inside-1_13526_2621" fill="white">
<path fill-rule="evenodd" clip-rule="evenodd" d="M19.0365 42.455C9.50279 40.8119 2.25 32.5029 2.25 22.5C2.25 11.3162 11.3162 2.25 22.5 2.25C33.6838 2.25 42.75 11.3162 42.75 22.5C42.75 32.5029 35.4972 40.8119 25.9635 42.455L22.5 54L19.0365 42.455Z"/>
</mask>
<path fill-rule="evenodd" clip-rule="evenodd" d="M19.0365 42.455C9.50279 40.8119 2.25 32.5029 2.25 22.5C2.25 11.3162 11.3162 2.25 22.5 2.25C33.6838 2.25 42.75 11.3162 42.75 22.5C42.75 32.5029 35.4972 40.8119 25.9635 42.455L22.5 54L19.0365 42.455Z" fill="#F59C15"/>
<path d="M19.0365 42.455L20.4732 42.0239L20.2064 41.1345L19.2913 40.9768L19.0365 42.455ZM25.9635 42.455L25.7087 40.9768L24.7936 41.1345L24.5268 42.0239L25.9635 42.455ZM22.5 54L21.0633 54.431L22.5 59.2202L23.9367 54.431L22.5 54ZM0.75 22.5C0.75 33.2454 8.54075 42.1682 18.7817 43.9332L19.2913 40.9768C10.4648 39.4556 3.75 31.7604 3.75 22.5H0.75ZM22.5 0.75C10.4878 0.75 0.75 10.4878 0.75 22.5H3.75C3.75 12.1447 12.1447 3.75 22.5 3.75V0.75ZM44.25 22.5C44.25 10.4878 34.5122 0.75 22.5 0.75V3.75C32.8553 3.75 41.25 12.1447 41.25 22.5H44.25ZM26.2183 43.9332C36.4592 42.1682 44.25 33.2454 44.25 22.5H41.25C41.25 31.7604 34.5352 39.4556 25.7087 40.9768L26.2183 43.9332ZM24.5268 42.0239L21.0633 53.569L23.9367 54.431L27.4002 42.886L24.5268 42.0239ZM23.9367 53.569L20.4732 42.0239L17.5998 42.886L21.0633 54.431L23.9367 53.569Z" fill="white" mask="url(#path-2-inside-1_13526_2621)"/>
<path fill-rule="evenodd" clip-rule="evenodd" d="M9.17859 21.0943C9.05991 21.591 9 22.0989 9 22.6084V26.5186C9 27.1309 9.51853 27.6273 10.1582 27.6273H12.1127C12.1126 27.6158 12.1125 27.6042 12.1125 27.5927C12.1125 25.6792 13.7329 24.128 15.7318 24.128C17.7307 24.128 19.3511 25.6792 19.3511 27.5927C19.3511 27.6042 19.3511 27.6158 19.351 27.6273H25.1422C25.1421 27.6158 25.142 27.6042 25.142 27.5927C25.142 25.6792 26.7624 24.128 28.7613 24.128C30.7602 24.128 32.3806 25.6792 32.3806 27.5927C32.3806 27.6042 32.3806 27.6158 32.3804 27.6273H34.4075C35.287 27.6273 36 26.9448 36 26.1029V22.7232C36 21.8355 35.5865 20.9939 34.8721 20.4279L30.8664 15.5827C30.6587 15.4182 30.3976 15.3281 30.128 15.3281H11.4795C10.9394 15.3281 10.471 15.6856 10.3505 16.1896L9.17859 21.0943ZM26.5901 27.6273C26.5899 27.6158 26.5897 27.6042 26.5897 27.5927C26.5897 26.4446 27.562 25.5139 28.7613 25.5139C29.838 25.5139 30.7317 26.264 30.9032 27.2481C30.9228 27.3603 30.933 27.4756 30.933 27.5931C30.933 28.7412 29.9607 29.6719 28.7614 29.6719C27.574 29.6719 26.6092 28.7596 26.5901 27.6273ZM13.5606 27.6273C13.5604 27.6158 13.5603 27.6042 13.5603 27.5927C13.5603 26.4446 14.5325 25.5139 15.7318 25.5139C16.8086 25.5139 17.7022 26.264 17.8737 27.2481C17.8933 27.3603 17.9035 27.4756 17.9035 27.5931C17.9035 28.7412 16.9312 29.6719 15.7319 29.6719C14.5445 29.6719 13.5797 28.7596 13.5606 27.6273ZM31.884 21.2177H26.6622C26.1825 21.2177 24.3049 21.2177 24.3049 21.2177L24.5397 16.9912C24.9852 16.9912 25.3139 16.9912 25.7936 16.9912H29.6719C30.1646 16.9912 30.5156 17.0156 31.7812 18.7031L33.0469 20.4279C33.4688 21.2344 32.625 21.2181 31.884 21.2177ZM24.3049 21.2177L24.5397 16.9912C24.2187 16.9912 24.1017 16.9912 23.622 16.9912H12.2365C11.8266 16.9912 11.4724 17.2655 11.387 17.6494L10.8162 20.2132C10.701 20.7306 11.1131 21.2181 11.6658 21.2181H23.622C24.1017 21.2181 24.3049 21.2177 24.3049 21.2177Z" fill="white"/>
</g>
<defs>
<clipPath id="clip0_13526_2621">
<rect width="45" height="54" fill="white"/>
</clipPath>
</defs>
</svg>
