<svg width="45" height="54" viewBox="0 0 45 54" fill="none" xmlns="http://www.w3.org/2000/svg">
<g clip-path="url(#clip0_13506_193538)">
<circle opacity="0.4" cx="22.5" cy="22.5" r="22.5" transform="matrix(-1 0 0 1 45 0)" fill="#02C57E"/>
<mask id="path-2-inside-1_13506_193538" fill="white">
<path fill-rule="evenodd" clip-rule="evenodd" d="M19.0365 42.455C9.50279 40.8119 2.25 32.5029 2.25 22.5C2.25 11.3162 11.3162 2.25 22.5 2.25C33.6838 2.25 42.75 11.3162 42.75 22.5C42.75 32.5029 35.4972 40.8119 25.9635 42.455L22.5 54L19.0365 42.455Z"/>
</mask>
<path fill-rule="evenodd" clip-rule="evenodd" d="M19.0365 42.455C9.50279 40.8119 2.25 32.5029 2.25 22.5C2.25 11.3162 11.3162 2.25 22.5 2.25C33.6838 2.25 42.75 11.3162 42.75 22.5C42.75 32.5029 35.4972 40.8119 25.9635 42.455L22.5 54L19.0365 42.455Z" fill="#02C57E"/>
<path d="M19.0365 42.455L20.4732 42.0239L20.2064 41.1345L19.2913 40.9768L19.0365 42.455ZM25.9635 42.455L25.7087 40.9768L24.7936 41.1345L24.5268 42.0239L25.9635 42.455ZM22.5 54L21.0633 54.431L22.5 59.2202L23.9367 54.431L22.5 54ZM0.75 22.5C0.75 33.2454 8.54075 42.1682 18.7817 43.9332L19.2913 40.9768C10.4648 39.4556 3.75 31.7604 3.75 22.5H0.75ZM22.5 0.75C10.4878 0.75 0.75 10.4878 0.75 22.5H3.75C3.75 12.1447 12.1447 3.75 22.5 3.75V0.75ZM44.25 22.5C44.25 10.4878 34.5122 0.75 22.5 0.75V3.75C32.8553 3.75 41.25 12.1447 41.25 22.5H44.25ZM26.2183 43.9332C36.4592 42.1682 44.25 33.2454 44.25 22.5H41.25C41.25 31.7604 34.5352 39.4556 25.7087 40.9768L26.2183 43.9332ZM24.5268 42.0239L21.0633 53.569L23.9367 54.431L27.4002 42.886L24.5268 42.0239ZM23.9367 53.569L20.4732 42.0239L17.5998 42.886L21.0633 54.431L23.9367 53.569Z" fill="white" mask="url(#path-2-inside-1_13506_193538)"/>
<path fill-rule="evenodd" clip-rule="evenodd" d="M26.2292 17.2887H21.3125V23.0378H21.8542C22.5905 23.0378 23.1875 23.6304 23.1875 24.3613V24.8576H26.2292V17.2887ZM19.7292 17.2887H14.3125V23.0378H19.7292V17.2887ZM12.7292 17.2887V23.0378H12.0208C11.2845 23.0378 10.6875 23.6304 10.6875 24.3613V27.1324C10.6875 27.8633 11.2845 28.4559 12.0208 28.4559H13.8958C13.8958 26.1717 15.7613 24.3199 18.0625 24.3199C20.3637 24.3199 22.2292 26.1717 22.2292 28.4559H27.6458C27.6458 26.1717 29.5113 24.3199 31.8125 24.3199C32.2756 24.3199 32.7209 24.3949 33.137 24.5333C33.6103 23.3063 33.4438 21.9012 32.6458 20.8043L29.3958 16.0066L28.548 14.8432C28.1908 14.353 27.6182 14.0626 27.0086 14.0626C26.9988 14.0626 26.9889 14.0623 26.9792 14.0626H12.0625C11.3261 14.0626 10.7292 14.6553 10.7292 15.3862V15.9652C10.7292 16.6961 11.3261 17.2887 12.0625 17.2887H12.7292ZM20.5625 28.4559C20.5625 27.0854 19.4432 25.9743 18.0625 25.9743C16.6818 25.9743 15.5625 27.0854 15.5625 28.4559C15.5625 29.8264 16.6818 30.9375 18.0625 30.9375C19.4432 30.9375 20.5625 29.8264 20.5625 28.4559ZM34.3125 28.4559C34.3125 27.2359 33.4257 26.2217 32.2571 26.0134C32.1949 26.0023 32.1318 25.9935 32.0681 25.9871C31.9841 25.9787 31.8988 25.9743 31.8125 25.9743C30.4318 25.9743 29.3125 27.0854 29.3125 28.4559C29.3125 29.8264 30.4318 30.9375 31.8125 30.9375C33.1932 30.9375 34.3125 29.8264 34.3125 28.4559Z" fill="white"/>
</g>
<defs>
<clipPath id="clip0_13506_193538">
<rect width="45" height="54" fill="white"/>
</clipPath>
</defs>
</svg>
