<svg width="24" height="24" viewBox="0 0 24 24" fill="none" xmlns="http://www.w3.org/2000/svg">
<path d="M16.4386 6.8125L18.1261 9.46739L21.1867 10.5619C22.1811 10.9175 22.8448 11.8598 22.8448 12.9159L22.8448 16.1466C22.8448 16.756 22.3054 17.25 21.6399 17.25H19.9198C19.9197 15.7371 18.6933 14.5107 17.1805 14.5107C15.6676 14.5107 14.4412 15.7371 14.4412 17.25H8.20974C8.20973 15.7371 6.98331 14.5107 5.47046 14.5107C3.9576 14.5107 2.73119 15.7371 2.73117 17.25H2.2224C1.55695 17.25 1.15515 16.756 1.15515 16.1466V13.8532C1.15515 13.3915 1.31484 12.9441 1.60714 12.5868L2.2224 11.8347L2.97941 7.10632C3.15148 6.03161 4.17473 5.25 5.14292 5.25H13.9386C14.7977 5.25 15.9073 5.90625 16.4386 6.8125ZM10.5344 10.75L15.4927 10.75C16.1495 10.75 16.5955 10.1396 16.3442 9.58456L15.4927 8C14.8297 6.72263 14.2047 6.6875 13.2984 6.6875H10.5344C10.0254 6.6875 9.61273 7.0649 9.61273 7.53045V9.90705C9.61273 10.3726 10.0254 10.75 10.5344 10.75ZM7.3086 10.75C7.81761 10.75 8.23025 10.3726 8.23025 9.90705V7.56558C8.23025 7.10003 7.81761 6.72262 7.3086 6.72262L5.53333 6.72263C4.83135 6.72263 4.41673 7.22057 4.33997 7.78606L4.12993 9.65831C4.04219 10.4378 4.55631 10.75 5.16533 10.75H7.3086ZM7.09546 17.25C7.09546 18.1475 6.36792 18.875 5.47046 18.875C4.573 18.875 3.84546 18.1475 3.84546 17.25C3.84546 16.3525 4.573 15.625 5.47046 15.625C6.36792 15.625 7.09546 16.3525 7.09546 17.25ZM17.1805 18.875C18.0779 18.875 18.8055 18.1475 18.8055 17.25C18.8055 16.3525 18.0779 15.625 17.1805 15.625C16.283 15.625 15.5555 16.3525 15.5555 17.25C15.5555 18.1475 16.283 18.875 17.1805 18.875Z" fill="#191F28"/>
</svg>
