<svg width="24" height="24" viewBox="0 0 24 24" fill="none" xmlns="http://www.w3.org/2000/svg">
<path d="M5.17177 5.53086C5.17177 5.11842 4.83423 4.78096 4.42167 4.78096C4.00912 4.78096 3.67158 5.11842 3.67158 5.53086C3.67158 5.94331 4.00912 6.28077 4.42167 6.28077C4.83423 6.28077 5.17177 5.94331 5.17177 5.53086ZM6.96449 4.78096C6.55194 4.78096 6.2144 5.11842 6.2144 5.53086C6.2144 5.94331 6.55194 6.28077 6.96449 6.28077C7.37704 6.28077 7.71459 5.94331 7.71459 5.53086C7.71459 5.11842 7.37704 4.78096 6.96449 4.78096ZM9.50731 4.78096C9.09476 4.78096 8.75722 5.11842 8.75722 5.53086C8.75722 5.94331 9.09476 6.28077 9.50731 6.28077C9.91986 6.28077 10.2574 5.94331 10.2574 5.53086C10.2574 5.11842 9.91986 4.78096 9.50731 4.78096ZM19.8211 2.53125H3.24403C2.02137 2.53125 1.03125 3.52112 1.03125 4.74347V18.3167C1.03125 19.5391 2.02137 20.5289 3.24403 20.5289H14.3492C14.6605 20.5289 14.9117 20.2777 14.9117 19.9665H14.908C14.908 19.6553 14.6567 19.4041 14.3454 19.4041H3.57407C2.79022 19.4041 2.15639 18.7704 2.15639 17.9868V8.53048H20.9087V12.8424C20.9087 13.1536 21.16 13.4049 21.4713 13.4049C21.7826 13.4049 22.0339 13.1536 22.0339 12.8424V4.74347C22.0339 3.52112 21.0438 2.53125 19.8211 2.53125ZM20.9087 7.40562H2.15639V4.98343C2.15639 4.24853 2.75272 3.65611 3.48406 3.65611H19.5398C20.2974 3.65611 20.9087 4.27103 20.9087 5.02468V7.40562ZM15.8794 14.9871L18.2609 21.2188C18.3922 21.5601 18.876 21.5488 18.9922 21.2038L19.8249 18.7592C19.8961 18.5529 20.0574 18.3955 20.2599 18.3242L22.7052 17.4918C23.0503 17.3756 23.0578 16.8882 22.7202 16.7607L16.4907 14.376C16.1081 14.2297 15.7331 14.6047 15.8794 14.9871Z" fill="#313131"/>
</svg>
