<svg width="24" height="24" viewBox="0 0 24 24" fill="none" xmlns="http://www.w3.org/2000/svg">
<path fill-rule="evenodd" clip-rule="evenodd" d="M19.0861 4.90651C17.2061 3.03279 14.7061 2.00111 12.0422 2C6.55278 2 2.08556 6.44518 2.08333 11.9099C2.08222 13.6564 2.54111 15.3615 3.41278 16.8643L2 22L7.27889 20.6222C8.73333 21.4123 10.3711 21.8275 12.0378 21.8281H12.0422C17.5306 21.8281 21.9983 17.3823 22 11.9182C22.0011 9.26986 20.9661 6.78023 19.0861 4.90706V4.90651ZM12.0422 20.1545H12.0389C10.5539 20.1545 9.09722 19.757 7.82611 19.0061L7.52389 18.8276L4.39111 19.6453L5.22722 16.6055L5.03056 16.2937C4.20222 14.9823 3.76444 13.4662 3.765 11.9099C3.76667 7.3685 7.48 3.67358 12.0456 3.67358C14.2561 3.67468 16.3344 4.53221 17.8972 6.08968C19.46 7.6466 20.32 9.71659 20.3189 11.9171C20.3167 16.459 16.6039 20.1539 12.0422 20.1539V20.1545ZM16.5822 13.9854C16.3333 13.8616 15.11 13.2628 14.8817 13.1799C14.6533 13.0969 14.4878 13.056 14.3222 13.3037C14.1567 13.5519 13.6794 14.1098 13.5344 14.2746C13.3894 14.4399 13.2439 14.4603 12.9956 14.3365C12.7467 14.2126 11.945 13.9511 10.9944 13.1074C10.255 12.4506 9.75556 11.6401 9.61 11.3918C9.465 11.1436 9.59444 11.0098 9.71889 10.8865C9.83056 10.7754 9.96778 10.5973 10.0922 10.4525C10.2167 10.3082 10.2578 10.2042 10.3411 10.0395C10.4244 9.87416 10.3828 9.72986 10.3206 9.60546C10.2583 9.48162 9.76111 8.26251 9.55333 7.76713C9.35111 7.28446 9.14611 7.3497 8.99389 7.34196C8.84889 7.33477 8.68278 7.33367 8.51667 7.33367C8.35056 7.33367 8.08111 7.39559 7.85278 7.64328C7.62444 7.89152 6.98167 8.4903 6.98167 9.70885C6.98167 10.9274 7.87333 12.105 7.99778 12.2709C8.12222 12.4362 9.75278 14.9375 12.2483 16.0101C12.8417 16.2655 13.3056 16.4175 13.6672 16.532C14.2633 16.7205 14.8056 16.694 15.2344 16.6304C15.7122 16.5591 16.7067 16.0311 16.9139 15.4528C17.1211 14.8744 17.1211 14.3785 17.0589 14.2751C16.9967 14.1717 16.8306 14.1098 16.5817 13.986V13.9849L16.5822 13.9854Z" fill="#313131"/>
</svg>
