<svg width="24" height="24" viewBox="0 0 24 24" fill="none" xmlns="http://www.w3.org/2000/svg">
<path d="M14.1706 4.25723L21.659 17.2315C22.6259 18.9088 21.4222 21.0005 19.4884 21.0005H4.51158C2.57781 21.0005 1.37414 18.9088 2.34102 17.2315L9.82944 4.25723C10.7963 2.57995 13.2135 2.57995 14.1804 4.25723H14.1706ZM11.9901 17.7939C12.1579 17.7939 12.3256 17.7545 12.4736 17.6657C12.6216 17.5769 12.74 17.4585 12.8288 17.3105C12.9176 17.1625 12.957 17.0046 12.9669 16.827C12.9669 16.6494 12.9176 16.4916 12.8288 16.3436C12.74 16.1956 12.6216 16.0772 12.4736 15.9884C12.3256 15.8996 12.1677 15.8601 11.9901 15.8601C11.8125 15.8601 11.6547 15.8996 11.5067 15.9884C11.3587 16.0772 11.2403 16.1956 11.1515 16.3436C11.0627 16.4916 11.0232 16.6494 11.0232 16.827C11.0232 17.0046 11.0627 17.1625 11.1515 17.3105C11.2403 17.4585 11.3587 17.5769 11.5067 17.6657C11.6547 17.7545 11.8224 17.7939 11.9901 17.7939ZM12.888 9.31869H11.1022L11.26 15.1892H12.74L12.8978 9.31869H12.888Z" fill="#313131"/>
</svg>
