<svg width="24" height="24" viewBox="0 0 24 24" fill="none" xmlns="http://www.w3.org/2000/svg">
<path d="M7.71716 11.1925C7.71716 11.6104 8.05588 11.9491 8.4737 11.9491H14.0216C14.4394 11.9491 14.7781 11.6104 14.7781 11.1925C14.7781 10.7747 14.4394 10.436 14.0216 10.436H8.4737C8.05588 10.436 7.71716 10.7747 7.71716 11.1925Z" fill="#313131"/>
<path d="M16.4428 17.4573L19.7354 20.7499C20.0308 21.0453 20.5098 21.0453 20.8053 20.7499C21.1007 20.4545 21.1007 19.9755 20.8053 19.68L17.508 16.3827C18.6701 14.9714 19.368 13.1635 19.368 11.1925C19.368 6.68006 15.7099 3.02197 11.1974 3.02197C6.68494 3.02197 3.02686 6.68006 3.02686 11.1925C3.02686 15.705 6.68494 19.3631 11.1974 19.3631C13.1941 19.3631 15.0235 18.6469 16.4428 17.4573ZM15.296 16.3105C14.1734 17.2107 12.7483 17.7492 11.1974 17.7492C7.57629 17.7492 4.64079 14.8137 4.64079 11.1925C4.64079 7.57141 7.57629 4.63591 11.1974 4.63591C14.8185 4.63591 17.754 7.57141 17.754 11.1925C17.754 12.7176 17.2334 14.121 16.3601 15.2348L16.3474 15.2221L15.2775 16.292L15.296 16.3105Z" fill="#313131"/>
</svg>
