<svg width="24" height="24" viewBox="0 0 24 24" fill="none" xmlns="http://www.w3.org/2000/svg">
<path d="M8.35358 10.3159C7.93576 10.3159 7.59705 10.6546 7.59705 11.0724C7.59705 11.4902 7.93576 11.8289 8.35358 11.8289H10.371V13.8464C10.371 14.2642 10.7097 14.6029 11.1275 14.6029C11.5454 14.6029 11.8841 14.2642 11.8841 13.8464V11.8289H13.9015C14.3193 11.8289 14.658 11.4902 14.658 11.0724C14.658 10.6546 14.3193 10.3159 13.9015 10.3159H11.8841V8.29846C11.8841 7.88064 11.5454 7.54193 11.1275 7.54193C10.7097 7.54193 10.371 7.88064 10.371 8.29846V10.3159H8.35358Z" fill="#313131"/>
<path d="M17.3879 16.2626C18.55 14.8513 19.2479 13.0434 19.2479 11.0724C19.2479 6.55994 15.5898 2.90186 11.0773 2.90186C6.56482 2.90186 2.90674 6.55994 2.90674 11.0724C2.90674 15.5849 6.56482 19.243 11.0773 19.243C13.074 19.243 14.9034 18.5267 16.3227 17.3372L19.6153 20.6298C19.9107 20.9252 20.3897 20.9252 20.6852 20.6298C20.9806 20.3343 20.9806 19.8553 20.6852 19.5599L17.3879 16.2626ZM16.24 15.1147L16.2272 15.102L15.1573 16.1719L15.1759 16.1904C14.0533 17.0906 12.6282 17.629 11.0773 17.629C7.45618 17.629 4.52068 14.6935 4.52068 11.0724C4.52068 7.45129 7.45618 4.51579 11.0773 4.51579C14.6984 4.51579 17.6339 7.45129 17.6339 11.0724C17.6339 12.5975 17.1132 14.0009 16.24 15.1147Z" fill="#313131"/>
</svg>
